<svg id="Capa_1" enable-background="new 0 0 511.999 511.999" height="512" viewBox="0 0 511.999 511.999" width="512" xmlns="http://www.w3.org/2000/svg"><g><path d="m379.079 162.185-65.042 65.042c-16.692-7.027-41.235-2.896-57.878 9.752-16.971-14.41-35.166-17.317-57.737-9.292l-65.501-65.501-48.031 48.031 10.606 10.606 37.425-37.425 31.82 31.82-85.457 85.458-31.82-31.82 37.424-37.425-10.606-10.606-48.032 48.031 53.033 53.033 10.606-10.606 16.346 16.346c-2.025 13.172 2.293 26.71 11.771 36.188l29.72 29.72-15.166 15.165c-4.664 4.663-7.232 10.882-7.232 17.511s2.568 12.848 7.232 17.512c3.396 3.396 7.54 5.598 11.907 6.605-.545 2.062-.827 4.211-.827 6.404 0 6.628 2.568 12.848 7.232 17.512s10.884 7.232 17.513 7.232c2.193 0 4.341-.282 6.403-.827 1.026 4.481 3.284 8.588 6.603 11.907 4.665 4.664 10.884 7.233 17.512 7.233h.001c4.835 0 9.452-1.367 13.406-3.917 1.219 3.306 3.147 6.332 5.706 8.891 4.664 4.664 10.883 7.233 17.513 7.233 6.628 0 12.847-2.568 17.511-7.232l2.96-2.956 2.956 2.956c4.663 4.664 10.882 7.232 17.511 7.233h.001c6.629 0 12.848-2.569 17.511-7.232 2.56-2.56 4.488-5.587 5.707-8.894 9.586 6.175 22.535 5.069 30.918-3.315 3.396-3.396 5.597-7.541 6.604-11.906 2.062.545 4.209.826 6.402.826h.002c6.628 0 12.848-2.568 17.511-7.232 6.468-6.468 8.603-15.654 6.406-23.917 4.367-1.007 8.511-3.208 11.907-6.604 4.664-4.664 7.232-10.883 7.232-17.512 0-6.628-2.569-12.848-7.232-17.511l-15.165-15.165 29.72-29.72c9.479-9.478 13.797-23.016 11.771-36.189l16.346-16.346 10.606 10.606 53.033-53.033zm-250.466 191.026c-6.767-6.767-9.436-16.772-6.967-26.111l1.103-4.17-22.253-22.253 74.851-74.851 19.442 19.442 4.621-1.898c21.581-8.864 35.958-6.354 51.277 8.961l66.807 67.37c-10.316 5.532-24.694 4.888-35.766-2.313l-55.538-36.125-4.077 2.614c-15.811 10.135-49.964 15.2-65.414-.259l-10.61 10.603c21.133 21.146 59.988 14.912 79.81 4.747l9.94 6.466-77.504 77.5zm154.759 140.949c-1.83 1.831-4.283 2.839-6.905 2.839-2.623 0-5.074-1.008-6.905-2.839l-2.956-2.956 13.81-13.81 3.009 3.008c3.755 3.811 3.738 9.968-.053 13.758zm36.626-12.209c-3.807 3.807-10.002 3.808-13.811 0l-15.165-15.165 13.81-13.81 15.267 15.267c3.706 3.817 3.672 9.935-.101 13.708zm30.519-18.312c-1.831 1.831-4.283 2.838-6.905 2.838h-.001c-2.623 0-5.074-1.008-6.904-2.838l-5.939-5.939c-.054-.055-.109-.111-.164-.166l-.001.001-15.165-15.165 13.81-13.81 21.269 21.269c3.807 3.807 3.807 10.003 0 13.81zm18.313-44.331c1.831 1.831 2.839 4.283 2.839 6.905s-1.008 5.075-2.839 6.905c-3.807 3.808-10.003 3.807-13.811 0l-15.165-15.165 13.811-13.811zm20.42-96.379 1.103 4.17c2.47 9.339-.2 19.344-6.967 26.111l-140.95 140.95c-1.831 1.83-4.282 2.838-6.905 2.838-2.622 0-5.075-1.008-6.906-2.839s-2.839-4.283-2.839-6.905c0-2.603.994-5.039 2.8-6.866l78.473-78.472-10.606-10.606-90.642 90.641c-1.831 1.831-4.283 2.839-6.905 2.839s-5.074-1.009-6.906-2.84c-3.774-3.774-3.807-9.895-.098-13.71l90.741-90.741-10.606-10.606-90.642 90.642v-.001c-.055.055-.109.109-.163.165l-5.939 5.939c-1.83 1.83-4.282 2.838-6.905 2.838s-5.075-1.008-6.906-2.838c-1.831-1.831-2.839-4.283-2.839-6.905s1.008-5.074 2.839-6.905l96.745-96.746-10.606-10.606-90.641 90.642c-3.808 3.808-10.003 3.807-13.811 0-1.831-1.831-2.838-4.283-2.838-6.905 0-2.623 1.008-5.074 2.838-6.905l105.523-105.517 24.857 16.169c19.515 12.692 45.578 10.915 60.626-4.134l5.281-5.281-72.386-72.996c14.441-9.98 34.608-11.244 44.226-4.868l5.111 3.388 20.246-20.246 74.851 74.851zm-41.991-107.711 31.82-31.82 85.457 85.458-31.82 31.82z"/><path d="m287.819 36.872-42.426 42.426-21.213-21.214-31.819 31.82 53.032 53.032 74.246-74.246zm-74.246 53.032 10.606-10.607 21.213 21.213 42.426-42.426 10.607 10.606-53.033 53.033z"/><path d="m425.238 261.334h15v15h-15z" transform="matrix(.708 -.706 .706 .708 -63.465 384.229)"/><path d="m71.761 261.335h15v15h-15z" transform="matrix(.706 -.708 .708 .706 -167.015 135.035)"/><path d="m248.5 164.808h15v15h-15z"/><path d="m162.345 142.309v37.5h71.155v-15h-56.154v-149.809h157.308v149.808h-56.154v15h71.153v-37.5h118.152l-38.204-63.654 38.205-63.654h-118.153v-15h-187.308v15h-118.152l38.204 63.655-38.204 63.654zm278.964-112.309-29.201 48.655 29.201 48.654h-91.655v-97.309zm-370.619 0h91.655v97.309h-91.655l29.201-48.654z"/></g></svg>