<?xml version="1.0" encoding="UTF-8" standalone="no"?>
<svg
   xmlns:dc="http://purl.org/dc/elements/1.1/"
   xmlns:cc="http://creativecommons.org/ns#"
   xmlns:rdf="http://www.w3.org/1999/02/22-rdf-syntax-ns#"
   xmlns:svg="http://www.w3.org/2000/svg"
   xmlns="http://www.w3.org/2000/svg"
   xmlns:sodipodi="http://sodipodi.sourceforge.net/DTD/sodipodi-0.dtd"
   xmlns:inkscape="http://www.inkscape.org/namespaces/inkscape"
   width="755.90552"
   height="755.90552"
   viewBox="0 0 200 200"
   version="1.1"
   id="svg8"
   inkscape:version="1.0.2-2 (e86c870879, 2021-01-15)"
   sodipodi:docname="aksiya.svg">
  <defs
     id="defs2" />
  <sodipodi:namedview
     id="base"
     pagecolor="#ffffff"
     bordercolor="#666666"
     borderopacity="1.0"
     inkscape:pageopacity="0.0"
     inkscape:pageshadow="2"
     inkscape:zoom="0.7"
     inkscape:cx="475.64898"
     inkscape:cy="452.76317"
     inkscape:document-units="px"
     inkscape:current-layer="layer1"
     inkscape:document-rotation="0"
     showgrid="false"
     units="px"
     inkscape:window-width="1710"
     inkscape:window-height="1030"
     inkscape:window-x="160"
     inkscape:window-y="0"
     inkscape:window-maximized="0" />
  <metadata
     id="metadata5">
    <rdf:RDF>
      <cc:Work
         rdf:about="">
        <dc:format>image/svg+xml</dc:format>
        <dc:type
           rdf:resource="http://purl.org/dc/dcmitype/StillImage" />
        <dc:title></dc:title>
      </cc:Work>
    </rdf:RDF>
  </metadata>
  <g
     inkscape:label="Слой 1"
     inkscape:groupmode="layer"
     id="layer1">
    <g
       id="g187"
       transform="matrix(0.41310742,0,0,0.41310742,1.4253553,1.4253518)">
      <path
         d="m 256,360 c 0,8.83594 -7.16406,16 -16,16 -8.83594,0 -16,-7.16406 -16,-16 0,-8.83594 7.16406,-16 16,-16 8.83594,0 16,7.16406 16,16 z m 0,0"
         id="path170" />
      <path
         d="m 176,424 v 40 h -56 v 16 h 240 v -16 h -56 v -40 h -16 v 40 h -96 v -40 z m 0,0"
         id="path172" />
      <path
         d="M 456,0 H 24 C 10.75,0.015625 0.015625,10.75 0,24 v 360 c 0.015625,13.25 10.75,23.98437 24,24 h 432 c 13.25,-0.0156 23.98437,-10.75 24,-24 V 24 C 479.98437,10.75 469.25,0.015625 456,0 Z m 8,384 c -0.004,4.41797 -3.58203,7.99609 -8,8 H 24 c -4.417969,-0.004 -7.996094,-3.58203 -8,-8 v -56 h 448 z m 0,-72 H 16 V 24 c 0.0039,-4.417969 3.582031,-7.996094 8,-8 h 432 c 4.41797,0.0039 7.99609,3.582031 8,8 z m 0,0"
         id="path174" />
    </g>
    <g
       id="g2587"
       transform="matrix(1.6255076,0,0,1.6255076,40.412669,10.162611)">
      <path
         d="M 20.554,66.964 A 1,1 0 0 1 19.846,66.671 L 7.329,54.154 A 1,1 0 0 1 7.171,52.946 L 33.189,8.036 A 1,1 0 0 1 34.761,7.83 l 30.713,30.713 a 1,1 0 0 1 -0.19,1.563 L 21.07,66.82 a 1,1 0 0 1 -0.516,0.144 z M 9.287,53.283 20.707,64.7 63.157,39.054 34.267,10.164 Z"
         id="path2559" />
      <path
         d="M 18.467,72 A 3.923,3.923 0 0 1 15.674,70.843 L 3.157,58.326 A 3.95,3.95 0 1 1 8.743,52.74 L 21.26,65.257 A 3.95,3.95 0 0 1 18.467,72 Z M 5.95,53.583 a 1.95,1.95 0 0 0 -1.379,3.329 l 12.517,12.517 a 2,2 0 0 0 2.758,0 1.952,1.952 0 0 0 0,-2.758 L 7.329,54.154 A 1.945,1.945 0 0 0 5.95,53.583 Z"
         id="path2561" />
      <path
         d="M 67.838,42.1 A 3.925,3.925 0 0 1 65.045,40.943 L 33.058,8.955 a 3.95,3.95 0 0 1 0,-5.586 4.045,4.045 0 0 1 5.586,0 L 70.631,35.355 A 3.95,3.95 0 0 1 67.838,42.1 Z M 35.851,4.211 a 1.95,1.95 0 0 0 -1.379,3.33 l 31.987,31.987 a 2,2 0 0 0 2.758,0 1.95,1.95 0 0 0 0,-2.758 L 37.23,4.783 A 1.94,1.94 0 0 0 35.851,4.211 Z"
         id="path2563" />
      <path
         d="m 34.326,65.319 a 3.488,3.488 0 0 1 -3.017,-1.738 l -1.776,-3.069 a 1,1 0 1 1 1.731,-1 l 1.776,3.069 a 1.478,1.478 0 0 0 2.021,0.539 l 9.9,-5.734 a 1.48,1.48 0 0 0 0.539,-2.02 l -1.93,-3.335 a 1,1 0 0 1 1.731,-1 l 1.93,3.335 a 3.483,3.483 0 0 1 -1.267,4.752 l -9.9,5.734 a 3.46,3.46 0 0 1 -1.738,0.467 z"
         id="path2565" />
      <path
         d="m 64.071,22.17 a 1,1 0 0 1 -0.316,-1.949 l 6.929,-2.31 a 1.0013352,1.0013352 0 1 1 0.633,1.9 l -6.929,2.31 a 1,1 0 0 1 -0.317,0.049 z"
         id="path2567" />
      <path
         d="m 60.3,14.7 a 1,1 0 0 1 -0.707,-1.707 l 4.62,-4.62 a 1,1 0 0 1 1.414,1.414 l -4.62,4.62 A 1,1 0 0 1 60.3,14.7 Z"
         id="path2569" />
      <path
         d="M 52.831,10.93 A 1,1 0 0 1 51.882,9.613 l 2.31,-6.929 a 1.0013352,1.0013352 0 0 1 1.9,0.633 l -2.31,6.929 a 1,1 0 0 1 -0.951,0.684 z"
         id="path2571" />
    </g>
  </g>
</svg>
