<?xml version="1.0" encoding="UTF-8" standalone="no"?>
<svg
   xmlns:dc="http://purl.org/dc/elements/1.1/"
   xmlns:cc="http://creativecommons.org/ns#"
   xmlns:rdf="http://www.w3.org/1999/02/22-rdf-syntax-ns#"
   xmlns:svg="http://www.w3.org/2000/svg"
   xmlns="http://www.w3.org/2000/svg"
   xmlns:sodipodi="http://sodipodi.sourceforge.net/DTD/sodipodi-0.dtd"
   xmlns:inkscape="http://www.inkscape.org/namespaces/inkscape"
   width="755.90552"
   height="755.90552"
   viewBox="0 0 200 200"
   version="1.1"
   id="svg8"
   inkscape:version="1.0.2-2 (e86c870879, 2021-01-15)"
   sodipodi:docname="assortiment-kop.svg">
  <defs
     id="defs2" />
  <sodipodi:namedview
     id="base"
     pagecolor="#ffffff"
     bordercolor="#666666"
     borderopacity="1.0"
     inkscape:pageopacity="0.0"
     inkscape:pageshadow="2"
     inkscape:zoom="0.67611765"
     inkscape:cx="475.64898"
     inkscape:cy="452.76317"
     inkscape:document-units="px"
     inkscape:current-layer="layer1"
     inkscape:document-rotation="0"
     showgrid="false"
     units="px"
     inkscape:window-width="1920"
     inkscape:window-height="1001"
     inkscape:window-x="-9"
     inkscape:window-y="-9"
     inkscape:window-maximized="1" />
  <metadata
     id="metadata5">
    <rdf:RDF>
      <cc:Work
         rdf:about="">
        <dc:format>image/svg+xml</dc:format>
        <dc:type
           rdf:resource="http://purl.org/dc/dcmitype/StillImage" />
        <dc:title></dc:title>
      </cc:Work>
    </rdf:RDF>
  </metadata>
  <g
     inkscape:label="Слой 1"
     inkscape:groupmode="layer"
     id="layer1">
    <g
       id="g187"
       transform="matrix(0.41310742,0,0,0.41310742,1.4253553,1.4253518)">
      <path
         d="m 256,360 c 0,8.83594 -7.16406,16 -16,16 -8.83594,0 -16,-7.16406 -16,-16 0,-8.83594 7.16406,-16 16,-16 8.83594,0 16,7.16406 16,16 z m 0,0"
         id="path170" />
      <path
         d="m 176,424 v 40 h -56 v 16 h 240 v -16 h -56 v -40 h -16 v 40 h -96 v -40 z m 0,0"
         id="path172" />
      <path
         d="M 456,0 H 24 C 10.75,0.015625 0.015625,10.75 0,24 v 360 c 0.015625,13.25 10.75,23.98437 24,24 h 432 c 13.25,-0.0156 23.98437,-10.75 24,-24 V 24 C 479.98437,10.75 469.25,0.015625 456,0 Z m 8,384 c -0.004,4.41797 -3.58203,7.99609 -8,8 H 24 c -4.417969,-0.004 -7.996094,-3.58203 -8,-8 v -56 h 448 z m 0,-72 H 16 V 24 c 0.0039,-4.417969 3.582031,-7.996094 8,-8 h 432 c 4.41797,0.0039 7.99609,3.582031 8,8 z m 0,0"
         id="path174" />
    </g>
    <g
       id="Out_line"
       data-name="Out line"
       transform="matrix(0.2330129,0,0,0.2330129,41.813368,9.4719572)">
      <path
         d="m 128,208 a 24,24 0 1 0 -24,24 24.02687,24.02687 0 0 0 24,-24 z m -24,8 a 8,8 0 1 1 8,-8 8.00917,8.00917 0 0 1 -8,8 z"
         id="path1346" />
      <path
         d="m 153.94678,113.93994 a 48.10439,48.10439 0 0 1 -28.37061,13.73242 8.00018,8.00018 0 0 0 -6.57519,10.75977 A 15.78153,15.78153 0 0 1 120,144 16,16 0 0 1 88,144 15.78153,15.78153 0 0 1 88.999,138.43213 7.999,7.999 0 0 0 82.42478,127.67285 47.99857,47.99857 0 0 1 88,32 h 32 a 47.99985,47.99985 0 0 1 39.75879,21.09961 L 173.001,44.12012 A 63.98248,63.98248 0 0 0 120,16 H 88 A 64.00787,64.00787 0 0 0 72.06152,141.99756 Q 72,142.99365 72,144 a 32,32 0 0 0 64,0 q 0,-1.01293 -0.0625,-2.01709 a 64.338,64.338 0 0 0 29.33105,-16.7373 65.01315,65.01315 0 0 0 7.73291,-9.37647 l -13.24316,-8.97852 a 48.9783,48.9783 0 0 1 -5.81152,7.04932 z"
         id="path1348" />
      <circle
         cx="104"
         cy="248"
         r="8"
         id="circle1350" />
      <path
         d="m 280,208 a 24,24 0 1 0 -24,24 24.02687,24.02687 0 0 0 24,-24 z m -24,8 a 8,8 0 1 1 8,-8 8.00917,8.00917 0 0 1 -8,8 z"
         id="path1352" />
      <circle
         cx="256"
         cy="248"
         r="8"
         id="circle1354" />
      <path
         d="m 432,208 a 24,24 0 1 0 -24,24 24.02687,24.02687 0 0 0 24,-24 z m -24,8 a 8,8 0 1 1 8,-8 8.00917,8.00917 0 0 1 -8,8 z"
         id="path1356" />
      <path
         d="m 352.24219,106.90137 -13.24414,8.97754 a 63.93762,63.93762 0 0 0 37.064,26.11279 q -0.0623,0.99975 -0.062,2.0083 a 32,32 0 0 0 64,0 q 0,-1.01293 -0.0625,-2.01709 a 64.3184,64.3184 0 0 0 29.32228,-16.729 A 64.00284,64.00284 0 0 0 424,16 h -32 a 63.948,63.948 0 0 0 -53.02881,28.1709 l 13.25781,8.958 A 47.93907,47.93907 0 0 1 392,32 h 32 a 47.99816,47.99816 0 0 1 5.57617,95.67236 8.00018,8.00018 0 0 0 -6.57519,10.75977 A 15.78153,15.78153 0 0 1 424,144 a 16,16 0 0 1 -32,0 15.79252,15.79252 0 0 1 0.999,-5.56787 7.99943,7.99943 0 0 0 -6.57422,-10.75928 47.90489,47.90489 0 0 1 -34.18259,-20.77148 z"
         id="path1358" />
      <circle
         cx="408"
         cy="248"
         r="8"
         id="circle1360" />
      <path
         d="M 272,16 H 240 A 64.00787,64.00787 0 0 0 224.06152,141.99756 Q 224,142.99439 224,144 a 32,32 0 0 0 64,0 q 0,-1.01293 -0.0625,-2.01709 a 64.29785,64.29785 0 0 0 29.31593,-16.72266 l 0.006,-0.006 A 64.00284,64.00284 0 0 0 272,16 Z m 33.94336,97.94287 a 48.10123,48.10123 0 0 1 -28.36719,13.72949 8.00018,8.00018 0 0 0 -6.57568,10.75879 A 15.79722,15.79722 0 0 1 272,144 a 16,16 0 0 1 -32,0 15.79722,15.79722 0 0 1 0.99951,-5.56885 7.99943,7.99943 0 0 0 -6.57471,-10.7583 A 47.99857,47.99857 0 0 1 240,32 h 32 a 48.00281,48.00281 0 0 1 33.94336,81.94287 z"
         id="path1362" />
      <path
         d="m 262.9458,44.03076 a 7.99988,7.99988 0 0 0 -13.8916,0 l -32,56 A 7.9997,7.9997 0 0 0 224,112 h 64 a 7.9997,7.9997 0 0 0 6.9458,-11.96924 z M 237.78564,96 256,64.12451 274.21436,96 Z"
         id="path1364" />
      <path
         d="m 432,112 a 7.99977,7.99977 0 0 0 8,-8 V 56 a 7.99977,7.99977 0 0 0 -8,-8 h -48 a 7.99977,7.99977 0 0 0 -8,8 v 48 a 7.99977,7.99977 0 0 0 8,8 z M 392,64 h 32 v 32 h -32 z"
         id="path1366" />
      <path
         d="m 143.88818,67.03955 a 7.99943,7.99943 0 0 0 -7.60839,-5.52783 H 117.43262 L 111.6084,43.58691 a 7.99994,7.99994 0 0 0 -15.2168,0 L 90.56738,61.51172 H 71.72021 A 8,8 0 0 0 67.01807,75.98389 L 82.26562,87.062 76.44141,104.98681 a 8,8 0 0 0 12.31054,8.94433 L 104,102.853 l 15.24805,11.07812 a 8,8 0 0 0 12.31054,-8.94433 L 125.73438,87.062 140.98193,75.98388 a 7.99985,7.99985 0 0 0 2.90625,-8.94433 z m -32.26025,10.49463 a 7.99985,7.99985 0 0 0 -2.90625,8.94434 l 0.0117,0.03613 -0.0312,-0.02246 a 7.99974,7.99974 0 0 0 -9.4043,0 l -0.03125,0.02246 0.01172,-0.03613 A 7.99985,7.99985 0 0 0 96.3721,77.53418 l -0.03076,-0.02246 h 0.03857 a 8.00008,8.00008 0 0 0 7.6084,-5.52783 L 104,71.94775 l 0.0117,0.03614 a 8.00008,8.00008 0 0 0 7.6084,5.52783 h 0.0386 z"
         id="path1368" />
      <path
         d="M 141.24457,360 H 144 a 23.997,23.997 0 0 0 7.57654,-46.76758 55.98529,55.98529 0 0 0 -111.15308,0 A 23.997,23.997 0 0 0 48,360 h 2.75543 A 48.02719,48.02719 0 0 0 72,385.58008 v 8.65392 l -15.17871,5.05945 A 47.93931,47.93931 0 0 0 24,444.83057 V 496 h 16 v -51.16943 a 31.96047,31.96047 0 0 1 21.88086,-30.3584 l 12.45361,-4.15088 a 23.99723,23.99723 0 0 0 43.33106,0 l 12.45361,4.15088 A 31.96047,31.96047 0 0 1 152,444.83057 V 496 h 16 V 444.83057 A 47.93931,47.93931 0 0 0 135.17871,399.29346 L 120,394.234 v -8.65393 A 48.02719,48.02719 0 0 0 141.24457,360 Z M 144,344 v -16 a 8,8 0 0 1 0,16 z M 96,280 a 40.06809,40.06809 0 0 1 39.19061,31.97485 36.75488,36.75488 0 0 1 -29.84686,-16.38159 l -2.687,-4.03076 a 8.0005,8.0005 0 0 0 -13.31348,0 l -2.68652,4.03076 A 36.75645,36.75645 0 0 1 56.8094,311.97485 40.06809,40.06809 0 0 1 96,280 Z m -56,56 a 8.00917,8.00917 0 0 1 8,-8 v 16 a 8.00917,8.00917 0 0 1 -8,-8 z m 56,72 a 8.00917,8.00917 0 0 1 -8,-8 V 380.67188 A 7.99985,7.99985 0 0 0 83.20312,373.34131 32.01935,32.01935 0 0 1 64,344 v -16.61743 a 52.68038,52.68038 0 0 0 32,-17.68872 52.68281,52.68281 0 0 0 32,17.68872 V 344 A 32.01935,32.01935 0 0 1 108.79688,373.34131 7.99985,7.99985 0 0 0 104,380.67188 V 400 a 8.00917,8.00917 0 0 1 -8,8 z"
         id="path1370" />
      <circle
         cx="80"
         cy="336"
         r="8"
         id="circle1372" />
      <circle
         cx="112"
         cy="336"
         r="8"
         id="circle1374" />
      <rect
         x="56"
         y="456"
         width="16"
         height="40"
         id="rect1376" />
      <rect
         x="120"
         y="456"
         width="16"
         height="40"
         id="rect1378" />
      <circle
         cx="240"
         cy="336"
         r="8"
         id="circle1380" />
      <circle
         cx="272"
         cy="336"
         r="8"
         id="circle1382" />
      <rect
         x="216"
         y="456"
         width="16"
         height="40"
         id="rect1384" />
      <rect
         x="280"
         y="456"
         width="16"
         height="40"
         id="rect1386" />
      <path
         d="m 328,376 a 16.01833,16.01833 0 0 1 -16,-16 v -1.3761 a 23.994,23.994 0 0 0 -0.42346,-45.39148 55.98529,55.98529 0 0 0 -111.15308,0 A 23.994,23.994 0 0 0 200,358.6239 V 360 a 16.01833,16.01833 0 0 1 -16,16 8.00022,8.00022 0 0 0 -6.3999,12.80029 88.24142,88.24142 0 0 0 21.95117,20.652 A 47.92955,47.92955 0 0 0 184,444.83057 V 496 h 16 v -51.16943 a 31.96047,31.96047 0 0 1 21.88086,-30.3584 l 12.45361,-4.15088 a 23.99723,23.99723 0 0 0 43.33106,0 l 12.45361,4.15088 A 31.96047,31.96047 0 0 1 312,444.83057 V 496 h 16 V 444.83057 A 47.92926,47.92926 0 0 0 312.44879,409.45239 88.25048,88.25048 0 0 0 334.3999,388.7998 8,8 0 0 0 328,376 Z m -24,-32 v -16 a 8,8 0 0 1 0,16 z m -48,-64 a 40.06761,40.06761 0 0 1 39.19507,32 H 280 v -16 h -16 v 16 h -16 v -16 h -16 v 16 H 216.80493 A 40.06761,40.06761 0 0 1 256,280 Z m -48,48 v 16 a 8,8 0 0 1 0,-16 z m 8.82129,71.29346 q -0.943,0.31421 -1.86542,0.66528 A 72.27928,72.27928 0 0 1 198.668,388.436 32.143,32.143 0 0 0 214.81137,368.62 47.98549,47.98549 0 0 0 232,385.58008 V 394.234 Z M 256,408 a 8.00917,8.00917 0 0 1 -8,-8 V 380.67188 A 7.99985,7.99985 0 0 0 243.20312,373.34131 32.01935,32.01935 0 0 1 224,344 v -16 h 64 v 16 A 32.01935,32.01935 0 0 1 268.79688,373.34131 7.99985,7.99985 0 0 0 264,380.67188 V 400 a 8.00917,8.00917 0 0 1 -8,8 z m 41.04395,-8.04126 q -0.92277,-0.3501 -1.86524,-0.66528 L 280,394.234 v -8.65393 A 47.98549,47.98549 0 0 0 297.18866,368.62 32.143,32.143 0 0 0 313.332,388.436 72.30259,72.30259 0 0 1 297.044,399.95874 Z"
         id="path1388" />
      <path
         d="M 461.24457,360 H 464 a 23.99794,23.99794 0 0 0 8,-46.6239 V 288 A 23.98456,23.98456 0 0 0 431.99982,270.13074 23.90055,23.90055 0 0 0 416,264 h -32 a 24.0275,24.0275 0 0 0 -24,24 v 25.3761 A 23.99794,23.99794 0 0 0 368,360 h 2.75543 A 48.02719,48.02719 0 0 0 392,385.58008 v 8.65392 l -15.17871,5.05945 A 47.93931,47.93931 0 0 0 344,444.83057 V 496 h 16 v -51.16943 a 31.96047,31.96047 0 0 1 21.88086,-30.3584 l 12.45361,-4.15088 a 23.99723,23.99723 0 0 0 43.33106,0 l 12.45361,4.15088 A 31.96047,31.96047 0 0 1 472,444.83057 V 496 h 16 V 444.83057 A 47.93931,47.93931 0 0 0 455.17871,399.29346 L 440,394.234 v -8.65393 A 48.02719,48.02719 0 0 0 461.24457,360 Z M 464,344 v -16 a 8,8 0 0 1 0,16 z m -16,-64 a 8.00917,8.00917 0 0 1 8,8 v 22.62891 A 24.04116,24.04116 0 0 1 440,288 a 8.00917,8.00917 0 0 1 8,-8 z m -72,8 a 8.00917,8.00917 0 0 1 8,-8 h 32 a 8.00917,8.00917 0 0 1 8,8 24.0275,24.0275 0 0 1 -24,24 h -24 z m -16,48 a 8.00917,8.00917 0 0 1 8,-8 v 16 a 8.00917,8.00917 0 0 1 -8,-8 z m 56,72 a 8.00917,8.00917 0 0 1 -8,-8 V 380.67188 A 7.99985,7.99985 0 0 0 403.20312,373.34131 32.01935,32.01935 0 0 1 384,344 v -16 h 16 a 39.96332,39.96332 0 0 0 32,-16.02783 40.2317,40.2317 0 0 0 16,12.678 V 344 A 32.01935,32.01935 0 0 1 428.79688,373.34131 7.99985,7.99985 0 0 0 424,380.67188 V 400 a 8.00917,8.00917 0 0 1 -8,8 z"
         id="path1390" />
      <circle
         cx="400"
         cy="336"
         r="8"
         id="circle1392" />
      <circle
         cx="432"
         cy="336"
         r="8"
         id="circle1394" />
      <rect
         x="376"
         y="456"
         width="16"
         height="40"
         id="rect1396" />
      <rect
         x="440"
         y="456"
         width="16"
         height="40"
         id="rect1398" />
    </g>
  </g>
</svg>
