<?xml version="1.0" encoding="UTF-8" standalone="no"?>
<svg
   xmlns:dc="http://purl.org/dc/elements/1.1/"
   xmlns:cc="http://creativecommons.org/ns#"
   xmlns:rdf="http://www.w3.org/1999/02/22-rdf-syntax-ns#"
   xmlns:svg="http://www.w3.org/2000/svg"
   xmlns="http://www.w3.org/2000/svg"
   xmlns:sodipodi="http://sodipodi.sourceforge.net/DTD/sodipodi-0.dtd"
   xmlns:inkscape="http://www.inkscape.org/namespaces/inkscape"
   version="1.1"
   id="Capa_1"
   x="0px"
   y="0px"
   viewBox="0 0 512 512"
   style="enable-background:new 0 0 512 512;"
   xml:space="preserve"
   sodipodi:docname="call.svg"
   inkscape:version="1.0.2-2 (e86c870879, 2021-01-15)"><metadata
   id="metadata94"><rdf:RDF><cc:Work
       rdf:about=""><dc:format>image/svg+xml</dc:format><dc:type
         rdf:resource="http://purl.org/dc/dcmitype/StillImage" /><dc:title></dc:title></cc:Work></rdf:RDF></metadata><defs
   id="defs92" /><sodipodi:namedview
   pagecolor="#ffffff"
   bordercolor="#666666"
   borderopacity="1"
   objecttolerance="10"
   gridtolerance="10"
   guidetolerance="10"
   inkscape:pageopacity="0"
   inkscape:pageshadow="2"
   inkscape:window-width="1920"
   inkscape:window-height="1051"
   id="namedview90"
   showgrid="false"
   inkscape:zoom="1.6699219"
   inkscape:cx="256"
   inkscape:cy="281.35049"
   inkscape:window-x="-9"
   inkscape:window-y="-9"
   inkscape:window-maximized="1"
   inkscape:current-layer="Capa_1" />
<g
   id="g57"
   transform="matrix(0.25730994,0,0,0.24210526,159.88771,144.31812)">
	<g
   id="g55">
		<path
   d="M 407,0 H 105 C 47.103,0 0,47.103 0,105 v 302 c 0,57.897 47.103,105 105,105 h 302 c 57.897,0 105,-47.103 105,-105 V 105 C 512,47.103 464.897,0 407,0 Z m -15.686,369.889 -8.034,13.39 C 352.038,414.521 269.727,382.862 199.432,312.568 129.138,242.274 97.479,159.963 128.721,128.72 l 13.39,-8.034 c 12.131,-7.278 27.866,-3.345 35.144,8.786 l 18.958,31.596 c 6.048,10.079 4.459,22.98 -3.852,31.292 -11.716,11.716 -11.716,30.711 0,42.426 l 84.853,84.853 c 11.716,11.716 30.711,11.716 42.426,0 8.311,-8.312 21.213,-9.9 31.292,-3.853 l 31.596,18.958 c 12.13,7.279 16.064,23.014 8.786,35.145 z"
   id="path53" />
	</g>
</g>
<g
   id="g59">
</g>
<g
   id="g61">
</g>
<g
   id="g63">
</g>
<g
   id="g65">
</g>
<g
   id="g67">
</g>
<g
   id="g69">
</g>
<g
   id="g71">
</g>
<g
   id="g73">
</g>
<g
   id="g75">
</g>
<g
   id="g77">
</g>
<g
   id="g79">
</g>
<g
   id="g81">
</g>
<g
   id="g83">
</g>
<g
   id="g85">
</g>
<g
   id="g87">
</g>
<g
   id="g245"
   transform="translate(-355.76226,-178.50846)"><g
     id="g179"
     transform="translate(374.26901,201.80585)">
	<g
   id="g177">
		<path
   d="m 278.334,476.773 c 25.715,0 46.631,-20.921 46.631,-46.641 V 46.656 c 0,-25.723 -20.916,-46.648 -46.631,-46.648 H 137.042 c -25.722,0 -46.641,20.926 -46.641,46.648 v 383.481 c 0,25.715 20.919,46.646 46.641,46.646 H 278.334 Z M 102.968,430.138 V 46.656 c 0,-18.793 15.288,-34.078 34.073,-34.078 h 141.292 c 18.778,0 34.058,15.285 34.058,34.078 v 383.481 c 0,18.788 -15.279,34.073 -34.058,34.073 H 137.042 c -18.786,0.001 -34.074,-15.284 -34.074,-34.072 z"
   id="path157" />
		<path
   d="M 305.1,409.104 V 65.16 c 0,-1.787 -1.447,-3.232 -3.234,-3.232 H 110.994 c -1.785,0 -3.229,1.445 -3.229,3.232 v 343.949 c 0,1.787 1.452,3.229 3.229,3.229 h 190.871 c 1.787,10e-4 3.235,-1.442 3.235,-3.234 z m -6.464,-3.234 H 114.227 V 68.382 h 184.409 z"
   id="path159" />
		<path
   d="m 189.18,45.047 h 34.058 c 1.795,0 3.232,-1.447 3.232,-3.232 0,-1.785 -1.447,-3.229 -3.232,-3.229 H 189.18 c -1.785,0 -3.229,1.444 -3.229,3.229 0,1.785 1.451,3.232 3.229,3.232 z"
   id="path161" />
		<circle
   cx="207.68401"
   cy="24.473"
   r="3.4679999"
   id="circle163" />
		<circle
   cx="176.88901"
   cy="41.813999"
   r="3.4679999"
   id="circle165" />
		<path
   d="m 207.684,416.63 c -11.709,0 -21.243,9.536 -21.243,21.262 0,11.715 9.534,21.251 21.243,21.251 11.723,0 21.259,-9.536 21.259,-21.251 0,-11.726 -9.537,-21.262 -21.259,-21.262 z m 0,36.419 c -8.358,0 -15.152,-6.799 -15.152,-15.157 0,-8.368 6.794,-15.178 15.152,-15.178 8.366,0 15.168,6.81 15.168,15.178 0,8.358 -6.81,15.157 -15.168,15.157 z"
   id="path167" />
	</g>
</g><g
     id="g181">
</g><g
     id="g183">
</g><g
     id="g185">
</g><g
     id="g187">
</g><g
     id="g189">
</g><g
     id="g191">
</g><g
     id="g193">
</g><g
     id="g195">
</g><g
     id="g197">
</g><g
     id="g199">
</g><g
     id="g201">
</g><g
     id="g203">
</g><g
     id="g205">
</g><g
     id="g207">
</g><g
     id="g209">
</g></g></svg>
