<?xml version="1.0" encoding="UTF-8" standalone="no"?>
<svg
   xmlns:dc="http://purl.org/dc/elements/1.1/"
   xmlns:cc="http://creativecommons.org/ns#"
   xmlns:rdf="http://www.w3.org/1999/02/22-rdf-syntax-ns#"
   xmlns:svg="http://www.w3.org/2000/svg"
   xmlns="http://www.w3.org/2000/svg"
   xmlns:sodipodi="http://sodipodi.sourceforge.net/DTD/sodipodi-0.dtd"
   xmlns:inkscape="http://www.inkscape.org/namespaces/inkscape"
   width="210mm"
   height="297mm"
   viewBox="0 0 210 297"
   version="1.1"
   id="svg8"
   inkscape:version="1.0.2-2 (e86c870879, 2021-01-15)"
   sodipodi:docname="cardimg3.svg">
  <defs
     id="defs2" />
  <sodipodi:namedview
     id="base"
     pagecolor="#ffffff"
     bordercolor="#666666"
     borderopacity="1.0"
     inkscape:pageopacity="0.0"
     inkscape:pageshadow="2"
     inkscape:zoom="1.2446657"
     inkscape:cx="476.67155"
     inkscape:cy="155.9306"
     inkscape:document-units="mm"
     inkscape:current-layer="layer1"
     inkscape:document-rotation="0"
     showgrid="false"
     inkscape:window-width="1920"
     inkscape:window-height="1001"
     inkscape:window-x="-9"
     inkscape:window-y="-9"
     inkscape:window-maximized="1" />
  <metadata
     id="metadata5">
    <rdf:RDF>
      <cc:Work
         rdf:about="">
        <dc:format>image/svg+xml</dc:format>
        <dc:type
           rdf:resource="http://purl.org/dc/dcmitype/StillImage" />
        <dc:title></dc:title>
      </cc:Work>
    </rdf:RDF>
  </metadata>
  <g
     inkscape:label="Слой 1"
     inkscape:groupmode="layer"
     id="layer1">
    <g
       id="g68"
       transform="matrix(0.9828987,0,0,0.75040568,52.825635,15.633617)">
      <g
         id="g12">
	<path
   d="m 86.25,105.5 h -67 c -2.206,0 -4,-1.795 -4,-4 V 4 c 0,-2.205 1.794,-4 4,-4 h 67 c 2.206,0 4,1.795 4,4 v 97.5 c 0,2.205 -1.794,4 -4,4 z M 19.25,1 c -1.654,0 -3,1.346 -3,3 v 97.5 c 0,1.654 1.346,3 3,3 h 67 c 1.654,0 3,-1.346 3,-3 V 4 c 0,-1.654 -1.346,-3 -3,-3 z m 33.5,101.916 c -1.746,0 -3.167,-1.42 -3.167,-3.166 0,-1.746 1.42,-3.166 3.167,-3.166 1.747,0 3.167,1.42 3.167,3.166 0,1.746 -1.421,3.166 -3.167,3.166 z m 0,-5.332 c -1.195,0 -2.167,0.971 -2.167,2.166 0,1.195 0.972,2.166 2.167,2.166 1.195,0 2.167,-0.971 2.167,-2.166 0,-1.195 -0.972,-2.166 -2.167,-2.166 z m 33,-2.834 H 19.601 v -85 H 85.75 Z m -65.149,-1 H 84.75 v -83 H 20.601 Z M 54.833,6.584 h -4.167 c -0.551,0 -1,-0.449 -1,-1 0,-0.553 0.449,-1 1,-1 h 4.167 c 0.551,0 1,0.447 1,1 0,0.551 -0.448,1 -1,1 z"
   id="path10" />

</g>
      <g
         id="g14">
</g>
      <g
         id="g16">
</g>
      <g
         id="g18">
</g>
      <g
         id="g20">
</g>
      <g
         id="g22">
</g>
      <g
         id="g24">
</g>
      <g
         id="g26">
</g>
      <g
         id="g28">
</g>
      <g
         id="g30">
</g>
      <g
         id="g32">
</g>
      <g
         id="g34">
</g>
      <g
         id="g36">
</g>
      <g
         id="g38">
</g>
      <g
         id="g40">
</g>
      <g
         id="g42">
</g>
    </g>
    <g
       id="g294"
       transform="matrix(0.10212516,0,0,0.10429388,78.476011,26.862007)">
      <path
         d="m 233.086,149.308 c -4.143,0 -7.5,3.358 -7.5,7.5 v 10.094 c 0,4.142 3.357,7.5 7.5,7.5 4.143,0 7.5,-3.358 7.5,-7.5 v -10.094 c 0,-4.143 -3.357,-7.5 -7.5,-7.5 z"
         id="path260" />
      <path
         d="m 256.078,174.401 c 4.143,0 7.5,-3.358 7.5,-7.5 v -10.094 c 0,-4.142 -3.357,-7.5 -7.5,-7.5 -4.143,0 -7.5,3.358 -7.5,7.5 v 10.094 c 0,4.142 3.357,7.5 7.5,7.5 z"
         id="path262" />
      <path
         d="m 279.069,174.401 c 4.143,0 7.5,-3.358 7.5,-7.5 v -10.094 c 0,-4.142 -3.357,-7.5 -7.5,-7.5 -4.143,0 -7.5,3.358 -7.5,7.5 v 10.094 c 0,4.142 3.357,7.5 7.5,7.5 z"
         id="path264" />
      <path
         d="m 185.213,169.354 h 17.119 c 4.143,0 7.5,-3.358 7.5,-7.5 0,-4.142 -3.357,-7.5 -7.5,-7.5 h -17.119 c -4.143,0 -7.5,3.358 -7.5,7.5 0,4.142 3.358,7.5 7.5,7.5 z"
         id="path266" />
      <path
         d="m 309.823,169.354 h 17.119 c 4.143,0 7.5,-3.358 7.5,-7.5 0,-4.142 -3.357,-7.5 -7.5,-7.5 h -17.119 c -4.143,0 -7.5,3.358 -7.5,7.5 0,4.142 3.357,7.5 7.5,7.5 z"
         id="path268" />
      <path
         d="m 284.24,216.88 h -10.05 c -4.143,0 -7.5,3.358 -7.5,7.5 0,3.077 1.855,5.719 4.507,6.875 -0.952,1.685 -2.758,2.827 -4.828,2.827 -3.057,0 -5.544,-2.487 -5.544,-5.544 v -16.176 c 0,-3.058 2.487,-5.545 5.544,-5.545 1.604,0 3.076,0.661 4.145,1.86 2.753,3.093 7.494,3.37 10.589,0.615 3.094,-2.754 3.369,-7.495 0.614,-10.588 -3.896,-4.376 -9.49,-6.887 -15.348,-6.887 -11.328,0 -20.544,9.216 -20.544,20.545 v 16.176 c 0,11.328 9.216,20.544 20.544,20.544 10.332,0 18.883,-7.674 20.312,-17.616 2.942,-1.013 5.06,-3.799 5.06,-7.086 -10e-4,-4.142 -3.359,-7.5 -7.501,-7.5 z"
         id="path270" />
      <path
         d="m 229.894,191.817 c -4.143,0 -7.5,3.358 -7.5,7.5 v 42.265 c 0,4.142 3.357,7.5 7.5,7.5 4.143,0 7.5,-3.358 7.5,-7.5 v -42.265 c 0,-4.142 -3.357,-7.5 -7.5,-7.5 z"
         id="path272" />
      <path
         d="m 206.286,191.817 c -4.143,0 -7.5,3.358 -7.5,7.5 v 13.633 h -11.089 v -13.633 c 0,-4.142 -3.357,-7.5 -7.5,-7.5 -4.143,0 -7.5,3.358 -7.5,7.5 v 42.265 c 0,4.142 3.357,7.5 7.5,7.5 4.143,0 7.5,-3.358 7.5,-7.5 V 227.95 h 11.089 v 13.632 c 0,4.142 3.357,7.5 7.5,7.5 4.143,0 7.5,-3.358 7.5,-7.5 v -42.265 c 0,-4.142 -3.358,-7.5 -7.5,-7.5 z"
         id="path274" />
      <path
         d="m 331.779,191.817 c -4.143,0 -7.5,3.358 -7.5,7.5 v 13.633 h -11.09 v -13.633 c 0,-4.142 -3.357,-7.5 -7.5,-7.5 -4.143,0 -7.5,3.358 -7.5,7.5 v 42.265 c 0,4.142 3.357,7.5 7.5,7.5 4.143,0 7.5,-3.358 7.5,-7.5 V 227.95 h 11.09 v 13.632 c 0,4.142 3.357,7.5 7.5,7.5 4.143,0 7.5,-3.358 7.5,-7.5 v -42.265 c 0,-4.142 -3.358,-7.5 -7.5,-7.5 z"
         id="path276" />
      <path
         d="m 443.232,261.318 c 0.05,-1.779 0.08,-3.56 0.08,-5.331 0,-57.573 -26.127,-109.152 -67.14,-143.525 V 19.725 c 0,-6.423 -3.14,-12.461 -8.398,-16.15 -5.258,-3.688 -12.003,-4.586 -18.044,-2.399 L 256.078,35.077 162.425,1.176 c -6.043,-2.187 -12.787,-1.289 -18.044,2.399 -5.259,3.689 -8.398,9.727 -8.398,16.15 v 23.177 c 0,4.142 3.357,7.5 7.5,7.5 4.143,0 7.5,-3.358 7.5,-7.5 V 19.725 c 0,-2.219 1.407,-3.445 2.013,-3.87 0.605,-0.424 2.24,-1.329 4.324,-0.575 l 96.205,34.825 c 1.648,0.597 3.457,0.597 5.105,0 L 354.835,15.28 c 2.086,-0.755 3.719,0.15 4.324,0.575 0.605,0.425 2.013,1.651 2.013,3.87 v 81.383 C 331.189,80.698 295.003,68.753 256.077,68.753 c -38.926,0 -75.112,11.945 -105.095,32.355 V 76.903 c 0,-4.142 -3.357,-7.5 -7.5,-7.5 -4.143,0 -7.5,3.358 -7.5,7.5 v 35.559 c -41.013,34.373 -67.141,85.953 -67.141,143.526 0,1.75 0.027,3.51 0.076,5.267 -6.754,2.427 -11.605,8.878 -11.605,16.457 v 82.459 c 0,9.649 7.851,17.5 17.5,17.5 h 38.974 c 6.85,8.004 14.273,15.354 22.196,22.001 v 92.578 c 0,6.423 3.14,12.46 8.398,16.149 3.362,2.359 7.331,3.576 11.336,3.576 2.259,0 4.529,-0.388 6.708,-1.176 l 93.652,-33.901 93.652,33.901 c 6.039,2.186 12.785,1.289 18.044,-2.4 5.259,-3.689 8.398,-9.726 8.398,-16.149 v -92.571 c 7.914,-6.646 15.333,-13.998 22.188,-22.009 h 38.803 c 9.649,0 17.5,-7.851 17.5,-17.5 v -82.459 c 0.002,-7.513 -4.767,-13.917 -11.429,-16.393 z M 256.078,83.753 c 94.971,0 172.234,77.264 172.234,172.235 0,1.403 -0.021,2.814 -0.054,4.223 h -17.783 c 0.038,-1.409 0.074,-2.82 0.074,-4.223 0,-32.984 -10.262,-64.462 -29.675,-91.032 -2.444,-3.344 -7.135,-4.075 -10.48,-1.631 -3.345,2.444 -4.074,7.136 -1.631,10.48 17.523,23.983 26.786,52.401 26.786,82.183 0,1.404 -0.032,2.814 -0.074,4.223 H 116.677 c -0.042,-1.411 -0.07,-2.823 -0.07,-4.223 0,-76.904 62.566,-139.47 139.471,-139.47 33.289,0 65.521,11.924 90.758,33.575 3.145,2.697 7.88,2.333 10.576,-0.809 2.697,-3.144 2.335,-7.878 -0.809,-10.576 -27.955,-23.982 -63.655,-37.19 -100.525,-37.19 -85.176,0 -154.471,69.295 -154.471,154.47 0,1.401 0.032,2.812 0.07,4.223 H 83.898 c -0.034,-1.409 -0.056,-2.82 -0.056,-4.223 0,-94.971 77.265,-172.235 172.236,-172.235 z m 15.258,343.789 c -4.127,0.362 -7.178,4 -6.816,8.127 0.343,3.903 3.617,6.845 7.463,6.845 0.22,0 0.441,-0.01 0.664,-0.029 32.204,-2.826 62.457,-13.708 88.525,-31.449 v 81.215 c 0,2.218 -1.407,3.445 -2.013,3.87 -0.604,0.425 -2.236,1.331 -4.324,0.575 L 258.63,461.87 c -1.648,-0.597 -3.457,-0.597 -5.105,0 l -96.205,34.825 c -2.086,0.757 -3.719,-0.15 -4.324,-0.575 -0.605,-0.424 -2.013,-1.651 -2.013,-3.87 v -81.233 c 25.468,17.324 54.944,28.137 86.263,31.266 0.254,0.025 0.506,0.038 0.755,0.038 3.807,0 7.067,-2.887 7.454,-6.755 0.412,-4.122 -2.596,-7.796 -6.717,-8.208 -39.849,-3.982 -76.462,-21.485 -104.55,-49.687 h 26.726 c 0.004,0.003 0.008,0.007 0.012,0.01 27.388,21.443 60.291,32.777 95.151,32.777 34.406,0 68.125,-11.637 95.151,-32.788 h 26.738 c -28.595,28.733 -65.921,46.3 -106.63,49.872 z M 187.829,377.67 h 136.51 c -20.699,11.687 -43.927,17.788 -68.261,17.788 -24.299,0 -47.539,-6.103 -68.249,-17.788 z m 251.834,-17.5 c 0,1.378 -1.121,2.5 -2.5,2.5 H 74.813 c -1.379,0 -2.5,-1.122 -2.5,-2.5 v -82.459 c 0,-1.378 1.121,-2.5 2.5,-2.5 h 362.35 c 1.379,0 2.5,1.122 2.5,2.5 z"
         id="path278" />
      <path
         d="m 144.472,326.975 v -16.176 c 0,-11.329 -9.217,-20.545 -20.545,-20.545 -11.328,0 -20.545,9.216 -20.545,20.545 v 16.176 c 0,11.328 9.217,20.544 20.545,20.544 2.933,0 5.719,-0.628 8.246,-1.741 1.387,1.158 3.093,1.741 4.799,1.741 1.919,0 3.839,-0.732 5.304,-2.197 2.767,-2.767 2.916,-7.156 0.456,-10.102 1.112,-2.526 1.74,-5.312 1.74,-8.245 z m -26.09,0 v -16.176 c 0,-3.058 2.487,-5.545 5.545,-5.545 3.058,0 5.545,2.487 5.545,5.545 v 12.578 c -2.49,-0.647 -5.245,-0.003 -7.196,1.947 -1.553,1.553 -2.274,3.616 -2.18,5.65 -1.054,-1.01 -1.714,-2.428 -1.714,-3.999 z"
         id="path280" />
      <path
         d="m 184.878,290.254 c -4.143,0 -7.5,3.358 -7.5,7.5 v 29.221 c 0,3.057 -2.487,5.544 -5.545,5.544 -3.057,0 -5.544,-2.487 -5.544,-5.544 v -29.221 c 0,-4.142 -3.357,-7.5 -7.5,-7.5 -4.143,0 -7.5,3.358 -7.5,7.5 v 29.221 c 0,11.328 9.216,20.544 20.544,20.544 11.328,0 20.545,-9.216 20.545,-20.544 v -29.221 c 0,-4.142 -3.357,-7.5 -7.5,-7.5 z"
         id="path282" />
      <path
         d="m 305.661,290.254 c -4.143,0 -7.5,3.358 -7.5,7.5 v 42.265 c 0,4.142 3.357,7.5 7.5,7.5 4.143,0 7.5,-3.358 7.5,-7.5 v -42.265 c 0,-4.142 -3.358,-7.5 -7.5,-7.5 z"
         id="path284" />
      <path
         d="m 221.532,290.469 c -11.256,0 -20.413,9.157 -20.413,20.413 v 28.924 c 0,4.142 3.357,7.5 7.5,7.5 4.143,0 7.5,-3.358 7.5,-7.5 v -8.068 h 10.825 v 8.068 c 0,4.142 3.357,7.5 7.5,7.5 4.143,0 7.5,-3.358 7.5,-7.5 v -28.924 c 0,-11.256 -9.157,-20.413 -20.412,-20.413 z m -5.413,26.268 v -5.856 c 0,-2.984 2.429,-5.413 5.413,-5.413 2.984,0 5.412,2.428 5.412,5.413 v 5.856 z"
         id="path286" />
      <path
         d="m 283.441,332.519 h -18.108 v -34.551 c 0,-4.142 -3.357,-7.5 -7.5,-7.5 -4.143,0 -7.5,3.358 -7.5,7.5 v 42.051 c 0,4.142 3.357,7.5 7.5,7.5 h 25.608 c 4.143,0 7.5,-3.358 7.5,-7.5 0,-4.142 -3.358,-7.5 -7.5,-7.5 z"
         id="path288" />
      <path
         d="m 405.581,291.853 c -3.319,-2.479 -8.018,-1.799 -10.498,1.52 l -7.036,9.418 -7.036,-9.418 c -2.48,-3.319 -7.179,-3.999 -10.498,-1.52 -3.318,2.479 -3.998,7.179 -1.52,10.497 l 11.554,15.464 v 22.312 c 0,4.142 3.357,7.5 7.5,7.5 4.143,0 7.5,-3.358 7.5,-7.5 v -22.312 l 11.554,-15.464 c 2.479,-3.318 1.799,-8.018 -1.52,-10.497 z"
         id="path290" />
      <path
         d="m 354.151,290.362 h -26.09 c -4.143,0 -7.5,3.358 -7.5,7.5 0,4.142 3.357,7.5 7.5,7.5 h 5.545 v 34.765 c 0,4.142 3.357,7.5 7.5,7.5 4.143,0 7.5,-3.358 7.5,-7.5 v -34.765 h 5.545 c 4.143,0 7.5,-3.358 7.5,-7.5 0,-4.142 -3.358,-7.5 -7.5,-7.5 z"
         id="path292" />
    </g>
  </g>
</svg>
