<?xml version="1.0" encoding="UTF-8" standalone="no"?>
<svg
   xmlns:dc="http://purl.org/dc/elements/1.1/"
   xmlns:cc="http://creativecommons.org/ns#"
   xmlns:rdf="http://www.w3.org/1999/02/22-rdf-syntax-ns#"
   xmlns:svg="http://www.w3.org/2000/svg"
   xmlns="http://www.w3.org/2000/svg"
   xmlns:sodipodi="http://sodipodi.sourceforge.net/DTD/sodipodi-0.dtd"
   xmlns:inkscape="http://www.inkscape.org/namespaces/inkscape"
   width="210mm"
   height="297mm"
   viewBox="0 0 210 297"
   version="1.1"
   id="svg8"
   inkscape:version="1.0.2-2 (e86c870879, 2021-01-15)"
   sodipodi:docname="cardimg1.svg">
  <defs
     id="defs2" />
  <sodipodi:namedview
     id="base"
     pagecolor="#ffffff"
     bordercolor="#666666"
     borderopacity="1.0"
     inkscape:pageopacity="0.0"
     inkscape:pageshadow="2"
     inkscape:zoom="1.2446657"
     inkscape:cx="476.67155"
     inkscape:cy="305.90394"
     inkscape:document-units="mm"
     inkscape:current-layer="layer1"
     inkscape:document-rotation="0"
     showgrid="false"
     inkscape:window-width="1920"
     inkscape:window-height="1001"
     inkscape:window-x="-9"
     inkscape:window-y="-9"
     inkscape:window-maximized="1" />
  <metadata
     id="metadata5">
    <rdf:RDF>
      <cc:Work
         rdf:about="">
        <dc:format>image/svg+xml</dc:format>
        <dc:type
           rdf:resource="http://purl.org/dc/dcmitype/StillImage" />
        <dc:title></dc:title>
      </cc:Work>
    </rdf:RDF>
  </metadata>
  <g
     inkscape:label="Слой 1"
     inkscape:groupmode="layer"
     id="layer1">
    <g
       id="g68"
       transform="matrix(0.9828987,0,0,0.75040568,52.825635,15.633617)">
      <g
         id="g12">
	<path
   d="m 86.25,105.5 h -67 c -2.206,0 -4,-1.795 -4,-4 V 4 c 0,-2.205 1.794,-4 4,-4 h 67 c 2.206,0 4,1.795 4,4 v 97.5 c 0,2.205 -1.794,4 -4,4 z M 19.25,1 c -1.654,0 -3,1.346 -3,3 v 97.5 c 0,1.654 1.346,3 3,3 h 67 c 1.654,0 3,-1.346 3,-3 V 4 c 0,-1.654 -1.346,-3 -3,-3 z m 33.5,101.916 c -1.746,0 -3.167,-1.42 -3.167,-3.166 0,-1.746 1.42,-3.166 3.167,-3.166 1.747,0 3.167,1.42 3.167,3.166 0,1.746 -1.421,3.166 -3.167,3.166 z m 0,-5.332 c -1.195,0 -2.167,0.971 -2.167,2.166 0,1.195 0.972,2.166 2.167,2.166 1.195,0 2.167,-0.971 2.167,-2.166 0,-1.195 -0.972,-2.166 -2.167,-2.166 z m 33,-2.834 H 19.601 v -85 H 85.75 Z m -65.149,-1 H 84.75 v -83 H 20.601 Z M 54.833,6.584 h -4.167 c -0.551,0 -1,-0.449 -1,-1 0,-0.553 0.449,-1 1,-1 h 4.167 c 0.551,0 1,0.447 1,1 0,0.551 -0.448,1 -1,1 z"
   id="path10" />

</g>
      <g
         id="g14">
</g>
      <g
         id="g16">
</g>
      <g
         id="g18">
</g>
      <g
         id="g20">
</g>
      <g
         id="g22">
</g>
      <g
         id="g24">
</g>
      <g
         id="g26">
</g>
      <g
         id="g28">
</g>
      <g
         id="g30">
</g>
      <g
         id="g32">
</g>
      <g
         id="g34">
</g>
      <g
         id="g36">
</g>
      <g
         id="g38">
</g>
      <g
         id="g40">
</g>
      <g
         id="g42">
</g>
    </g>
    <g
       id="g82"
       transform="matrix(0.10722526,0,0,0.10722526,77.81576,26.647738)">
      <path
         d="m 379.079,162.185 -65.042,65.042 c -16.692,-7.027 -41.235,-2.896 -57.878,9.752 -16.971,-14.41 -35.166,-17.317 -57.737,-9.292 l -65.501,-65.501 -48.031,48.031 10.606,10.606 37.425,-37.425 31.82,31.82 -85.457,85.458 -31.82,-31.82 37.424,-37.425 -10.606,-10.606 -48.032,48.031 53.033,53.033 10.606,-10.606 16.346,16.346 c -2.025,13.172 2.293,26.71 11.771,36.188 l 29.72,29.72 -15.166,15.165 c -4.664,4.663 -7.232,10.882 -7.232,17.511 0,6.629 2.568,12.848 7.232,17.512 3.396,3.396 7.54,5.598 11.907,6.605 -0.545,2.062 -0.827,4.211 -0.827,6.404 0,6.628 2.568,12.848 7.232,17.512 4.664,4.664 10.884,7.232 17.513,7.232 2.193,0 4.341,-0.282 6.403,-0.827 1.026,4.481 3.284,8.588 6.603,11.907 4.665,4.664 10.884,7.233 17.512,7.233 h 0.001 c 4.835,0 9.452,-1.367 13.406,-3.917 1.219,3.306 3.147,6.332 5.706,8.891 4.664,4.664 10.883,7.233 17.513,7.233 6.628,0 12.847,-2.568 17.511,-7.232 l 2.96,-2.956 2.956,2.956 c 4.663,4.664 10.882,7.232 17.511,7.233 h 0.001 c 6.629,0 12.848,-2.569 17.511,-7.232 2.56,-2.56 4.488,-5.587 5.707,-8.894 9.586,6.175 22.535,5.069 30.918,-3.315 3.396,-3.396 5.597,-7.541 6.604,-11.906 2.062,0.545 4.209,0.826 6.402,0.826 h 0.002 c 6.628,0 12.848,-2.568 17.511,-7.232 6.468,-6.468 8.603,-15.654 6.406,-23.917 4.367,-1.007 8.511,-3.208 11.907,-6.604 4.664,-4.664 7.232,-10.883 7.232,-17.512 0,-6.628 -2.569,-12.848 -7.232,-17.511 l -15.165,-15.165 29.72,-29.72 c 9.479,-9.478 13.797,-23.016 11.771,-36.189 l 16.346,-16.346 10.606,10.606 53.033,-53.033 z M 128.613,353.211 c -6.767,-6.767 -9.436,-16.772 -6.967,-26.111 l 1.103,-4.17 -22.253,-22.253 74.851,-74.851 19.442,19.442 4.621,-1.898 c 21.581,-8.864 35.958,-6.354 51.277,8.961 l 66.807,67.37 c -10.316,5.532 -24.694,4.888 -35.766,-2.313 l -55.538,-36.125 -4.077,2.614 c -15.811,10.135 -49.964,15.2 -65.414,-0.259 l -10.61,10.603 c 21.133,21.146 59.988,14.912 79.81,4.747 l 9.94,6.466 -77.504,77.5 z M 283.372,494.16 c -1.83,1.831 -4.283,2.839 -6.905,2.839 -2.623,0 -5.074,-1.008 -6.905,-2.839 l -2.956,-2.956 13.81,-13.81 3.009,3.008 c 3.755,3.811 3.738,9.968 -0.053,13.758 z m 36.626,-12.209 c -3.807,3.807 -10.002,3.808 -13.811,0 l -15.165,-15.165 13.81,-13.81 15.267,15.267 c 3.706,3.817 3.672,9.935 -0.101,13.708 z m 30.519,-18.312 c -1.831,1.831 -4.283,2.838 -6.905,2.838 h -0.001 c -2.623,0 -5.074,-1.008 -6.904,-2.838 l -5.939,-5.939 c -0.054,-0.055 -0.109,-0.111 -0.164,-0.166 l -10e-4,0.001 -15.165,-15.165 13.81,-13.81 21.269,21.269 c 3.807,3.807 3.807,10.003 0,13.81 z m 18.313,-44.331 c 1.831,1.831 2.839,4.283 2.839,6.905 0,2.622 -1.008,5.075 -2.839,6.905 -3.807,3.808 -10.003,3.807 -13.811,0 l -15.165,-15.165 13.811,-13.811 z m 20.42,-96.379 1.103,4.17 c 2.47,9.339 -0.2,19.344 -6.967,26.111 l -140.95,140.95 c -1.831,1.83 -4.282,2.838 -6.905,2.838 -2.622,0 -5.075,-1.008 -6.906,-2.839 -1.831,-1.831 -2.839,-4.283 -2.839,-6.905 0,-2.603 0.994,-5.039 2.8,-6.866 l 78.473,-78.472 -10.606,-10.606 -90.642,90.641 c -1.831,1.831 -4.283,2.839 -6.905,2.839 -2.622,0 -5.074,-1.009 -6.906,-2.84 -3.774,-3.774 -3.807,-9.895 -0.098,-13.71 l 90.741,-90.741 -10.606,-10.606 -90.642,90.642 v -0.001 c -0.055,0.055 -0.109,0.109 -0.163,0.165 l -5.939,5.939 c -1.83,1.83 -4.282,2.838 -6.905,2.838 -2.623,0 -5.075,-1.008 -6.906,-2.838 -1.831,-1.831 -2.839,-4.283 -2.839,-6.905 0,-2.622 1.008,-5.074 2.839,-6.905 l 96.745,-96.746 -10.606,-10.606 -90.641,90.642 c -3.808,3.808 -10.003,3.807 -13.811,0 -1.831,-1.831 -2.838,-4.283 -2.838,-6.905 0,-2.623 1.008,-5.074 2.838,-6.905 l 105.523,-105.517 24.857,16.169 c 19.515,12.692 45.578,10.915 60.626,-4.134 l 5.281,-5.281 -72.386,-72.996 c 14.441,-9.98 34.608,-11.244 44.226,-4.868 l 5.111,3.388 20.246,-20.246 74.851,74.851 z m -41.991,-107.711 31.82,-31.82 85.457,85.458 -31.82,31.82 z"
         id="path70" />
      <path
         d="m 287.819,36.872 -42.426,42.426 -21.213,-21.214 -31.819,31.82 53.032,53.032 74.246,-74.246 z m -74.246,53.032 10.606,-10.607 21.213,21.213 42.426,-42.426 10.607,10.606 -53.033,53.033 z"
         id="path72" />
      <path
         d="m 425.238,261.334 h 15 v 15 h -15 z"
         transform="matrix(0.708,-0.706,0.706,0.708,-63.465,384.229)"
         id="path74" />
      <path
         d="m 71.761,261.335 h 15 v 15 h -15 z"
         transform="matrix(0.706,-0.708,0.708,0.706,-167.015,135.035)"
         id="path76" />
      <path
         d="m 248.5,164.808 h 15 v 15 h -15 z"
         id="path78" />
      <path
         d="m 162.345,142.309 v 37.5 H 233.5 v -15 H 177.346 V 15 H 334.654 V 164.808 H 278.5 v 15 h 71.153 v -37.5 H 467.805 L 429.601,78.654 467.806,15 H 349.653 V 0 H 162.345 V 15 H 44.193 L 82.397,78.655 44.193,142.309 Z M 441.309,30 412.108,78.655 441.309,127.309 H 349.654 V 30 Z M 70.69,30 h 91.655 v 97.309 H 70.69 L 99.891,78.655 Z"
         id="path80" />
    </g>
  </g>
</svg>
