<?xml version="1.0" encoding="UTF-8" standalone="no"?>
<svg
   xmlns:dc="http://purl.org/dc/elements/1.1/"
   xmlns:cc="http://creativecommons.org/ns#"
   xmlns:rdf="http://www.w3.org/1999/02/22-rdf-syntax-ns#"
   xmlns:svg="http://www.w3.org/2000/svg"
   xmlns="http://www.w3.org/2000/svg"
   xmlns:sodipodi="http://sodipodi.sourceforge.net/DTD/sodipodi-0.dtd"
   xmlns:inkscape="http://www.inkscape.org/namespaces/inkscape"
   width="210mm"
   height="297mm"
   viewBox="0 0 210 297"
   version="1.1"
   id="svg8"
   inkscape:version="1.0.2-2 (e86c870879, 2021-01-15)"
   sodipodi:docname="cardimg2.svg">
  <defs
     id="defs2" />
  <sodipodi:namedview
     id="base"
     pagecolor="#ffffff"
     bordercolor="#666666"
     borderopacity="1.0"
     inkscape:pageopacity="0.0"
     inkscape:pageshadow="2"
     inkscape:zoom="1.2446657"
     inkscape:cx="476.67155"
     inkscape:cy="305.90394"
     inkscape:document-units="mm"
     inkscape:current-layer="layer1"
     inkscape:document-rotation="0"
     showgrid="false"
     inkscape:window-width="1920"
     inkscape:window-height="1001"
     inkscape:window-x="-9"
     inkscape:window-y="-9"
     inkscape:window-maximized="1" />
  <metadata
     id="metadata5">
    <rdf:RDF>
      <cc:Work
         rdf:about="">
        <dc:format>image/svg+xml</dc:format>
        <dc:type
           rdf:resource="http://purl.org/dc/dcmitype/StillImage" />
        <dc:title></dc:title>
      </cc:Work>
    </rdf:RDF>
  </metadata>
  <g
     inkscape:label="Слой 1"
     inkscape:groupmode="layer"
     id="layer1">
    <g
       id="g68"
       transform="matrix(0.9828987,0,0,0.75040568,52.825635,15.633617)">
      <g
         id="g12">
	<path
   d="m 86.25,105.5 h -67 c -2.206,0 -4,-1.795 -4,-4 V 4 c 0,-2.205 1.794,-4 4,-4 h 67 c 2.206,0 4,1.795 4,4 v 97.5 c 0,2.205 -1.794,4 -4,4 z M 19.25,1 c -1.654,0 -3,1.346 -3,3 v 97.5 c 0,1.654 1.346,3 3,3 h 67 c 1.654,0 3,-1.346 3,-3 V 4 c 0,-1.654 -1.346,-3 -3,-3 z m 33.5,101.916 c -1.746,0 -3.167,-1.42 -3.167,-3.166 0,-1.746 1.42,-3.166 3.167,-3.166 1.747,0 3.167,1.42 3.167,3.166 0,1.746 -1.421,3.166 -3.167,3.166 z m 0,-5.332 c -1.195,0 -2.167,0.971 -2.167,2.166 0,1.195 0.972,2.166 2.167,2.166 1.195,0 2.167,-0.971 2.167,-2.166 0,-1.195 -0.972,-2.166 -2.167,-2.166 z m 33,-2.834 H 19.601 v -85 H 85.75 Z m -65.149,-1 H 84.75 v -83 H 20.601 Z M 54.833,6.584 h -4.167 c -0.551,0 -1,-0.449 -1,-1 0,-0.553 0.449,-1 1,-1 h 4.167 c 0.551,0 1,0.447 1,1 0,0.551 -0.448,1 -1,1 z"
   id="path10" />

</g>
      <g
         id="g14">
</g>
      <g
         id="g16">
</g>
      <g
         id="g18">
</g>
      <g
         id="g20">
</g>
      <g
         id="g22">
</g>
      <g
         id="g24">
</g>
      <g
         id="g26">
</g>
      <g
         id="g28">
</g>
      <g
         id="g30">
</g>
      <g
         id="g32">
</g>
      <g
         id="g34">
</g>
      <g
         id="g36">
</g>
      <g
         id="g38">
</g>
      <g
         id="g40">
</g>
      <g
         id="g42">
</g>
    </g>
    <g
       id="g258"
       transform="matrix(0.10963418,0,0,0.10963418,78.694387,27.056445)">
      <g
         id="g102">
	<g
   id="g100">
		<path
   d="M 285.835,296.208 204.003,276.96 v -56.392 c 0.696,-0.544 1.416,-1.032 2.104,-1.6 27.173,-22.665 43.667,-55.632 45.512,-90.968 h 0.384 c 4.418,0 8,-3.582 8,-8 v -8 c 0,-61.856 -50.144,-112 -112,-112 -61.856,0 -112,50.144 -112,112 v 16 c 0,4.418 3.582,8 8,8 0.328,-0.031 0.654,-0.081 0.976,-0.152 3.755,32.443 19.838,62.202 44.92,83.12 0.68,0.568 1.408,1.056 2.104,1.6 V 276.96 L 10.171,296.208 C 6.555,297.059 4,300.286 4.003,304 v 168 c 0,4.418 3.582,8 8,8 h 272 c 4.418,0 8,-3.582 8,-8 V 304 c 0.002,-3.714 -2.553,-6.941 -6.168,-7.792 z M 92.003,464 h -72 V 310.336 l 72,-16.936 z m -40,-352 c 0,-53.019 42.981,-96 96,-96 53.019,0 96,42.981 96,96 h -24 c -22.08,-0.026 -39.974,-17.92 -40,-40 0.004,-4.418 -3.575,-8.003 -7.993,-8.007 -0.586,0 -1.17,0.063 -1.743,0.191 l -4.8,1.072 c -40.374,8.922 -78.809,25.046 -113.464,47.6 z m 136,352 h -80 V 317.768 l 28.352,-9.448 -20.072,73.6 c -0.518,1.898 -0.319,3.92 0.56,5.68 l 24,48 c 1.975,3.952 6.78,5.555 10.733,3.579 1.549,-0.774 2.805,-2.03 3.579,-3.579 l 24,-48 c 0.879,-1.76 1.078,-3.782 0.56,-5.68 l -20.072,-73.6 28.36,9.448 z m -80,-163.104 v -15.952 l 19.144,9.6 z m 40,25.504 15.48,56.76 -15.48,30.952 -15.48,-30.952 z m 40,-25.504 -19.144,-6.4 19.144,-9.552 z m 0,-33.848 -40,20 -40,-20 V 230.64 c 12.441,6.14 26.126,9.342 40,9.36 13.875,-0.021 27.559,-3.226 40,-9.368 z M 100.155,206.672 C 76.269,186.71 61.84,157.654 60.371,126.56 92.334,105.677 127.697,90.533 164.867,81.808 c 4.79,26.705 28.005,46.154 55.136,46.192 h 15.616 c -1.837,30.585 -16.224,59.053 -39.76,78.672 -27.717,23.107 -67.988,23.107 -95.704,0 z M 276.003,464 h -72 V 293.4 l 72,16.936 z"
   id="path98" />

	</g>

</g>
      <g
         id="g108">
	<g
   id="g106">
		<path
   d="m 212.003,128 h -48 c -4.418,0 -8,3.582 -8,8 v 8 h -16 v -8 c 0,-4.418 -3.582,-8 -8,-8 h -48 c -4.418,0 -8,3.582 -8,8 v 32 c 0,4.418 3.582,8 8,8 h 48 c 4.418,0 8,-3.582 8,-8 v -8 h 16 v 8 c 0,4.418 3.582,8 8,8 h 48 c 4.418,0 8,-3.582 8,-8 v -32 c 0,-4.418 -3.582,-8 -8,-8 z m -88,32 h -32 v -16 h 32 z m 80,0 h -32 v -16 h 32 z"
   id="path104" />

	</g>

</g>
      <g
         id="g114">
	<g
   id="g112">
		<path
   d="m 473.276,199.458 c -0.972,-1.375 -2.171,-2.574 -3.546,-3.546 v -0.024 l -16.672,-11.76 8.544,-18.528 c 3.435,-7.422 0.202,-16.223 -7.22,-19.658 -1.546,-0.715 -3.203,-1.159 -4.9,-1.31 l -20.304,-1.824 -1.832,-20.32 c -0.758,-8.147 -7.977,-14.138 -16.125,-13.38 -1.668,0.155 -3.298,0.592 -4.82,1.292 l -18.512,8.552 -11.768,-16.68 C 371.394,95.587 362.144,94 355.459,98.726 c -1.375,0.972 -2.574,2.171 -3.546,3.546 l -11.76,16.672 -18.552,-8.544 c -7.422,-3.435 -16.223,-0.202 -19.658,7.22 -0.715,1.546 -1.159,3.203 -1.31,4.9 l -1.824,20.304 -20.32,1.832 c -8.148,0.758 -14.138,7.977 -13.38,16.125 0.155,1.668 0.592,3.298 1.292,4.819 l 8.552,18.512 -16.672,11.76 c -6.685,4.727 -8.272,13.977 -3.546,20.662 0.972,1.375 2.171,2.574 3.546,3.546 l 16.672,11.76 -8.552,18.56 c -3.435,7.422 -0.202,16.223 7.22,19.658 1.546,0.715 3.203,1.159 4.9,1.31 l 20.304,1.824 1.832,20.32 c 0.441,4.791 3.179,9.071 7.344,11.48 V 400 c 0.001,4.418 3.583,7.999 8.002,7.998 2.121,0 4.154,-0.843 5.654,-2.342 l 42.344,-42.344 42.344,42.344 c 3.125,3.124 8.19,3.123 11.314,-0.002 1.499,-1.5 2.342,-3.534 2.342,-5.654 v -95.008 c 4.169,-2.413 6.907,-6.699 7.344,-11.496 l 1.824,-20.304 20.32,-1.832 c 8.149,-0.741 14.154,-7.948 13.413,-16.097 -0.153,-1.683 -0.593,-3.328 -1.301,-4.863 l -8.552,-18.512 16.68,-11.768 c 6.686,-4.727 8.274,-13.977 3.547,-20.662 z m -69.273,181.23 -34.344,-34.344 c -3.124,-3.123 -8.188,-3.123 -11.312,0 l -34.344,34.344 v -76.176 l 16.136,-7.456 11.768,16.68 c 4.727,6.685 13.977,8.272 20.662,3.546 1.375,-0.972 2.574,-2.171 3.546,-3.546 l 11.76,-16.672 16.128,7.448 z M 443.027,219.36 c -5.856,4.116 -7.922,11.837 -4.904,18.328 l 8.28,17.88 -19.608,1.768 c -7.141,0.63 -12.806,6.284 -13.448,13.424 l -1.784,19.64 -17.864,-8.264 c -6.49,-3.006 -14.201,-0.946 -18.328,4.896 l -11.368,16.104 -11.36,-16.112 c -4.118,-5.853 -11.837,-7.919 -18.328,-4.904 l -17.88,8.28 -1.768,-19.608 c -0.63,-7.141 -6.284,-12.806 -13.424,-13.448 l -19.64,-1.784 8.264,-17.864 c 3.02,-6.489 0.957,-14.209 -4.896,-18.328 L 268.867,208 284.979,196.64 c 5.856,-4.116 7.922,-11.837 4.904,-18.328 l -8.28,-17.88 19.608,-1.768 c 7.141,-0.63 12.806,-6.284 13.448,-13.424 l 1.768,-19.624 17.864,8.264 c 6.489,3.023 14.211,0.96 18.328,-4.896 l 11.384,-16.12 11.36,16.112 c 4.118,5.853 11.837,7.919 18.328,4.904 l 17.88,-8.28 1.768,19.608 c 0.63,7.141 6.284,12.806 13.424,13.448 l 19.624,1.768 -8.264,17.864 c -3.02,6.489 -0.957,14.209 4.896,18.328 L 459.139,208 Z"
   id="path110" />

	</g>

</g>
      <g
         id="g120">
	<g
   id="g118">
		<path
   d="m 364.003,136 c -39.764,0 -72,32.235 -72,72 0,39.764 32.236,72 72,72 39.765,0 72,-32.236 72,-72 -0.045,-39.746 -32.254,-71.956 -72,-72 z m 0,128 c -30.928,0 -56,-25.072 -56,-56 0,-30.928 25.072,-56 56,-56 30.928,0 56,25.072 56,56 -0.036,30.913 -25.087,55.965 -56,56 z"
   id="path116" />

	</g>

</g>
      <g
         id="g126">
	<g
   id="g124">
		<rect
   x="412.00299"
   y="56"
   width="16"
   height="16"
   id="rect122" />

	</g>

</g>
      <g
         id="g132">
	<g
   id="g130">
		<rect
   x="444.00299"
   y="56"
   width="16"
   height="16"
   id="rect128" />

	</g>

</g>
      <g
         id="g138">
	<g
   id="g136">
		<rect
   x="428.00299"
   y="40"
   width="16"
   height="16"
   id="rect134" />

	</g>

</g>
      <g
         id="g144">
	<g
   id="g142">
		<rect
   x="428.00299"
   y="72"
   width="16"
   height="16"
   id="rect140" />

	</g>

</g>
      <g
         id="g150">
	<g
   id="g148">
		<rect
   x="324.00299"
   y="16"
   width="16"
   height="16"
   id="rect146" />

	</g>

</g>
      <g
         id="g156">
	<g
   id="g154">
		<rect
   x="356.00299"
   y="16"
   width="16"
   height="16"
   id="rect152" />

	</g>

</g>
      <g
         id="g162">
	<g
   id="g160">
		<rect
   x="340.00299"
   width="16"
   height="16"
   id="rect158"
   y="0" />

	</g>

</g>
      <g
         id="g168">
	<g
   id="g166">
		<rect
   x="340.00299"
   y="32"
   width="16"
   height="16"
   id="rect164" />

	</g>

</g>
      <g
         id="g170">
</g>
      <g
         id="g172">
</g>
      <g
         id="g174">
</g>
      <g
         id="g176">
</g>
      <g
         id="g178">
</g>
      <g
         id="g180">
</g>
      <g
         id="g182">
</g>
      <g
         id="g184">
</g>
      <g
         id="g186">
</g>
      <g
         id="g188">
</g>
      <g
         id="g190">
</g>
      <g
         id="g192">
</g>
      <g
         id="g194">
</g>
      <g
         id="g196">
</g>
      <g
         id="g198">
</g>
    </g>
  </g>
</svg>
