<?xml version="1.0" encoding="UTF-8" standalone="no"?>
<svg
   xmlns:dc="http://purl.org/dc/elements/1.1/"
   xmlns:cc="http://creativecommons.org/ns#"
   xmlns:rdf="http://www.w3.org/1999/02/22-rdf-syntax-ns#"
   xmlns:svg="http://www.w3.org/2000/svg"
   xmlns="http://www.w3.org/2000/svg"
   xmlns:sodipodi="http://sodipodi.sourceforge.net/DTD/sodipodi-0.dtd"
   xmlns:inkscape="http://www.inkscape.org/namespaces/inkscape"
   width="755.90552"
   height="755.90552"
   viewBox="0 0 200 200"
   version="1.1"
   id="svg8"
   inkscape:version="1.0.2-2 (e86c870879, 2021-01-15)"
   sodipodi:docname="dastavka.svg">
  <defs
     id="defs2" />
  <sodipodi:namedview
     id="base"
     pagecolor="#ffffff"
     bordercolor="#666666"
     borderopacity="1.0"
     inkscape:pageopacity="0.0"
     inkscape:pageshadow="2"
     inkscape:zoom="0.67611765"
     inkscape:cx="475.64898"
     inkscape:cy="452.76317"
     inkscape:document-units="px"
     inkscape:current-layer="layer1"
     inkscape:document-rotation="0"
     showgrid="false"
     units="px"
     inkscape:window-width="1920"
     inkscape:window-height="1001"
     inkscape:window-x="-9"
     inkscape:window-y="-9"
     inkscape:window-maximized="1" />
  <metadata
     id="metadata5">
    <rdf:RDF>
      <cc:Work
         rdf:about="">
        <dc:format>image/svg+xml</dc:format>
        <dc:type
           rdf:resource="http://purl.org/dc/dcmitype/StillImage" />
        <dc:title></dc:title>
      </cc:Work>
    </rdf:RDF>
  </metadata>
  <g
     inkscape:label="Слой 1"
     inkscape:groupmode="layer"
     id="layer1">
    <g
       id="g187"
       transform="matrix(0.41310742,0,0,0.41310742,1.4253553,1.4253518)">
      <path
         d="m 256,360 c 0,8.83594 -7.16406,16 -16,16 -8.83594,0 -16,-7.16406 -16,-16 0,-8.83594 7.16406,-16 16,-16 8.83594,0 16,7.16406 16,16 z m 0,0"
         id="path170" />
      <path
         d="m 176,424 v 40 h -56 v 16 h 240 v -16 h -56 v -40 h -16 v 40 h -96 v -40 z m 0,0"
         id="path172" />
      <path
         d="M 456,0 H 24 C 10.75,0.015625 0.015625,10.75 0,24 v 360 c 0.015625,13.25 10.75,23.98437 24,24 h 432 c 13.25,-0.0156 23.98437,-10.75 24,-24 V 24 C 479.98437,10.75 469.25,0.015625 456,0 Z m 8,384 c -0.004,4.41797 -3.58203,7.99609 -8,8 H 24 c -4.417969,-0.004 -7.996094,-3.58203 -8,-8 v -56 h 448 z m 0,-72 H 16 V 24 c 0.0039,-4.417969 3.582031,-7.996094 8,-8 h 432 c 4.41797,0.0039 7.99609,3.582031 8,8 z m 0,0"
         id="path174" />
    </g>
    <g
       id="g2557"
       transform="matrix(0.26458333,0,0,0.26458333,29.316116,4.6626251)">
      <g
         id="g2473">
	<g
   id="g2471">
		<path
   d="m 414.498,188.525 h -32.234 l 9.712,-111.509 c 0.018,-0.202 0.021,-0.401 0.022,-0.6 0,-0.017 0.002,-0.033 0.002,-0.05 0,-0.003 0,-0.005 0,-0.008 0,-3.035 -1.831,-5.71 -4.522,-6.873 -0.023,-0.01 -0.045,-0.022 -0.068,-0.032 -0.167,-0.07 -0.34,-0.13 -0.514,-0.188 -0.065,-0.021 -0.127,-0.047 -0.192,-0.067 -0.142,-0.043 -0.288,-0.077 -0.433,-0.112 -0.102,-0.024 -0.2,-0.053 -0.303,-0.073 -0.127,-0.025 -0.259,-0.041 -0.389,-0.06 -0.122,-0.018 -0.242,-0.039 -0.365,-0.05 -0.021,-0.002 -0.04,-0.006 -0.061,-0.008 -0.132,-0.012 -0.262,-0.01 -0.393,-0.015 -0.088,-0.003 -0.174,-0.013 -0.262,-0.013 h -0.094 c -0.008,0 -0.016,0 -0.023,0 H 231.01 c -4.14,0 -7.5,3.36 -7.5,7.5 0,4.13 3.36,7.5 7.5,7.5 h 145.313 l -14.926,171.375 c -0.002,0.013 -0.002,0.026 -0.004,0.039 l -3.766,43.241 H 97.018 l 4.359,-44.998 h 49.621 c 4.143,0 7.5,-3.358 7.5,-7.5 0,-4.142 -3.357,-7.5 -7.5,-7.5 h -48.167 l 9.204,-94.995 h 78.975 c 4.143,0 7.5,-3.358 7.5,-7.5 0,-4.142 -3.357,-7.5 -7.5,-7.5 h -77.521 l 4.328,-44.662 h 83.193 c 4.13,0 7.5,-3.37 7.5,-7.5 0,-4.14 -3.37,-7.5 -7.5,-7.5 h -90 c -0.004,0 -0.007,10e-4 -0.011,10e-4 -3.523,-10e-4 -6.579,2.479 -7.318,5.917 -0.005,0.025 -0.014,0.049 -0.019,0.074 -0.038,0.187 -0.063,0.378 -0.088,0.57 -0.007,0.061 -0.02,0.119 -0.026,0.18 -0.001,0.012 -0.004,0.023 -0.005,0.035 l -5.124,52.885 H 7.5 c -4.143,0 -7.5,3.358 -7.5,7.5 0,4.142 3.357,7.5 7.5,7.5 h 89.465 l -9.204,94.995 H 61.002 c -4.143,0 -7.5,3.358 -7.5,7.5 0,4.142 3.357,7.5 7.5,7.5 h 25.306 l -5.012,51.721 c -0.001,0.008 -0.001,0.016 -0.002,0.023 l -7.749,79.979 c -0.001,0.009 -0.002,0.019 -0.003,0.027 l -0.003,0.029 c -0.01,0.104 -0.009,0.206 -0.015,0.31 -0.007,0.138 -0.021,0.273 -0.021,0.413 0,0.006 0.001,0.012 0.001,0.019 0,0.193 0.014,0.383 0.028,0.573 0.006,0.061 0.004,0.123 0.011,0.183 0.02,0.194 0.053,0.385 0.088,0.575 0.01,0.056 0.015,0.113 0.026,0.168 0.029,0.144 0.07,0.283 0.108,0.424 0.026,0.099 0.047,0.2 0.077,0.297 0.009,0.027 0.021,0.053 0.029,0.081 0.363,1.116 0.979,2.118 1.783,2.936 0.015,0.015 0.027,0.032 0.042,0.046 0.08,0.08 0.167,0.152 0.251,0.228 0.517,0.474 1.101,0.876 1.74,1.191 0.133,0.066 0.264,0.135 0.4,0.192 0.041,0.018 0.085,0.03 0.127,0.046 0.188,0.075 0.377,0.147 0.572,0.208 0.018,0.005 0.035,0.008 0.053,0.014 0.222,0.066 0.446,0.124 0.675,0.171 0.03,0.006 0.061,0.008 0.09,0.014 0.218,0.041 0.437,0.076 0.66,0.098 0.005,0 0.009,10e-4 0.014,0.002 0.246,0.024 0.49,0.036 0.732,0.036 0.003,0 0.007,-0.001 0.011,-0.001 h 33.388 c 3.687,27.953 27.652,49.603 56.597,49.603 28.943,0 52.908,-21.65 56.595,-49.603 H 347.9 c 3.688,27.953 27.652,49.603 56.596,49.603 28.943,0 52.91,-21.65 56.598,-49.603 h 33.396 c 0.005,0 0.011,0.001 0.016,0.001 0.25,0 0.496,-0.015 0.74,-0.039 0.044,-0.004 0.086,-0.013 0.13,-0.018 0.195,-0.023 0.389,-0.05 0.579,-0.088 0.082,-0.016 0.161,-0.038 0.242,-0.057 0.147,-0.034 0.295,-0.07 0.439,-0.113 0.098,-0.029 0.193,-0.063 0.289,-0.096 0.123,-0.042 0.246,-0.086 0.367,-0.135 0.104,-0.041 0.203,-0.086 0.304,-0.131 0.11,-0.051 0.22,-0.103 0.327,-0.158 0.102,-0.052 0.2,-0.106 0.298,-0.162 0.103,-0.06 0.205,-0.122 0.306,-0.186 0.094,-0.06 0.188,-0.121 0.278,-0.185 0.102,-0.071 0.199,-0.146 0.298,-0.222 0.082,-0.065 0.165,-0.129 0.245,-0.197 0.103,-0.087 0.2,-0.178 0.298,-0.271 0.068,-0.065 0.139,-0.129 0.205,-0.197 0.104,-0.106 0.203,-0.218 0.302,-0.331 0.053,-0.061 0.108,-0.12 0.159,-0.182 0.11,-0.136 0.21,-0.276 0.31,-0.417 0.034,-0.049 0.072,-0.095 0.105,-0.145 0.122,-0.183 0.237,-0.371 0.343,-0.565 0.008,-0.012 0.016,-0.023 0.021,-0.036 0.113,-0.208 0.217,-0.421 0.31,-0.641 0.026,-0.063 0.046,-0.128 0.071,-0.191 0.061,-0.155 0.121,-0.31 0.172,-0.471 0.033,-0.104 0.057,-0.211 0.086,-0.316 0.033,-0.125 0.068,-0.249 0.096,-0.376 0.025,-0.113 0.041,-0.229 0.06,-0.344 0.017,-0.101 0.039,-0.2 0.052,-0.303 0.318,-2.548 6.191,-49.667 8.814,-80.135 0.003,-0.029 0.004,-0.059 0.007,-0.088 0.755,-8.783 1.239,-16.179 1.239,-20.707 0,-53.761 -43.738,-97.5 -97.5,-97.5 z m -33.541,15.002 h 30.683 l -3.919,44.996 H 377.038 Z M 171.008,428.129 c -23.217,0 -42.105,-18.888 -42.105,-42.104 0,-23.216 18.889,-42.104 42.105,-42.104 23.216,0 42.104,18.888 42.104,42.104 0,23.216 -18.888,42.104 -42.104,42.104 z m 233.488,0 c -23.216,0 -42.103,-18.888 -42.103,-42.104 0,-23.216 18.888,-42.104 42.103,-42.104 23.217,0 42.105,18.888 42.105,42.104 0,23.216 -18.888,42.104 -42.105,42.104 z m 83.367,-49.607 h -26.767 c -3.686,-27.955 -27.652,-49.606 -56.598,-49.606 -28.944,0 -52.91,21.652 -56.596,49.606 H 227.604 c -3.686,-27.955 -27.651,-49.606 -56.596,-49.606 -28.945,0 -52.912,21.652 -56.598,49.606 H 89.266 l 6.299,-65.004 H 364.5 v 0.004 c 0.004,0 0.007,0 0.011,0 0.251,0 0.5,-0.014 0.746,-0.039 0.046,-0.004 0.091,-0.014 0.137,-0.02 0.196,-0.023 0.391,-0.051 0.583,-0.089 0.083,-0.017 0.164,-0.04 0.246,-0.06 0.15,-0.036 0.3,-0.071 0.446,-0.115 0.1,-0.03 0.195,-0.066 0.292,-0.1 0.126,-0.044 0.252,-0.087 0.374,-0.137 0.105,-0.043 0.206,-0.091 0.308,-0.139 0.111,-0.051 0.222,-0.102 0.329,-0.158 0.102,-0.054 0.202,-0.112 0.303,-0.17 0.103,-0.06 0.205,-0.121 0.305,-0.185 0.097,-0.063 0.189,-0.129 0.282,-0.195 0.099,-0.07 0.195,-0.142 0.291,-0.217 0.086,-0.069 0.171,-0.14 0.255,-0.213 0.095,-0.082 0.188,-0.166 0.278,-0.253 0.076,-0.073 0.152,-0.148 0.226,-0.225 0.09,-0.094 0.177,-0.191 0.263,-0.29 0.067,-0.078 0.133,-0.156 0.197,-0.236 0.083,-0.105 0.162,-0.213 0.24,-0.322 0.059,-0.082 0.116,-0.164 0.172,-0.248 0.073,-0.113 0.143,-0.229 0.21,-0.347 0.051,-0.088 0.103,-0.176 0.149,-0.266 0.063,-0.118 0.117,-0.238 0.174,-0.359 0.044,-0.097 0.089,-0.192 0.129,-0.292 0.049,-0.118 0.09,-0.239 0.133,-0.36 0.037,-0.107 0.076,-0.214 0.109,-0.324 0.033,-0.116 0.06,-0.235 0.09,-0.353 0.029,-0.119 0.061,-0.237 0.084,-0.358 0.023,-0.118 0.037,-0.238 0.055,-0.358 0.018,-0.124 0.039,-0.246 0.051,-0.372 0.002,-0.018 0.006,-0.035 0.007,-0.053 l 3.759,-43.15 h 38.762 c 22.979,0 33.343,11.906 44.314,24.512 9.053,10.401 19.16,22.006 36.34,24.837 -2.182,23.07 -5.709,52.686 -7.287,65.654 z m 8.569,-80.684 c -11.145,-2.272 -18.002,-10.107 -26.309,-19.651 -10.389,-11.935 -23.072,-26.5 -47.385,-29.214 l 3.88,-44.548 c 39.764,5.881 70.38,40.229 70.38,81.602 0,2.811 -0.21,6.895 -0.566,11.811 z"
   id="path2469" />

	</g>

</g>
      <g
         id="g2479">
	<g
   id="g2477">
		<path
   d="m 171.008,358.524 c -15.163,0 -27.5,12.336 -27.5,27.5 0,15.164 12.337,27.5 27.5,27.5 15.163,0 27.5,-12.336 27.5,-27.5 0,-15.163 -12.337,-27.5 -27.5,-27.5 z m 0,40 c -6.893,0 -12.5,-5.607 -12.5,-12.5 0,-6.893 5.607,-12.5 12.5,-12.5 6.893,0 12.5,5.607 12.5,12.5 0,6.893 -5.608,12.5 -12.5,12.5 z"
   id="path2475" />

	</g>

</g>
      <g
         id="g2485">
	<g
   id="g2483">
		<path
   d="m 404.496,358.524 c -15.163,0 -27.5,12.336 -27.5,27.5 0,15.164 12.337,27.5 27.5,27.5 15.163,0 27.5,-12.336 27.5,-27.5 0,-15.163 -12.337,-27.5 -27.5,-27.5 z m 0,40 c -6.893,0 -12.5,-5.607 -12.5,-12.5 0,-6.893 5.607,-12.5 12.5,-12.5 6.893,0 12.5,5.607 12.5,12.5 0,6.893 -5.607,12.5 -12.5,12.5 z"
   id="path2481" />

	</g>

</g>
      <g
         id="g2491">
	<g
   id="g2489">
		<path
   d="M 71,188.527 H 34.334 c -4.143,0 -7.5,3.358 -7.5,7.5 0,4.142 3.357,7.5 7.5,7.5 H 71 c 4.143,0 7.5,-3.358 7.5,-7.5 0,-4.142 -3.357,-7.5 -7.5,-7.5 z"
   id="path2487" />

	</g>

</g>
      <g
         id="g2493">
</g>
      <g
         id="g2495">
</g>
      <g
         id="g2497">
</g>
      <g
         id="g2499">
</g>
      <g
         id="g2501">
</g>
      <g
         id="g2503">
</g>
      <g
         id="g2505">
</g>
      <g
         id="g2507">
</g>
      <g
         id="g2509">
</g>
      <g
         id="g2511">
</g>
      <g
         id="g2513">
</g>
      <g
         id="g2515">
</g>
      <g
         id="g2517">
</g>
      <g
         id="g2519">
</g>
      <g
         id="g2521">
</g>
    </g>
  </g>
</svg>
