<svg version="1.1" id="Capa_1" xmlns="http://www.w3.org/2000/svg" xmlns:xlink="http://www.w3.org/1999/xlink" x="0px"
    y="0px" width="100.783px" height="100.783px" viewBox="0 0 476.783 476.783"
    style="enable-background:new 0 0 476.783 476.783;" xml:space="preserve">
    <g>
      <g>
        <path d="M278.334,476.773c25.715,0,46.631-20.921,46.631-46.641V46.656c0-25.723-20.916-46.648-46.631-46.648H137.042
			c-25.722,0-46.641,20.926-46.641,46.648v383.481c0,25.715,20.919,46.646,46.641,46.646h141.292V476.773z M102.968,430.138V46.656
			c0-18.793,15.288-34.078,34.073-34.078h141.292c18.778,0,34.058,15.285,34.058,34.078v383.481
			c0,18.788-15.279,34.073-34.058,34.073H137.042C118.256,464.211,102.968,448.926,102.968,430.138z" />
        <path d="M305.1,409.104V65.16c0-1.787-1.447-3.232-3.234-3.232H110.994c-1.785,0-3.229,1.445-3.229,3.232v343.949
			c0,1.787,1.452,3.229,3.229,3.229h190.871C303.652,412.339,305.1,410.896,305.1,409.104z M298.636,405.87H114.227V68.382h184.409
			V405.87z" />

      
        <path d="M189.18,45.047h34.058c1.795,0,3.232-1.447,3.232-3.232s-1.447-3.229-3.232-3.229H189.18
			c-1.785,0-3.229,1.444-3.229,3.229S187.402,45.047,189.18,45.047z" />
        <circle cx="207.684" cy="24.473" r="3.468" />
        <circle cx="176.889" cy="41.814" r="3.468" />
        <path d="M207.684,416.63c-11.709,0-21.243,9.536-21.243,21.262c0,11.715,9.534,21.251,21.243,21.251
			c11.723,0,21.259-9.536,21.259-21.251C228.943,426.166,219.406,416.63,207.684,416.63z M207.684,453.049
			c-8.358,0-15.152-6.799-15.152-15.157c0-8.368,6.794-15.178,15.152-15.178c8.366,0,15.168,6.81,15.168,15.178
			C222.852,446.25,216.042,453.049,207.684,453.049z" />

      <path d="M407,0H105C47.103,0,0,47.103,0,105v302c0,57.897,47.103,105,105,105h302c57.897,0,105-47.103,105-105V105
			C512,47.103,464.897,0,407,0z M391.314,369.889l-8.034,13.39c-31.242,31.242-113.553-0.417-183.848-70.711
			c-70.294-70.294-101.953-152.605-70.711-183.848l13.39-8.034c12.131-7.278,27.866-3.345,35.144,8.786l18.958,31.596
			c6.048,10.079,4.459,22.98-3.852,31.292c-11.716,11.716-11.716,30.711,0,42.426l84.853,84.853
			c11.716,11.716,30.711,11.716,42.426,0c8.311-8.312,21.213-9.9,31.292-3.853l31.596,18.958
			C394.658,342.023,398.592,357.758,391.314,369.889z"/>
      </g>
    </g>
    <g>
    </g>
    <g>
    </g>
    <g>
    </g>
    <g>
    </g>
    <g>
    </g>
    <g>
    </g>
    <g>
    </g>
    <g>
    </g>
    <g>
    </g>
    <g>
    </g>
    <g>
    </g>
    <g>
    </g>
    <g>
    </g>
    <g>
    </g>
    <g>
    </g>
  </svg>

