<?xml version="1.0" encoding="iso-8859-1"?>
<!-- Generator: Adobe Illustrator 16.0.0, SVG Export Plug-In . SVG Version: 6.00 Build 0)  -->
<!DOCTYPE svg PUBLIC "-//W3C//DTD SVG 1.1//EN" "http://www.w3.org/Graphics/SVG/1.1/DTD/svg11.dtd">
<svg version="1.1" id="Capa_1" xmlns="http://www.w3.org/2000/svg" xmlns:xlink="http://www.w3.org/1999/xlink" x="0px" y="0px"
	 width="316.373px" height="316.373px" viewBox="0 0 316.373 316.373" style="enable-background:new 0 0 316.373 316.373;"
	 xml:space="preserve">
<g>
	<path d="M98.977,316.373h118.418c14.639,0,26.512-11.873,26.512-26.512V26.512C243.907,11.874,232.034,0,217.396,0H98.977
		C84.336,0,72.465,11.874,72.465,26.512v263.354C72.465,304.505,84.336,316.373,98.977,316.373z M174.055,293.278
		c-5.193,8.265-16.104,10.755-24.371,5.562c-8.267-5.188-10.758-16.099-5.567-24.368c5.191-8.265,0.329,4.381,8.593,9.579
		C160.982,289.234,179.248,285.004,174.055,293.278z M86.606,45.951h143.165v209.885H86.606V45.951z"/>
	<path d="M407,0H105C47.103,0,0,47.103,0,105v302c0,57.897,47.103,105,105,105h302c57.897,0,105-47.103,105-105V105
			C512,47.103,464.897,0,407,0z M391.314,369.889l-8.034,13.39c-31.242,31.242-113.553-0.417-183.848-70.711
			c-70.294-70.294-101.953-152.605-70.711-183.848l13.39-8.034c12.131-7.278,27.866-3.345,35.144,8.786l18.958,31.596
			c6.048,10.079,4.459,22.98-3.852,31.292c-11.716,11.716-11.716,30.711,0,42.426l84.853,84.853
			c11.716,11.716,30.711,11.716,42.426,0c8.311-8.312,21.213-9.9,31.292-3.853l31.596,18.958
			C394.658,342.023,398.592,357.758,391.314,369.889z"/>
</g>
<g>
</g>
<g>
</g>
<g>
</g>
<g>
</g>
<g>
</g>
<g>
</g>
<g>
</g>
<g>
</g>
<g>
</g>
<g>
</g>
<g>
</g>
<g>
</g>
<g>
</g>
<g>
</g>
<g>
</g>
</svg>
