<?xml version="1.0" encoding="UTF-8" standalone="no"?>
<svg
   xmlns:dc="http://purl.org/dc/elements/1.1/"
   xmlns:cc="http://creativecommons.org/ns#"
   xmlns:rdf="http://www.w3.org/1999/02/22-rdf-syntax-ns#"
   xmlns:svg="http://www.w3.org/2000/svg"
   xmlns="http://www.w3.org/2000/svg"
   xmlns:sodipodi="http://sodipodi.sourceforge.net/DTD/sodipodi-0.dtd"
   xmlns:inkscape="http://www.inkscape.org/namespaces/inkscape"
   width="755.90552"
   height="755.90552"
   viewBox="0 0 200 200"
   version="1.1"
   id="svg8"
   inkscape:version="1.0.2-2 (e86c870879, 2021-01-15)"
   sodipodi:docname="javvob.svg">
  <defs
     id="defs2" />
  <sodipodi:namedview
     id="base"
     pagecolor="#ffffff"
     bordercolor="#666666"
     borderopacity="1.0"
     inkscape:pageopacity="0.0"
     inkscape:pageshadow="2"
     inkscape:zoom="0.67611765"
     inkscape:cx="475.64898"
     inkscape:cy="452.76317"
     inkscape:document-units="px"
     inkscape:current-layer="layer1"
     inkscape:document-rotation="0"
     showgrid="false"
     units="px"
     inkscape:window-width="1920"
     inkscape:window-height="1001"
     inkscape:window-x="-9"
     inkscape:window-y="-9"
     inkscape:window-maximized="1" />
  <metadata
     id="metadata5">
    <rdf:RDF>
      <cc:Work
         rdf:about="">
        <dc:format>image/svg+xml</dc:format>
        <dc:type
           rdf:resource="http://purl.org/dc/dcmitype/StillImage" />
        <dc:title></dc:title>
      </cc:Work>
    </rdf:RDF>
  </metadata>
  <g
     inkscape:label="Слой 1"
     inkscape:groupmode="layer"
     id="layer1">
    <g
       id="g187"
       transform="matrix(0.41310742,0,0,0.41310742,1.4253553,1.4253518)">
      <path
         d="m 256,360 c 0,8.83594 -7.16406,16 -16,16 -8.83594,0 -16,-7.16406 -16,-16 0,-8.83594 7.16406,-16 16,-16 8.83594,0 16,7.16406 16,16 z m 0,0"
         id="path170" />
      <path
         d="m 176,424 v 40 h -56 v 16 h 240 v -16 h -56 v -40 h -16 v 40 h -96 v -40 z m 0,0"
         id="path172" />
      <path
         d="M 456,0 H 24 C 10.75,0.015625 0.015625,10.75 0,24 v 360 c 0.015625,13.25 10.75,23.98437 24,24 h 432 c 13.25,-0.0156 23.98437,-10.75 24,-24 V 24 C 479.98437,10.75 469.25,0.015625 456,0 Z m 8,384 c -0.004,4.41797 -3.58203,7.99609 -8,8 H 24 c -4.417969,-0.004 -7.996094,-3.58203 -8,-8 v -56 h 448 z m 0,-72 H 16 V 24 c 0.0039,-4.417969 3.582031,-7.996094 8,-8 h 432 c 4.41797,0.0039 7.99609,3.582031 8,8 z m 0,0"
         id="path174" />
    </g>
    <g
       id="g2342"
       transform="matrix(0.21261006,0,0,0.21261006,43.795096,13.662758)">
<g
   id="g2238">
	<g
   id="g2236">
		<path
   d="m 341.333,281.6 c -28.237,0 -51.2,22.963 -51.2,51.2 0,28.237 22.963,51.2 51.2,51.2 28.237,0 51.2,-22.963 51.2,-51.2 0,-28.237 -22.963,-51.2 -51.2,-51.2 z m 0,85.333 c -18.825,0 -34.133,-15.309 -34.133,-34.133 0,-18.825 15.309,-34.133 34.133,-34.133 18.825,0 34.133,15.309 34.133,34.133 10e-4,18.825 -15.308,34.133 -34.133,34.133 z"
   fill="#000000"
   data-original="#000000"
   id="path2234" />

	</g>

</g>

<g
   id="g2244">
	<g
   id="g2242">
		<path
   d="m 358.4,366.933 v 35.26 l -12.339,-8.226 c -2.867,-1.92 -6.596,-1.92 -9.464,0 l -12.331,8.226 v -35.26 H 307.2 v 51.2 c 0,3.149 1.732,6.042 4.514,7.526 2.765,1.485 6.144,1.314 8.755,-0.427 l 20.864,-13.909 20.864,13.909 c 1.425,0.947 3.081,1.434 4.736,1.434 1.382,0 2.765,-0.333 4.028,-1.007 2.773,-1.485 4.506,-4.378 4.506,-7.526 v -51.2 z"
   fill="#000000"
   data-original="#000000"
   id="path2240" />

	</g>

</g>

<g
   id="g2250">
	<g
   id="g2248">
		<rect
   x="196.267"
   y="85.333"
   width="110.933"
   height="17.066999"
   fill="#000000"
   data-original="#000000"
   id="rect2246" />

	</g>

</g>

<g
   id="g2256">
	<g
   id="g2254">
		<rect
   x="119.467"
   y="136.533"
   width="273.06699"
   height="17.066999"
   fill="#000000"
   data-original="#000000"
   id="rect2252" />

	</g>

</g>

<g
   id="g2262">
	<g
   id="g2260">
		<rect
   x="119.467"
   y="187.733"
   width="187.733"
   height="17.066999"
   fill="#000000"
   data-original="#000000"
   id="rect2258" />

	</g>

</g>

<g
   id="g2268">
	<g
   id="g2266">
		<rect
   x="341.33301"
   y="187.733"
   width="51.200001"
   height="17.066999"
   fill="#000000"
   data-original="#000000"
   id="rect2264" />

	</g>

</g>

<g
   id="g2274">
	<g
   id="g2272">
		<rect
   x="119.467"
   y="238.933"
   width="273.06699"
   height="17.066999"
   fill="#000000"
   data-original="#000000"
   id="rect2270" />

	</g>

</g>

<g
   id="g2280">
	<g
   id="g2278">
		<rect
   x="119.467"
   y="290.133"
   width="102.4"
   height="17.066999"
   fill="#000000"
   data-original="#000000"
   id="rect2276" />

	</g>

</g>

<g
   id="g2286">
	<g
   id="g2284">
		<rect
   x="119.467"
   y="332.79999"
   width="42.667"
   height="17.066999"
   fill="#000000"
   data-original="#000000"
   id="rect2282" />

	</g>

</g>

<g
   id="g2292">
	<g
   id="g2290">
		<rect
   x="196.267"
   y="332.79999"
   width="25.6"
   height="17.066999"
   fill="#000000"
   data-original="#000000"
   id="rect2288" />

	</g>

</g>

<g
   id="g2298">
	<g
   id="g2296">
		<path
   d="m 469.333,0 c -23.526,0 -42.667,19.14 -42.667,42.667 v 17.067 c 0,4.71 3.814,8.533 8.533,8.533 h 68.267 c 4.719,0 8.533,-3.823 8.533,-8.533 V 42.667 C 512,19.14 492.86,0 469.333,0 Z m 25.6,51.2 h -51.2 v -8.533 c 0,-14.114 11.486,-25.6 25.6,-25.6 14.114,0 25.6,11.486 25.6,25.6 z"
   fill="#000000"
   data-original="#000000"
   id="path2294" />

	</g>

</g>

<g
   id="g2304">
	<g
   id="g2302">
		<path
   d="m 469.333,0 h -358.4 C 87.407,0 68.267,19.14 68.267,42.667 v 409.6 h 17.067 v -409.6 c 0,-14.114 11.486,-25.6 25.6,-25.6 h 324.284 c -5.367,7.134 -8.55,16 -8.55,25.6 v 426.667 c 0,14.114 -11.486,25.6 -25.6,25.6 H 76.8 V 512 h 324.267 c 23.526,0 42.667,-19.14 42.667,-42.667 V 42.667 c 0,-14.114 11.486,-25.6 25.6,-25.6 4.719,0 8.533,-3.823 8.533,-8.533 0,-4.71 -3.815,-8.534 -8.534,-8.534 z"
   fill="#000000"
   data-original="#000000"
   id="path2300" />

	</g>

</g>

<g
   id="g2310">
	<g
   id="g2308">
		<path
   d="m 401.067,494.933 c -14.114,0 -25.6,-11.486 -25.6,-25.6 v -17.067 c 0,-4.719 -3.814,-8.533 -8.533,-8.533 H 8.533 c -4.71,0 -8.533,3.814 -8.533,8.533 v 17.067 C 0,492.86 19.14,512 42.667,512 h 358.4 c 4.719,0 8.533,-3.814 8.533,-8.533 0,-4.719 -3.814,-8.534 -8.533,-8.534 z m -358.4,0 c -14.114,0 -25.6,-11.486 -25.6,-25.6 V 460.8 H 358.4 v 8.533 c 0,9.6 3.183,18.466 8.55,25.6 z"
   fill="#000000"
   data-original="#000000"
   id="path2306" />

	</g>

</g>

<g
   id="g2312">
</g>

<g
   id="g2314">
</g>

<g
   id="g2316">
</g>

<g
   id="g2318">
</g>

<g
   id="g2320">
</g>

<g
   id="g2322">
</g>

<g
   id="g2324">
</g>

<g
   id="g2326">
</g>

<g
   id="g2328">
</g>

<g
   id="g2330">
</g>

<g
   id="g2332">
</g>

<g
   id="g2334">
</g>

<g
   id="g2336">
</g>

<g
   id="g2338">
</g>

<g
   id="g2340">
</g>

</g>
  </g>
</svg>
