<?xml version="1.0" encoding="UTF-8" standalone="no"?>
<svg
   xmlns:dc="http://purl.org/dc/elements/1.1/"
   xmlns:cc="http://creativecommons.org/ns#"
   xmlns:rdf="http://www.w3.org/1999/02/22-rdf-syntax-ns#"
   xmlns:svg="http://www.w3.org/2000/svg"
   xmlns="http://www.w3.org/2000/svg"
   xmlns:sodipodi="http://sodipodi.sourceforge.net/DTD/sodipodi-0.dtd"
   xmlns:inkscape="http://www.inkscape.org/namespaces/inkscape"
   width="755.90552"
   height="755.90552"
   viewBox="0 0 200 200"
   version="1.1"
   id="svg8"
   inkscape:version="1.0.2-2 (e86c870879, 2021-01-15)"
   sodipodi:docname="sipat.svg">
  <defs
     id="defs2" />
  <sodipodi:namedview
     id="base"
     pagecolor="#ffffff"
     bordercolor="#666666"
     borderopacity="1.0"
     inkscape:pageopacity="0.0"
     inkscape:pageshadow="2"
     inkscape:zoom="0.67611765"
     inkscape:cx="475.64898"
     inkscape:cy="452.76317"
     inkscape:document-units="px"
     inkscape:current-layer="layer1"
     inkscape:document-rotation="0"
     showgrid="false"
     units="px"
     inkscape:window-width="1920"
     inkscape:window-height="1001"
     inkscape:window-x="-9"
     inkscape:window-y="-9"
     inkscape:window-maximized="1" />
  <metadata
     id="metadata5">
    <rdf:RDF>
      <cc:Work
         rdf:about="">
        <dc:format>image/svg+xml</dc:format>
        <dc:type
           rdf:resource="http://purl.org/dc/dcmitype/StillImage" />
        <dc:title></dc:title>
      </cc:Work>
    </rdf:RDF>
  </metadata>
  <g
     inkscape:label="Слой 1"
     inkscape:groupmode="layer"
     id="layer1">
    <g
       id="g187"
       transform="matrix(0.41310742,0,0,0.41310742,1.4253553,1.4253518)">
      <path
         d="m 256,360 c 0,8.83594 -7.16406,16 -16,16 -8.83594,0 -16,-7.16406 -16,-16 0,-8.83594 7.16406,-16 16,-16 8.83594,0 16,7.16406 16,16 z m 0,0"
         id="path170" />
      <path
         d="m 176,424 v 40 h -56 v 16 h 240 v -16 h -56 v -40 h -16 v 40 h -96 v -40 z m 0,0"
         id="path172" />
      <path
         d="M 456,0 H 24 C 10.75,0.015625 0.015625,10.75 0,24 v 360 c 0.015625,13.25 10.75,23.98437 24,24 h 432 c 13.25,-0.0156 23.98437,-10.75 24,-24 V 24 C 479.98437,10.75 469.25,0.015625 456,0 Z m 8,384 c -0.004,4.41797 -3.58203,7.99609 -8,8 H 24 c -4.417969,-0.004 -7.996094,-3.58203 -8,-8 v -56 h 448 z m 0,-72 H 16 V 24 c 0.0039,-4.417969 3.582031,-7.996094 8,-8 h 432 c 4.41797,0.0039 7.99609,3.582031 8,8 z m 0,0"
         id="path174" />
    </g>
    <g
       id="g2454"
       transform="matrix(0.26458333,0,0,0.26458333,33.620453,1.1402825)">
      <path
         d="M 127.973,131.976 57.216,238.11 256,470.024 454.784,238.11 384.027,131.976 Z m 83.027,90 H 104.028 l 35.657,-53.486 z m -30,-60 h 150 l -75,56.25 z m 60,90 V 406.427 L 108.614,251.976 Z m 30,0 H 403.386 L 271,406.427 Z m 30,-30 71.315,-53.486 35.657,53.486 z"
         id="path2444" />
      <path
         d="m 482,71.976 v -30 h -30 v 30 h -30 v 30 h 30 v 30 h 30 v -30 h 30 v -30 z"
         id="path2446" />
      <path
         d="M 60,371.976 H 30 v 30 H 0 v 30 h 30 v 30 h 30 v -30 h 30 v -30 H 60 Z"
         id="path2448" />
      <path
         d="m 0,281.976 h 30 v 30 H 0 Z"
         id="path2450" />
      <path
         d="m 482,191.976 h 30 v 30 h -30 z"
         id="path2452" />
    </g>
  </g>
</svg>
