<?xml version="1.0" encoding="UTF-8" standalone="no"?>
<svg
   xmlns:dc="http://purl.org/dc/elements/1.1/"
   xmlns:cc="http://creativecommons.org/ns#"
   xmlns:rdf="http://www.w3.org/1999/02/22-rdf-syntax-ns#"
   xmlns:svg="http://www.w3.org/2000/svg"
   xmlns="http://www.w3.org/2000/svg"
   xmlns:sodipodi="http://sodipodi.sourceforge.net/DTD/sodipodi-0.dtd"
   xmlns:inkscape="http://www.inkscape.org/namespaces/inkscape"
   width="755.90552"
   height="755.90552"
   viewBox="0 0 200 200"
   version="1.1"
   id="svg8"
   inkscape:version="1.0.2-2 (e86c870879, 2021-01-15)"
   sodipodi:docname="tradi-in-org.svg">
  <defs
     id="defs2" />
  <sodipodi:namedview
     id="base"
     pagecolor="#ffffff"
     bordercolor="#666666"
     borderopacity="1.0"
     inkscape:pageopacity="0.0"
     inkscape:pageshadow="2"
     inkscape:zoom="0.67611765"
     inkscape:cx="475.64898"
     inkscape:cy="452.76317"
     inkscape:document-units="px"
     inkscape:current-layer="layer1"
     inkscape:document-rotation="0"
     showgrid="false"
     units="px"
     inkscape:window-width="1920"
     inkscape:window-height="1001"
     inkscape:window-x="-9"
     inkscape:window-y="-9"
     inkscape:window-maximized="1" />
  <metadata
     id="metadata5">
    <rdf:RDF>
      <cc:Work
         rdf:about="">
        <dc:format>image/svg+xml</dc:format>
        <dc:type
           rdf:resource="http://purl.org/dc/dcmitype/StillImage" />
        <dc:title></dc:title>
      </cc:Work>
    </rdf:RDF>
  </metadata>
  <g
     inkscape:label="Слой 1"
     inkscape:groupmode="layer"
     id="layer1">
    <g
       id="g187"
       transform="matrix(0.41310742,0,0,0.41310742,1.4253553,1.4253518)">
      <path
         d="m 256,360 c 0,8.83594 -7.16406,16 -16,16 -8.83594,0 -16,-7.16406 -16,-16 0,-8.83594 7.16406,-16 16,-16 8.83594,0 16,7.16406 16,16 z m 0,0"
         id="path170" />
      <path
         d="m 176,424 v 40 h -56 v 16 h 240 v -16 h -56 v -40 h -16 v 40 h -96 v -40 z m 0,0"
         id="path172" />
      <path
         d="M 456,0 H 24 C 10.75,0.015625 0.015625,10.75 0,24 v 360 c 0.015625,13.25 10.75,23.98437 24,24 h 432 c 13.25,-0.0156 23.98437,-10.75 24,-24 V 24 C 479.98437,10.75 469.25,0.015625 456,0 Z m 8,384 c -0.004,4.41797 -3.58203,7.99609 -8,8 H 24 c -4.417969,-0.004 -7.996094,-3.58203 -8,-8 v -56 h 448 z m 0,-72 H 16 V 24 c 0.0039,-4.417969 3.582031,-7.996094 8,-8 h 432 c 4.41797,0.0039 7.99609,3.582031 8,8 z m 0,0"
         id="path174" />
    </g>
    <g
       inkscape:label="Слой 1"
       id="layer1-4"
       transform="matrix(0.92583854,0,0,0.92583854,23.444916,10.305673)">
      <path
         d="m 63.998021,38.791697 a 31.121406,31.121406 0 0 0 -30.840439,31.121831 2.5236727,2.5236727 0 0 1 -5.047345,0 36.13689,36.13689 0 0 1 35.896722,-36.169281 l 3.360479,2.520307 z m -1.565835,9.586486 13.459591,-10.094691 a 2.5236727,2.5236727 0 0 0 0,-4.037876 L 62.432186,24.150926 a 2.5236728,2.5236728 0 1 0 -3.028407,4.037876 l 10.76767,8.075752 -10.76767,8.075753 a 2.5236727,2.5236727 0 1 0 3.028407,4.037876 z"
         id="path321"
         style="stroke-width:0.105153" />
      <path
         d="m 100.09352,87.981593 a 31.121406,31.121406 0 0 0 33.79296,-27.887928 2.5236727,2.5236727 0 0 1 5.02213,0.503821 36.13689,36.13689 0 0 1 -39.327816,32.405447 l -3.09212,-2.84316 z m 2.51492,-9.38231 -14.400006,8.70075 a 2.5236727,2.5236727 0 0 0 -0.40306,4.01771 L 100.1901,102.70553 a 2.5236734,2.5236734 0 1 0 3.41634,-3.715407 l -9.907776,-9.11024 11.520006,-6.9606 a 2.523675,2.523675 0 1 0 -2.61023,-4.32 z"
         id="path321-1"
         style="stroke-width:0.105153" />
      <g
         id="g445"
         transform="matrix(1.0769189,0,0,1.0769189,74.424993,1.0946189)">
        <g
           id="g377">
          <g
             id="g375">
            <path
               d="m 19,16 c 0.256,0 0.512,-0.098 0.707,-0.293 l 4,-4 c 0.391,-0.391 0.391,-1.023 0,-1.414 -0.391,-0.391 -1.023,-0.391 -1.414,0 l -4,4 c -0.391,0.391 -0.391,1.023 0,1.414 C 18.488,15.902 18.744,16 19,16 Z"
               id="path351" />
            <path
               d="m 19,21 c 0.256,0 0.512,-0.098 0.707,-0.293 l 2,-2 c 0.391,-0.391 0.391,-1.023 0,-1.414 -0.391,-0.391 -1.023,-0.391 -1.414,0 l -2,2 c -0.391,0.391 -0.391,1.023 0,1.414 C 18.488,20.902 18.744,21 19,21 Z"
               id="path353" />
            <path
               d="M 22.29,15.29 C 22.11,15.479 22,15.74 22,16 c 0,0.26 0.11,0.52 0.29,0.71 0.19,0.18 0.45,0.29 0.71,0.29 0.26,0 0.52,-0.11 0.71,-0.29 C 23.89,16.52 24,16.26 24,16 c 0,-0.26 -0.11,-0.521 -0.29,-0.71 -0.38,-0.37 -1.05,-0.37 -1.42,0 z"
               id="path355" />
            <path
               d="M 24.293,14.707 C 24.488,14.902 24.744,15 25,15 c 0.256,0 0.512,-0.098 0.707,-0.293 l 3,-3 c 0.391,-0.391 0.391,-1.023 0,-1.414 -0.391,-0.391 -1.023,-0.391 -1.414,0 l -3,3 c -0.391,0.391 -0.391,1.023 0,1.414 z"
               id="path357" />
            <path
               d="m 27.293,15.293 -9,9 c -0.391,0.391 -0.391,1.023 0,1.414 C 18.488,25.902 18.744,26 19,26 c 0.256,0 0.512,-0.098 0.707,-0.293 l 9,-9 c 0.391,-0.391 0.391,-1.023 0,-1.414 -0.391,-0.391 -1.023,-0.391 -1.414,0 z"
               id="path359" />
            <path
               d="M 29.29,13.29 C 29.11,13.479 29,13.729 29,14 c 0,0.27 0.11,0.52 0.29,0.71 0.19,0.18 0.45,0.29 0.71,0.29 0.26,0 0.52,-0.11 0.71,-0.29 C 30.89,14.52 31,14.26 31,14 c 0,-0.26 -0.11,-0.521 -0.29,-0.71 -0.37,-0.37 -1.05,-0.37 -1.42,0 z"
               id="path361" />
            <path
               d="m 32.293,10.293 -1,1 c -0.391,0.391 -0.391,1.023 0,1.414 C 31.488,12.902 31.744,13 32,13 c 0.256,0 0.512,-0.098 0.707,-0.293 l 1,-1 c 0.391,-0.391 0.391,-1.023 0,-1.414 -0.391,-0.391 -1.023,-0.391 -1.414,0 z"
               id="path363" />
            <path
               d="M 39.632,0 H 17.368 C 14.408,0 12,2.408 12,5.368 V 7 c -0.552,0 -1,0.447 -1,1 v 1 c 0,0.553 0.448,1 1,1 v 1 c -0.552,0 -1,0.447 -1,1 v 1 c 0,0.553 0.448,1 1,1 v 1 c -0.552,0 -1,0.447 -1,1 v 1 c 0,0.553 0.448,1 1,1 V 50.632 C 12,53.592 14.408,56 17.368,56 H 39.632 C 42.592,56 45,53.592 45,50.632 V 5.368 C 45,2.408 42.592,0 39.632,0 Z M 43,50.632 C 43,52.489 41.489,54 39.632,54 H 17.368 C 15.511,54 14,52.489 14,50.632 V 5.368 C 14,3.511 15.511,2 17.368,2 H 39.632 C 41.489,2 43,3.511 43,5.368 Z"
               id="path365" />
            <path
               d="M 15,47 H 42 V 7 H 15 Z M 17,9 H 40 V 45 H 17 Z"
               id="path367" />
            <path
               d="m 29,6 h 3 C 32.552,6 33,5.553 33,5 33,4.447 32.552,4 32,4 h -3 c -0.552,0 -1,0.447 -1,1 0,0.553 0.448,1 1,1 z"
               id="path369" />
            <path
               d="M 25,6 C 25.26,6 25.52,5.89 25.71,5.71 25.89,5.52 26,5.26 26,5 26,4.74 25.89,4.479 25.71,4.29 25.33,3.92 24.67,3.92 24.29,4.29 24.11,4.479 24,4.729 24,5 24,5.26 24.11,5.52 24.29,5.71 24.48,5.89 24.74,6 25,6 Z"
               id="path371" />
            <circle
               cx="28.5"
               cy="50.5"
               r="2.5"
               id="circle373" />
          </g>
        </g>
        <g
           id="g379" />
        <g
           id="g381" />
        <g
           id="g383" />
        <g
           id="g385" />
        <g
           id="g387" />
        <g
           id="g389" />
        <g
           id="g391" />
        <g
           id="g393" />
        <g
           id="g395" />
        <g
           id="g397" />
        <g
           id="g399" />
        <g
           id="g401" />
        <g
           id="g403" />
        <g
           id="g405" />
        <g
           id="g407" />
      </g>
      <g
         id="g490"
         transform="matrix(0.11307931,0,0,0.11307931,40.347413,68.481525)">
        <path
           d="M 280.10156,0 H 55.164062 C 24.746094,0 0,24.746094 0,55.167969 V 456.83594 C 0,487.25391 24.746094,512 55.164062,512 H 280.10156 c 30.41797,0 55.16406,-24.74609 55.16406,-55.16406 V 55.167969 C 335.26562,24.746094 310.51953,0 280.10156,0 Z m 25.16406,456.83594 c 0,13.875 -11.28906,25.16406 -25.16406,25.16406 H 55.164062 C 41.289062,482 30,470.71094 30,456.83594 V 55.167969 C 30,41.289062 41.289062,30 55.164062,30 h 65.390628 c -0.0234,0.355469 -0.0547,0.707031 -0.0547,1.066406 0,8.285156 6.71484,15 15,15 h 64.26562 c 8.28516,0 15,-6.714844 15,-15 0,-0.359375 -0.0273,-0.710937 -0.0547,-1.066406 h 65.39062 c 13.875,0 25.16406,11.289062 25.16406,25.167969 z m 0,0"
           id="path473" />
        <path
           d="M 229.32812,229.32812 84.726562,373.92578 c -5.859374,5.85938 -5.859374,15.35547 0,21.21484 2.929688,2.92579 6.765626,4.39063 10.605469,4.39063 3.839844,0 7.679689,-1.46484 10.605469,-4.39063 L 250.53906,250.53906 c 5.85938,-5.85547 5.85938,-15.35547 0,-21.21094 -5.85547,-5.85937 -15.35156,-5.85937 -21.21094,0 z m 0,0"
           id="path475" />
        <path
           d="M 229.32812,116.85938 84.726562,261.46094 c -5.859374,5.85937 -5.859374,15.35547 0,21.21484 2.925782,2.92578 6.765626,4.39063 10.605469,4.39063 3.835938,0 7.675779,-1.46485 10.605469,-4.39063 L 250.53906,138.07422 c 5.85938,-5.85547 5.85938,-15.35547 0,-21.21094 -5.85547,-5.85937 -15.35156,-5.85937 -21.21094,-0.004 z m 0,0"
           id="path477" />
      </g>
    </g>
  </g>
</svg>
