<?xml version="1.0" encoding="UTF-8" standalone="no"?>
<svg
   xmlns:dc="http://purl.org/dc/elements/1.1/"
   xmlns:cc="http://creativecommons.org/ns#"
   xmlns:rdf="http://www.w3.org/1999/02/22-rdf-syntax-ns#"
   xmlns:svg="http://www.w3.org/2000/svg"
   xmlns="http://www.w3.org/2000/svg"
   xmlns:sodipodi="http://sodipodi.sourceforge.net/DTD/sodipodi-0.dtd"
   xmlns:inkscape="http://www.inkscape.org/namespaces/inkscape"
   width="210mm"
   height="297mm"
   viewBox="0 0 210 297"
   version="1.1"
   id="svg8"
   inkscape:version="1.0.2-2 (e86c870879, 2021-01-15)"
   sodipodi:docname="background.svg">
  <defs
     id="defs2" />
  <sodipodi:namedview
     id="base"
     pagecolor="#ffffff"
     bordercolor="#666666"
     borderopacity="1.0"
     inkscape:pageopacity="0.0"
     inkscape:pageshadow="2"
     inkscape:zoom="0.98994949"
     inkscape:cx="410.54084"
     inkscape:cy="255.81227"
     inkscape:document-units="mm"
     inkscape:current-layer="layer1"
     inkscape:document-rotation="0"
     showgrid="false"
     inkscape:window-width="1710"
     inkscape:window-height="1030"
     inkscape:window-x="32"
     inkscape:window-y="0"
     inkscape:window-maximized="0" />
  <metadata
     id="metadata5">
    <rdf:RDF>
      <cc:Work
         rdf:about="">
        <dc:format>image/svg+xml</dc:format>
        <dc:type
           rdf:resource="http://purl.org/dc/dcmitype/StillImage" />
        <dc:title></dc:title>
      </cc:Work>
    </rdf:RDF>
  </metadata>
  <g
     inkscape:label="Слой 1"
     inkscape:groupmode="layer"
     id="layer1">
    <g
       id="cpu_chip"
       data-name="cpu chip"
       transform="matrix(-1.1099416,0.00469691,-0.00469691,-1.1099416,174.99063,90.545952)">
      <path
         d="m 46,35 a 3.009,3.009 0 0 0 3,-3 v -2 a 1,1 0 0 1 1,-1 h 9 a 3.009,3.009 0 0 0 3,-3 V 13 A 3.009,3.009 0 0 0 59,10 1,1 0 0 1 58,9 V 7.82 a 3,3 0 1 0 -2,0 V 9 a 3.009,3.009 0 0 0 3,3 1,1 0 0 1 1,1 v 13 a 1,1 0 0 1 -1,1 h -9 a 3.009,3.009 0 0 0 -3,3 v 2 a 1,1 0 0 1 -1,1 h -5 v -6.5 l 3.6,-2.7 A 1.014,1.014 0 0 0 45,23 V 15.5 A 0.5,0.5 0 0 1 45.5,15 h 1 A 2.5,2.5 0 0 0 49,12.5 V 9.82 a 3,3 0 1 0 -2,0 V 12.5 A 0.5,0.5 0 0 1 46.5,13 h -1 A 2.5,2.5 0 0 0 43,15.5 v 7 l -3.6,2.7 A 1.014,1.014 0 0 0 39,26 V 40 H 37 V 19.5 A 0.5,0.5 0 0 1 37.5,19 2.5,2.5 0 0 0 40,16.5 V 7.82 a 3,3 0 1 0 -2,0 V 16.5 A 0.5,0.5 0 0 1 37.5,17 2.5,2.5 0 0 0 35,19.5 V 40 H 33 V 13.82 a 3,3 0 1 0 -2,0 V 40 H 29 V 19.5 A 2.5,2.5 0 0 0 26.5,17 0.5,0.5 0 0 1 26,16.5 V 7.82 a 3,3 0 1 0 -2,0 V 16.5 A 2.5,2.5 0 0 0 26.5,19 0.5,0.5 0 0 1 27,19.5 V 40 H 25 V 26 A 1.014,1.014 0 0 0 24.6,25.2 L 21,22.5 v -7 A 2.5,2.5 0 0 0 18.5,13 h -1 A 0.5,0.5 0 0 1 17,12.5 V 9.82 a 3,3 0 1 0 -2,0 v 2.68 a 2.5,2.5 0 0 0 2.5,2.5 h 1 A 0.5,0.5 0 0 1 19,15.5 V 23 a 1.014,1.014 0 0 0 0.4,0.8 L 23,26.5 V 33 H 18 A 1,1 0 0 1 17,32 V 30 A 3.009,3.009 0 0 0 14,27 H 5 A 1,1 0 0 1 4,26 V 13 A 1,1 0 0 1 5,12 3.009,3.009 0 0 0 8,9 V 7.82 a 3,3 0 1 0 -2,0 V 9 a 1,1 0 0 1 -1,1 3.009,3.009 0 0 0 -3,3 v 13 a 3.009,3.009 0 0 0 3,3 h 9 a 1,1 0 0 1 1,1 v 2 a 3.009,3.009 0 0 0 3,3 h 5 v 5 h -1 a 1,1 0 0 0 -1,1 v 1 h -5 v 2 h 5 v 2 H 2 v 2 h 19 v 2 h -5 v 2 h 5 v 2 h -2 v 2 h 2 v 2 h -2 v 2 h 2 v 1 a 1,1 0 0 0 1,1 h 20 a 1,1 0 0 0 1,-1 v -1 h 2 v -2 h -2 v -2 h 2 v -2 h -2 v -2 h 5 V 50 H 43 V 48 H 62 V 46 H 43 v -2 h 5 V 42 H 43 V 41 A 1,1 0 0 0 42,40 H 41 V 35 Z M 57,6 A 1,1 0 1 1 58,5 1,1 0 0 1 57,6 Z M 48,6 A 1,1 0 1 1 47,7 1,1 0 0 1 48,6 Z M 39,4 A 1,1 0 1 1 38,5 1,1 0 0 1 39,4 Z M 25,6 A 1,1 0 1 1 26,5 1,1 0 0 1 25,6 Z M 16,8 A 1,1 0 1 1 17,7 1,1 0 0 1 16,8 Z M 7,4 A 1,1 0 1 1 6,5 1,1 0 0 1 7,4 Z m 25,6 a 1,1 0 1 1 -1,1 1,1 0 0 1 1,-1 z m 9,50 H 23 V 42 h 18 z"
         fill="#091941"
         data-original="#000000"
         class=""
         id="path161" />
      <path
         d="m 55,38 v 3 a 1,1 0 0 1 -1,1 h -4 v 2 h 4 a 3,3 0 0 0 3,-3 v -3 a 1,1 0 0 1 1,-1 h 4 v -2 h -4 a 3,3 0 0 0 -3,3 z"
         fill="#091941"
         data-original="#000000"
         class=""
         id="path163" />
      <path
         d="m 57,56 v -3 a 3,3 0 0 0 -3,-3 h -4 v 2 h 4 a 1,1 0 0 1 1,1 v 3 a 3,3 0 0 0 3,3 h 4 v -2 h -4 a 1,1 0 0 1 -1,-1 z"
         fill="#091941"
         data-original="#000000"
         class=""
         id="path165" />
      <path
         d="m 7,38 v 3 a 3,3 0 0 0 3,3 h 4 V 42 H 10 A 1,1 0 0 1 9,41 V 38 A 3,3 0 0 0 6,35 H 2 v 2 h 4 a 1,1 0 0 1 1,1 z"
         fill="#091941"
         data-original="#000000"
         class=""
         id="path167" />
      <path
         d="m 7,53 v 3 A 1,1 0 0 1 6,57 H 2 v 2 h 4 a 3,3 0 0 0 3,-3 v -3 a 1,1 0 0 1 1,-1 h 4 v -2 h -4 a 3,3 0 0 0 -3,3 z"
         fill="#091941"
         data-original="#000000"
         class=""
         id="path169" />
      <path
         d="M 35,49.816 V 58 h 2 V 49.816 A 2.993,2.993 0 1 0 33.184,46 H 29 v 2 h 4.184 A 3,3 0 0 0 35,49.816 Z M 36,46 a 1,1 0 1 1 -1,1 1,1 0 0 1 1,-1 z"
         fill="#091941"
         data-original="#000000"
         class=""
         id="path171" />
      <rect
         x="25"
         y="46"
         width="2"
         height="2"
         fill="#091941"
         data-original="#000000"
         class=""
         id="rect173" />
    </g>
    <g
       id="cpu_chip-3"
       data-name="cpu chip"
       transform="matrix(1.0984269,0,0,1.1136525,37.907395,19.693282)">
      <path
         d="M 62,18 V 16 H 43 v -2 h 5 v -2 h -5 v -2 h 5 V 8 H 43 V 3 A 1,1 0 0 0 42,2 H 22 a 1,1 0 0 0 -1,1 v 1 h -5 v 2 h 5 v 2 h -5 v 2 h 5 v 2 h -5 v 2 h 5 v 2 H 2 v 2 h 19 v 2 h -5 v 2 h 5 v 1 a 1,1 0 0 0 1,1 h 1 v 5 h -7 a 1,1 0 0 0 -1,1 v 5 H 3 a 1,1 0 0 0 -1,1 v 17 a 1,1 0 0 0 1,1 h 3 v 2.18 a 3,3 0 1 0 2,0 V 53 A 1,1 0 0 0 7,52 H 4 V 37 h 12 a 1,1 0 0 0 1,-1 v -5 h 6 v 6.5 l -3.6,2.7 A 1.014,1.014 0 0 0 19,41 v 8 h -3 a 1,1 0 0 0 -1,1 v 4.18 a 3,3 0 1 0 2,0 V 51 h 3 a 1,1 0 0 0 1,-1 v -8.5 l 3.6,-2.7 A 1.014,1.014 0 0 0 25,38 V 24 h 2 v 21 h -2 a 1,1 0 0 0 -1,1 v 10.18 a 3,3 0 1 0 2,0 V 47 h 2 a 1,1 0 0 0 1,-1 V 24 h 2 v 26.18 a 3,3 0 1 0 2,0 V 24 h 2 v 22 a 1,1 0 0 0 1,1 h 2 v 9.18 a 3,3 0 1 0 2,0 V 46 A 1,1 0 0 0 39,45 H 37 V 24 h 2 v 14 a 1.014,1.014 0 0 0 0.4,0.8 L 43,41.5 V 50 a 1,1 0 0 0 1,1 h 3 v 3.18 a 3,3 0 1 0 2,0 V 50 A 1,1 0 0 0 48,49 H 45 V 41 A 1.014,1.014 0 0 0 44.6,40.2 L 41,37.5 V 31 h 6 v 5 a 1,1 0 0 0 1,1 h 12 v 15 h -3 a 1,1 0 0 0 -1,1 v 3.18 a 3,3 0 1 0 2,0 V 54 h 3 a 1,1 0 0 0 1,-1 V 36 A 1,1 0 0 0 61,35 H 49 v -5 a 1,1 0 0 0 -1,-1 h -7 v -5 h 1 a 1,1 0 0 0 1,-1 v -1 h 5 V 20 H 43 V 18 Z M 7,58 a 1,1 0 1 1 -1,1 1,1 0 0 1 1,-1 z m 9,0 a 1,1 0 1 1 1,-1 1,1 0 0 1 -1,1 z m 9,2 a 1,1 0 1 1 1,-1 1,1 0 0 1 -1,1 z m 14,-2 a 1,1 0 1 1 -1,1 1,1 0 0 1 1,-1 z m 9,-2 a 1,1 0 1 1 -1,1 1,1 0 0 1 1,-1 z m 9,4 a 1,1 0 1 1 1,-1 1,1 0 0 1 -1,1 z M 32,54 a 1,1 0 1 1 1,-1 1,1 0 0 1 -1,1 z M 41,22 H 23 V 4 H 35.59 L 41,9.41 Z M 41,6.59 38.41,4 H 41 Z"
         fill="#091941"
         data-original="#000000"
         class=""
         id="path225" />
      <path
         d="M 33,8.1 V 6 H 31 V 8.1 A 5.016,5.016 0 0 0 27.1,12 H 25 v 2 h 2.1 A 5.016,5.016 0 0 0 31,17.9 V 20 h 2 V 17.9 A 5.016,5.016 0 0 0 36.9,14 H 39 V 12 H 36.9 A 5.016,5.016 0 0 0 33,8.1 Z M 32,16 a 3,3 0 1 1 3,-3 3,3 0 0 1 -3,3 z"
         fill="#091941"
         data-original="#000000"
         class=""
         id="path227" />
      <path
         d="m 57,21 a 1,1 0 0 0 -1,-1 h -6 v 2 h 5 v 6 a 1,1 0 0 0 1,1 h 6 v -2 h -5 z"
         fill="#091941"
         data-original="#000000"
         class=""
         id="path229" />
      <path
         d="m 56,5 a 1,1 0 0 0 -1,1 v 6 h -5 v 2 h 6 a 1,1 0 0 0 1,-1 V 7 h 5 V 5 Z"
         fill="#091941"
         data-original="#000000"
         class=""
         id="path231" />
      <path
         d="m 9,28 v -6 h 5 V 20 H 8 a 1,1 0 0 0 -1,1 v 6 H 2 v 2 h 6 a 1,1 0 0 0 1,-1 z"
         fill="#091941"
         data-original="#000000"
         class=""
         id="path233" />
      <path
         d="m 7,13 a 1,1 0 0 0 1,1 h 6 V 12 H 9 V 6 A 1,1 0 0 0 8,5 H 2 v 2 h 5 z"
         fill="#091941"
         data-original="#000000"
         class=""
         id="path235" />
    </g>
  </g>
</svg>
