<?xml version="1.0" encoding="UTF-8" standalone="no"?>
<svg
   xmlns:dc="http://purl.org/dc/elements/1.1/"
   xmlns:cc="http://creativecommons.org/ns#"
   xmlns:rdf="http://www.w3.org/1999/02/22-rdf-syntax-ns#"
   xmlns:svg="http://www.w3.org/2000/svg"
   xmlns="http://www.w3.org/2000/svg"
   xmlns:sodipodi="http://sodipodi.sourceforge.net/DTD/sodipodi-0.dtd"
   xmlns:inkscape="http://www.inkscape.org/namespaces/inkscape"
   width="210mm"
   height="297mm"
   viewBox="0 0 210 297"
   version="1.1"
   id="svg8"
   inkscape:version="1.0.2-2 (e86c870879, 2021-01-15)"
   sodipodi:docname="bgimg_org2.svg">
  <defs
     id="defs2" />
  <sodipodi:namedview
     id="base"
     pagecolor="#ffffff"
     bordercolor="#666666"
     borderopacity="1.0"
     inkscape:pageopacity="0.0"
     inkscape:pageshadow="2"
     inkscape:zoom="0.52064532"
     inkscape:cx="-214.23317"
     inkscape:cy="530.55146"
     inkscape:document-units="mm"
     inkscape:current-layer="layer1"
     inkscape:document-rotation="0"
     showgrid="false"
     inkscape:window-width="1920"
     inkscape:window-height="1001"
     inkscape:window-x="-9"
     inkscape:window-y="-9"
     inkscape:window-maximized="1" />
  <metadata
     id="metadata5">
    <rdf:RDF>
      <cc:Work
         rdf:about="">
        <dc:format>image/svg+xml</dc:format>
        <dc:type
           rdf:resource="http://purl.org/dc/dcmitype/StillImage" />
        <dc:title></dc:title>
      </cc:Work>
    </rdf:RDF>
  </metadata>
  <g
     inkscape:label="Слой 1"
     inkscape:groupmode="layer"
     id="layer1">
    <g
       inkscape:label="Слой 1"
       id="layer1-4"
       transform="translate(0.18558573,2.3893705)">
      <g
         id="g901"
         transform="matrix(0.10359748,0,0,0.10982104,9.8081309,8.9961709)">
        <path
           d="m 299.69141,224.24609 c -44.11329,0 -80,35.89063 -80,80 0,44.11328 35.88671,80 80,80 44.11328,0 80,-35.88672 80,-80 0,-44.10937 -35.88672,-80 -80,-80 z m 0,128 c -26.47266,0 -48,-21.52734 -48,-48 0,-26.46875 21.52734,-48 48,-48 26.47265,0 48,21.53125 48,48 0,26.47266 -21.52735,48 -48,48 z m 0,0"
           fill="#e8e8e8"
           data-original="#000000"
           class=""
           id="path893" />
        <path
           d="M 0.125,160.24609 H 183.26953 L 91.691406,0 Z m 55.136719,-32 L 91.691406,64.496094 128.125,128.24609 Z m 0,0"
           fill="#e8e8e8"
           data-original="#000000"
           class=""
           id="path895" />
        <path
           d="m 219.69141,160.24609 h 160 V 0.246094 h -160 z m 32,-127.999996 h 96 v 95.999996 h -96 z m 0,0"
           fill="#e8e8e8"
           data-original="#000000"
           class=""
           id="path897" />
        <path
           d="m 35.691406,382.87891 56,-56 56.000004,56 22.63281,-22.63282 -56,-56 56,-56 -22.63281,-22.6289 -56.000004,56 -56,-56 -22.632812,22.6289 56,56 -56,56 z m 0,0"
           fill="#e8e8e8"
           data-original="#000000"
           class=""
           id="path899" />
      </g>
      <g
         id="g1066"
         transform="matrix(0.0962809,0,0,0.0962809,57.58291,3.921885)">
        <g
           id="g1028">
          <g
             id="g1026">
            <path
               d="m 467.206,318.15 c -37.414,-14.117 -84.284,-18.902 -123.075,-14.638 -29.206,3.241 -51.824,9.533 -61.222,12.446 V 140.484 c 0,-7.631 2.079,-12.563 4.14,-14.067 0.392,-0.286 1.21,-0.882 3.367,-0.19 0.095,0.031 0.188,0.059 0.284,0.086 5.834,1.623 11.235,5.816 11.235,25.339 v 127.72 c 0,2.93 1.676,5.601 4.316,6.875 26.986,13.024 52.56,14.084 72.011,2.985 19.935,-11.374 31.863,-33.879 34.495,-65.081 0.354,-4.201 -2.764,-7.894 -6.966,-8.249 -4.182,-0.359 -7.894,2.763 -8.248,6.965 -2.189,25.968 -11.474,44.331 -26.846,53.103 -13.985,7.98 -32.847,7.417 -53.493,-1.5 V 151.649 c 0,-9.229 -0.001,-33.712 -22.273,-40.009 -6.105,-1.913 -12.096,-1.048 -16.88,2.442 -6.712,4.898 -10.408,14.273 -10.408,26.401 v 309.411 l -71.024,-22.54 c 0,-4.996 0,-359.201 0,-366.441 4.43,0.929 9.171,1.991 14.18,3.176 4.096,0.974 8.215,-1.567 9.186,-5.67 0.97,-4.103 -1.569,-8.216 -5.671,-9.186 -8.839,-2.092 -16.893,-3.814 -23.94,-5.118 -2.23,-0.412 -4.528,0.187 -6.271,1.637 -1.744,1.45 -2.752,3.601 -2.752,5.869 v 225.12 l -28.555,10.152 C 47.238,324.419 -5.742,337.109 0.493,371.032 c 2.829,15.382 19.126,28.355 44.726,35.608 42.877,14.102 89.25,18.554 136.131,10.993 v 15.306 c 0,3.326 2.154,6.27 5.324,7.276 l 86.291,27.385 c 4.191,1.329 -3.31,2.885 156.776,-54.626 23.845,-8.565 60.542,-18.717 75.865,-38.02 12.227,-15.43 10.648,-41.222 -38.4,-56.804 z m -285.858,84.004 c -44.866,7.477 -88.962,3.953 -131.508,-10.065 -0.105,-0.035 -0.211,-0.067 -0.318,-0.097 -23.058,-6.503 -32.689,-16.517 -34.014,-23.721 -1.089,-5.928 3.089,-10.443 6.78,-13.183 6.866,-5.086 15.883,-9.702 24.073,-13.362 l 49.563,15.73 c -14.265,5.522 -17.229,12.567 -17.152,17.581 0.214,14.013 21.255,17 35.27,17 22.573,0 34.425,-5.428 52.746,-12.092 l 14.559,4.62 v 17.589 z m 0.002,-43.75 c -0.136,0.05 -17.34,6.307 -17.34,6.307 -19.546,7.109 -29.793,12.059 -49.966,12.059 -5.516,0 -12.894,-0.533 -18.025,-2.468 3.516,-2.188 0.127,-0.735 85.33,-31.21 v 15.312 z m 0,-31.528 -61.733,22.08 -50.626,-16.066 c 12.475,-4.435 91.398,-32.494 103.155,-36.674 l 9.204,2.921 z m 101.643,5.113 c 0.039,-0.013 0.905,-0.308 0.905,-0.308 l 53.138,16.864 -54.043,19.044 z m -0.083,51.817 80.707,-28.44 6.805,-2.398 c 14.285,-5.105 35.707,-6.218 46.732,-2.585 0.36,0.117 0.687,0.232 0.982,0.345 -1.392,0.866 -3.501,1.931 -6.554,3.023 -5.303,1.887 -117.014,41.674 -128.673,45.827 v -15.772 z m 0.083,65.664 v -32.648 l 48.253,15.313 z m 101.58,-36.492 -29.653,10.653 -49.729,-15.782 c 21.801,-7.764 81.216,-28.926 103.057,-36.704 l 49.259,15.632 z m 109.071,-47.512 c -3.462,4.36 -9.367,8.494 -15.327,11.898 L 428.989,361.71 c 12.193,-9.756 9.273,-28.724 -28.759,-28.724 -15.967,0 -26.909,2.773 -39.279,7.131 l -49.647,-15.755 c 9.69,-2.111 21.427,-4.222 34.504,-5.673 38.412,-4.223 83.123,1.298 116.191,13.816 0.132,0.05 0.266,0.097 0.4,0.139 18.087,5.721 42.974,18.016 31.245,32.822 z"
               fill="#e8e8e8"
               data-original="#000000"
               class=""
               id="path1024" />
          </g>
        </g>
        <g
           id="g1034">
          <g
             id="g1032">
            <path
               d="M 412.226,187.137 C 406.657,130.364 379.037,100.508 310.288,76.968 292.862,71.081 270.411,64.2 250.235,58.562 c -4.067,-1.139 -8.272,1.238 -9.407,5.298 -1.134,4.061 1.238,8.272 5.298,9.407 19.932,5.57 42.091,12.361 59.246,18.155 62.743,21.482 86.728,46.92 91.661,97.206 0.387,3.942 3.708,6.889 7.588,6.889 0.249,0 0.501,-0.012 0.754,-0.037 4.196,-0.412 7.263,-4.146 6.851,-8.343 z"
               fill="#e8e8e8"
               data-original="#000000"
               class=""
               id="path1030" />
          </g>
        </g>
        <g
           id="g1036" />
        <g
           id="g1038" />
        <g
           id="g1040" />
        <g
           id="g1042" />
        <g
           id="g1044" />
        <g
           id="g1046" />
        <g
           id="g1048" />
        <g
           id="g1050" />
        <g
           id="g1052" />
        <g
           id="g1054" />
        <g
           id="g1056" />
        <g
           id="g1058" />
        <g
           id="g1060" />
        <g
           id="g1062" />
        <g
           id="g1064" />
      </g>
      <g
         id="g4424"
         transform="matrix(0.17764882,0,0,0.17764882,10.006867,42.929922)">
        <g
           id="g4392">
          <g
             id="g4390">
            <g
               id="g4388">
              <circle
                 cx="426.66699"
                 cy="362.66699"
                 r="21.333"
                 fill="#e8e8e8"
                 data-original="#000000"
                 id="circle4382" />
              <path
                 d="m 310.396,207.302 c -6.813,-0.677 -10.375,-4.188 -10.375,-5.885 0,-1.531 2.729,-4.292 7.844,-5.469 3.656,-0.854 6.604,-3.552 7.75,-7.125 1.146,-3.583 0.333,-7.49 -2.146,-10.313 -7.74,-8.802 -20.031,-14.958 -29.896,-14.958 -2.275,0 -4.341,0.314 -6.424,0.596 11.395,-4.582 19.143,-14.108 19.143,-25.482 0,-5.896 -4.771,-10.667 -10.667,-10.667 -19.271,0 -34.365,12.5 -34.365,28.448 0,5.529 4.247,9.915 9.633,10.458 -4.035,0.41 -7.866,0.333 -12.591,-0.813 -4.896,-1.188 -10.448,-2.542 -16.74,-2.542 -16.135,0 -39.563,15.563 -39.563,39.948 0,24.042 23.01,52.5 42.448,52.5 9.177,0 14.771,-1.813 18.854,-3.135 4.271,-1.375 4.26,-1.375 8.531,0 4.083,1.323 9.677,3.135 18.854,3.135 15.958,0 31.75,-17.542 38.521,-34.042 1.271,-3.115 1,-6.646 -0.729,-9.542 -1.738,-2.883 -4.738,-4.779 -8.082,-5.112 z m -29.708,27.365 c -5.802,0 -8.948,-1.021 -12.281,-2.094 -3.021,-0.979 -6.448,-2.094 -10.833,-2.094 -4.385,0 -7.813,1.115 -10.844,2.094 -3.323,1.073 -6.479,2.094 -12.281,2.094 -5.146,0 -21.115,-16.563 -21.115,-31.167 0,-12.01 13.688,-18.615 18.229,-18.615 3.729,0 7.594,0.938 11.698,1.938 9.083,2.208 19.542,2.208 28.625,0 4.094,-1 7.958,-1.938 11.688,-1.938 0.427,0 1,0.073 1.667,0.229 -4.167,4.563 -6.552,10.219 -6.552,16.302 0,9.542 5.781,17.875 14.896,22.76 -5.043,6.678 -10.72,10.491 -12.897,10.491 z"
                 fill="#e8e8e8"
                 data-original="#000000"
                 id="path4384" />
              <path
                 d="m 512,276.177 c 0,-8.219 -2.302,-16.25 -6.667,-23.229 L 416.24,110.396 C 406.438,94.708 389.532,85.333 371.021,85.333 H 140.979 c -18.51,0 -35.417,9.375 -45.219,25.063 L 6.656,252.958 C 2.302,259.927 0,267.958 0,276.177 c 0,0.396 0.107,0.763 0.117,1.156 H 0 V 384 c 0,23.531 19.135,42.667 42.667,42.667 H 469.334 C 492.865,426.667 512,407.531 512,384 V 277.333 h -0.117 c 0.01,-0.393 0.117,-0.76 0.117,-1.156 z M 490.667,384 c 0,11.76 -9.573,21.333 -21.333,21.333 H 42.667 C 30.907,405.333 21.334,395.76 21.334,384 V 313.591 C 27.931,317.573 35.57,320 43.823,320 h 424.354 c 8.253,0 15.892,-2.427 22.49,-6.409 z m -22.49,-85.333 H 43.823 c -12.396,0 -22.49,-10.094 -22.49,-22.49 0,-4.219 1.188,-8.333 3.417,-11.917 l 89.094,-142.552 c 5.885,-9.417 16.031,-15.042 27.135,-15.042 h 230.042 c 11.104,0 21.25,5.625 27.135,15.042 L 487.24,264.25 c 2.24,3.594 3.427,7.708 3.427,11.927 0,12.396 -10.094,22.49 -22.49,22.49 z"
                 fill="#e8e8e8"
                 data-original="#000000"
                 id="path4386" />
            </g>
          </g>
        </g>
        <g
           id="g4394" />
        <g
           id="g4396" />
        <g
           id="g4398" />
        <g
           id="g4400" />
        <g
           id="g4402" />
        <g
           id="g4404" />
        <g
           id="g4406" />
        <g
           id="g4408" />
        <g
           id="g4410" />
        <g
           id="g4412" />
        <g
           id="g4414" />
        <g
           id="g4416" />
        <g
           id="g4418" />
        <g
           id="g4420" />
        <g
           id="g4422" />
      </g>
      <g
         id="g4870"
         transform="matrix(0.21908042,0,0,0.21908042,104.52547,6.5734134)">
        <g
           id="g4808">
          <g
             id="g4806">
            <path
               d="M 375.467,0 H 136.533 C 112.969,0 93.866,19.103 93.866,42.667 v 426.667 c 0,23.564 19.102,42.667 42.667,42.667 h 238.933 c 23.564,0 42.667,-19.102 42.667,-42.667 V 42.667 C 418.133,19.103 399.031,0 375.467,0 Z m 25.6,469.333 c 0,14.138 -11.462,25.6 -25.6,25.6 H 136.533 c -14.138,0 -25.6,-11.461 -25.6,-25.6 V 42.667 c 0,-14.138 11.461,-25.6 25.6,-25.6 h 238.933 c 14.138,0 25.6,11.462 25.6,25.6 v 426.666 z"
               fill="#e8e8e8"
               data-original="#000000"
               id="path4804" />
          </g>
        </g>
        <g
           id="g4814">
          <g
             id="g4812">
            <path
               d="M 358.4,34.133 H 153.6 c -14.139,0 -25.6,11.461 -25.6,25.6 v 162.133 c 0,14.138 11.461,25.6 25.6,25.6 h 204.8 c 14.138,0 25.6,-11.461 25.6,-25.6 V 59.733 c 0,-14.138 -11.461,-25.6 -25.6,-25.6 z m 8.533,187.734 c 0,4.713 -3.82,8.533 -8.533,8.533 H 153.6 c -4.713,0 -8.533,-3.82 -8.533,-8.533 V 59.733 c 0,-4.713 3.821,-8.533 8.533,-8.533 h 204.8 c 4.713,0 8.533,3.82 8.533,8.533 z"
               fill="#e8e8e8"
               data-original="#000000"
               id="path4810" />
          </g>
        </g>
        <g
           id="g4820">
          <g
             id="g4818">
            <path
               d="m 256,264.533 c -56.554,0 -102.4,45.846 -102.4,102.4 0,56.554 45.846,102.4 102.4,102.4 56.554,0 102.4,-45.846 102.4,-102.4 0,-56.554 -45.846,-102.4 -102.4,-102.4 z m 0,187.734 c -47.128,0 -85.333,-38.205 -85.333,-85.333 0,-47.128 38.205,-85.334 85.333,-85.334 47.128,0 85.333,38.205 85.333,85.333 0,47.128 -38.205,85.334 -85.333,85.334 z"
               fill="#e8e8e8"
               data-original="#000000"
               id="path4816" />
          </g>
        </g>
        <g
           id="g4826">
          <g
             id="g4824">
            <path
               d="m 256,332.8 c -18.851,0 -34.133,15.282 -34.133,34.133 0,18.851 15.282,34.133 34.133,34.133 18.851,0 34.133,-15.282 34.133,-34.133 0,-18.851 -15.282,-34.133 -34.133,-34.133 z m 0,51.2 c -9.426,0 -17.067,-7.641 -17.067,-17.067 0,-9.426 7.641,-17.067 17.067,-17.067 9.426,0 17.067,7.641 17.067,17.067 0,9.426 -7.641,17.067 -17.067,17.067 z"
               fill="#e8e8e8"
               data-original="#000000"
               id="path4822" />
          </g>
        </g>
        <g
           id="g4832">
          <g
             id="g4830">
            <path
               d="m 178.517,73.387 c -1.553,-3.771 -5.557,-5.917 -9.557,-5.12 -0.544,0.148 -1.062,0.378 -1.536,0.683 -0.545,0.185 -1.061,0.443 -1.536,0.768 l -1.28,1.024 c -0.768,0.835 -1.402,1.786 -1.877,2.816 -0.408,1.032 -0.611,2.133 -0.597,3.243 -0.013,2.268 0.877,4.448 2.475,6.059 0.812,0.777 1.768,1.386 2.816,1.792 1.026,0.437 2.128,0.669 3.243,0.683 1.185,0.004 2.357,-0.238 3.443,-0.712 4.318,-1.887 6.292,-6.917 4.406,-11.236 z"
               fill="#e8e8e8"
               data-original="#000000"
               id="path4828" />
          </g>
        </g>
        <g
           id="g4838">
          <g
             id="g4836">
            <path
               d="m 256,68.267 h -51.2 c -4.713,0 -8.533,3.82 -8.533,8.533 0,4.713 3.82,8.533 8.533,8.533 H 256 c 4.713,0 8.533,-3.82 8.533,-8.533 0,-4.713 -3.82,-8.533 -8.533,-8.533 z"
               fill="#e8e8e8"
               data-original="#000000"
               id="path4834" />
          </g>
        </g>
        <g
           id="g4840" />
        <g
           id="g4842" />
        <g
           id="g4844" />
        <g
           id="g4846" />
        <g
           id="g4848" />
        <g
           id="g4850" />
        <g
           id="g4852" />
        <g
           id="g4854" />
        <g
           id="g4856" />
        <g
           id="g4858" />
        <g
           id="g4860" />
        <g
           id="g4862" />
        <g
           id="g4864" />
        <g
           id="g4866" />
        <g
           id="g4868" />
      </g>
    </g>
    <g
       id="g2080"
       transform="matrix(1.0175371,0,0,0.76344536,123.95346,129.0353)">
      <path
         d="M 67,72 H 7 A 5.006,5.006 0 0 1 2,67 V 7 A 5.006,5.006 0 0 1 7,2 h 60 a 5.006,5.006 0 0 1 5,5 v 28.52 a 1,1 0 1 1 -2,0 V 7 A 3,3 0 0 0 67,4 H 7 A 3,3 0 0 0 4,7 v 60 a 3,3 0 0 0 3,3 h 60 a 3,3 0 0 0 3,-3 V 52.48 a 1,1 0 1 1 2,0 V 67 a 5.006,5.006 0 0 1 -5,5 z"
         fill="#e8e8e8"
         data-original="#000000"
         class=""
         id="path2050" />
      <path
         d="m 71,46.48 a 1,1 0 0 1 -1,-1 v -2.96 a 1,1 0 0 1 2,0 v 2.96 a 1,1 0 0 1 -1,1 z"
         fill="#e8e8e8"
         data-original="#000000"
         class=""
         id="path2052" />
      <path
         d="M 33.375,44 H 3 A 1,1 0 0 1 3,42 H 33.375 A 2.629,2.629 0 0 0 36,39.375 V 26.807 a 4.63,4.63 0 0 1 4.625,-4.625 h 9.75 A 2.629,2.629 0 0 0 53,19.557 V 3 a 1,1 0 0 1 2,0 v 16.557 a 4.631,4.631 0 0 1 -4.625,4.625 h -9.75 A 2.628,2.628 0 0 0 38,26.807 V 39.375 A 4.631,4.631 0 0 1 33.375,44 Z"
         fill="#e8e8e8"
         data-original="#000000"
         class=""
         id="path2054" />
      <path
         d="m 26,21 h -8 a 1,1 0 0 1 0,-2 h 7 V 3 a 1,1 0 0 1 2,0 v 17 a 1,1 0 0 1 -1,1 z"
         fill="#e8e8e8"
         data-original="#000000"
         class=""
         id="path2056" />
      <path
         d="M 14.5,24.5 A 4.5,4.5 0 1 1 19,20 4.505,4.505 0 0 1 14.5,24.5 Z m 0,-7 A 2.5,2.5 0 1 0 17,20 2.5,2.5 0 0 0 14.5,17.5 Z"
         fill="#e8e8e8"
         data-original="#000000"
         class=""
         id="path2058" />
      <path
         d="m 50.812,40 a 1,1 0 0 1 -1,-1 v -8 a 1,1 0 0 1 1,-1 h 20.063 a 1,1 0 0 1 0,2 H 51.812 v 7 a 1,1 0 0 1 -1,1 z"
         fill="#e8e8e8"
         data-original="#000000"
         class=""
         id="path2060" />
      <path
         d="m 50.812,47 a 4.5,4.5 0 1 1 4.5,-4.5 4.505,4.505 0 0 1 -4.5,4.5 z m 0,-7 a 2.5,2.5 0 1 0 2.5,2.5 2.5,2.5 0 0 0 -2.5,-2.5 z"
         fill="#e8e8e8"
         data-original="#000000"
         class=""
         id="path2062" />
      <path
         d="M 20,34 H 3 a 1,1 0 0 1 0,-2 h 17 a 1,1 0 0 1 0,2 z"
         fill="#e8e8e8"
         data-original="#000000"
         class=""
         id="path2064" />
      <path
         d="m 24,38 a 5,5 0 1 1 5,-5 5.006,5.006 0 0 1 -5,5 z m 0,-8 a 3,3 0 1 0 3,3 3,3 0 0 0 -3,-3 z"
         fill="#e8e8e8"
         data-original="#000000"
         class=""
         id="path2066" />
      <path
         d="M 71,59.78 H 54 a 1,1 0 0 1 0,-2 h 17 a 1,1 0 0 1 0,2 z"
         fill="#e8e8e8"
         data-original="#000000"
         class=""
         id="path2068" />
      <path
         d="m 50,63.78 a 5,5 0 1 1 5,-5 5.006,5.006 0 0 1 -5,5 z m 0,-8 a 3,3 0 1 0 3,3 3,3 0 0 0 -3,-3 z"
         fill="#e8e8e8"
         data-original="#000000"
         class=""
         id="path2070" />
      <path
         d="m 15,72 a 1,1 0 0 1 -1,-1 v -8.94 a 1,1 0 0 1 2,0 V 71 a 1,1 0 0 1 -1,1 z"
         fill="#e8e8e8"
         data-original="#000000"
         class=""
         id="path2072" />
      <path
         d="M 15,63.06 A 4.28,4.28 0 1 1 19.28,58.78 4.285,4.285 0 0 1 15,63.06 Z M 15,56.5 A 2.28,2.28 0 1 0 17.28,58.78 2.282,2.282 0 0 0 15,56.5 Z"
         fill="#e8e8e8"
         data-original="#000000"
         class=""
         id="path2074" />
      <path
         d="M 29,72 A 1,1 0 0 1 28,71 V 55.31 a 1,1 0 0 1 2,0 V 71 a 1,1 0 0 1 -1,1 z"
         fill="#e8e8e8"
         data-original="#000000"
         class=""
         id="path2076" />
      <path
         d="M 29,56.31 A 4.28,4.28 0 1 1 33.28,52.03 4.285,4.285 0 0 1 29,56.31 Z m 0,-6.56 A 2.28,2.28 0 1 0 31.28,52.03 2.282,2.282 0 0 0 29,49.75 Z"
         fill="#e8e8e8"
         data-original="#000000"
         class=""
         id="path2078" />
    </g>
    <g
       id="g3093"
       transform="matrix(0.8692795,0.70171478,-0.86119634,0.70830106,63.939743,117.34093)">
<g
   id="g3061">
	<g
   id="g3059">
		<path
   d="M 57.521,11.038 48.398,1.915 c -2.554,-2.553 -6.708,-2.553 -9.262,0 l -9.697,9.697 c -0.405,-0.234 -0.861,-0.369 -1.341,-0.369 v 0 c -0.722,0 -1.4,0.281 -1.909,0.792 L 7.494,30.73 c -1.053,1.053 -1.053,2.766 0,3.818 l 5.162,5.162 -4.95,4.949 1.415,1.415 -8.243,8.243 c -1.17,1.17 -1.17,3.072 0,4.242 0.567,0.566 1.32,0.879 2.122,0.879 0.801,0 1.555,-0.313 2.121,-0.879 l 8.243,-8.243 1.415,1.415 4.949,-4.95 5.161,5.162 c 0.527,0.526 1.218,0.79 1.91,0.79 0.692,0 1.383,-0.264 1.91,-0.79 L 47.404,33.248 c 0.51,-0.51 0.792,-1.188 0.792,-1.91 0,-0.48 -0.135,-0.936 -0.369,-1.341 L 57.524,20.3 c 2.551,-2.554 2.551,-6.709 -0.003,-9.262 z M 3.705,57.145 c -0.378,0.377 -1.036,0.379 -1.414,0 -0.39,-0.39 -0.39,-1.024 0,-1.414 l 8.243,-8.243 1.414,1.414 z m 11.071,-8.242 v 0 l 0.05,-0.051 -4.242,-4.242 -0.05,0.05 v 0 l 3.536,-3.535 0.695,0.695 3.547,3.547 z M 45.988,31.833 27.292,50.529 c -0.273,0.273 -0.718,0.273 -0.991,0 L 21.14,45.367 v 0 L 15.655,39.882 8.908,33.135 c -0.273,-0.273 -0.273,-0.717 0,-0.99 L 27.604,13.45 c 0.265,-0.266 0.726,-0.265 0.991,0 l 17.394,17.394 c 0.132,0.133 0.206,0.309 0.206,0.495 -0.002,0.186 -0.075,0.362 -0.207,0.494 z M 56.107,18.885 46.483,28.509 30.927,12.953 40.551,3.329 c 1.773,-1.773 4.66,-1.773 6.434,0 l 9.123,9.123 c 1.773,1.773 1.773,4.66 -10e-4,6.433 z"
   fill="#e8e8e8"
   data-original="#000000"
   id="path3045" />

		<path
   d="m 44.844,5.431 c -1.373,-1.373 -3.608,-1.373 -4.981,0 l -1.384,1.383 c -1.373,1.373 -1.373,3.608 0,4.981 l 9.161,9.161 c 0.687,0.687 1.588,1.029 2.49,1.029 0.902,0 1.804,-0.343 2.491,-1.029 l 1.383,-1.383 c 1.373,-1.373 1.373,-3.608 0,-4.981 z m 4.211,14.111 -9.161,-9.161 C 39.3,9.787 39.3,8.821 39.894,8.228 l 1.383,-1.383 c 0.593,-0.594 1.558,-0.595 2.153,0 l 9.161,9.161 c 0.594,0.594 0.594,1.56 0,2.153 l -0.338,0.338 -0.707,0.707 -0.338,0.338 c -0.594,0.595 -1.56,0.593 -2.153,0 z"
   fill="#e8e8e8"
   data-original="#000000"
   id="path3047" />

		<path
   d="m 43.06,7.89 c -0.391,-0.391 -1.023,-0.391 -1.414,0 l -0.707,0.707 c -0.391,0.391 -0.391,1.023 0,1.414 0.195,0.195 0.451,0.293 0.707,0.293 0.256,0 0.512,-0.098 0.707,-0.293 L 43.06,9.304 c 0.391,-0.39 0.391,-1.023 0,-1.414 z"
   fill="#e8e8e8"
   data-original="#000000"
   id="path3049" />

		<path
   d="m 45.182,10.012 c -0.391,-0.391 -1.023,-0.391 -1.414,0 l -0.707,0.707 c -0.391,0.391 -0.391,1.023 0,1.414 0.195,0.195 0.451,0.293 0.707,0.293 0.256,0 0.512,-0.098 0.707,-0.293 l 0.707,-0.707 c 0.39,-0.39 0.39,-1.023 0,-1.414 z"
   fill="#e8e8e8"
   data-original="#000000"
   id="path3051" />

		<path
   d="m 47.303,12.133 c -0.391,-0.391 -1.023,-0.391 -1.414,0 l -0.707,0.707 c -0.391,0.391 -0.391,1.023 0,1.414 0.195,0.195 0.451,0.293 0.707,0.293 0.256,0 0.512,-0.098 0.707,-0.293 l 0.707,-0.707 c 0.391,-0.39 0.391,-1.023 0,-1.414 z"
   fill="#e8e8e8"
   data-original="#000000"
   id="path3053" />

		<path
   d="m 49.424,14.254 c -0.391,-0.391 -1.023,-0.391 -1.414,0 l -0.707,0.707 c -0.391,0.391 -0.391,1.023 0,1.414 0.195,0.195 0.451,0.293 0.707,0.293 0.256,0 0.512,-0.098 0.707,-0.293 l 0.707,-0.707 c 0.391,-0.39 0.391,-1.023 0,-1.414 z"
   fill="#e8e8e8"
   data-original="#000000"
   id="path3055" />

		<path
   d="m 51.546,16.375 c -0.391,-0.391 -1.024,-0.391 -1.415,0 l -0.708,0.707 c -0.391,0.39 -0.391,1.023 0,1.414 0.195,0.195 0.452,0.293 0.708,0.293 0.256,0 0.512,-0.098 0.707,-0.293 l 0.708,-0.707 c 0.39,-0.389 0.39,-1.023 0,-1.414 z"
   fill="#e8e8e8"
   data-original="#000000"
   id="path3057" />

	</g>

</g>

<g
   id="g3063">
</g>

<g
   id="g3065">
</g>

<g
   id="g3067">
</g>

<g
   id="g3069">
</g>

<g
   id="g3071">
</g>

<g
   id="g3073">
</g>

<g
   id="g3075">
</g>

<g
   id="g3077">
</g>

<g
   id="g3079">
</g>

<g
   id="g3081">
</g>

<g
   id="g3083">
</g>

<g
   id="g3085">
</g>

<g
   id="g3087">
</g>

<g
   id="g3089">
</g>

<g
   id="g3091">
</g>

</g>
  </g>
</svg>
