<?xml version="1.0" encoding="UTF-8" standalone="no"?>
<svg
   xmlns:dc="http://purl.org/dc/elements/1.1/"
   xmlns:cc="http://creativecommons.org/ns#"
   xmlns:rdf="http://www.w3.org/1999/02/22-rdf-syntax-ns#"
   xmlns:svg="http://www.w3.org/2000/svg"
   xmlns="http://www.w3.org/2000/svg"
   xmlns:sodipodi="http://sodipodi.sourceforge.net/DTD/sodipodi-0.dtd"
   xmlns:inkscape="http://www.inkscape.org/namespaces/inkscape"
   width="210mm"
   height="297mm"
   viewBox="0 0 210 297"
   version="1.1"
   id="svg8"
   inkscape:version="1.0.2-2 (e86c870879, 2021-01-15)"
   sodipodi:docname="bgsvg3.svg">
  <defs
     id="defs2" />
  <sodipodi:namedview
     id="base"
     pagecolor="#ffffff"
     bordercolor="#666666"
     borderopacity="1.0"
     inkscape:pageopacity="0.0"
     inkscape:pageshadow="2"
     inkscape:zoom="1.0788873"
     inkscape:cx="336.30049"
     inkscape:cy="298.79536"
     inkscape:document-units="mm"
     inkscape:current-layer="layer1"
     inkscape:document-rotation="0"
     showgrid="false"
     inkscape:window-width="1920"
     inkscape:window-height="1001"
     inkscape:window-x="-9"
     inkscape:window-y="-9"
     inkscape:window-maximized="1" />
  <metadata
     id="metadata5">
    <rdf:RDF>
      <cc:Work
         rdf:about="">
        <dc:format>image/svg+xml</dc:format>
        <dc:type
           rdf:resource="http://purl.org/dc/dcmitype/StillImage" />
        <dc:title></dc:title>
      </cc:Work>
    </rdf:RDF>
  </metadata>
  <g
     inkscape:label="Слой 1"
     inkscape:groupmode="layer"
     id="layer1">
    <g
       id="g4992"
       transform="matrix(0.66333696,0,0,0.66333696,11.233054,10.252105)">
<g
   id="g4960">
	<path
   d="m 64,48 v 0 H 56 V 32 h 8 C 72.836,32 80,24.836 80,16 80,7.164 72.836,0 64,0 55.163,0 48,7.164 48,16 v 8 H 32 V 16 C 32,7.164 24.836,0 16,0 7.164,0 0,7.164 0,16 0,24.836 7.164,32 16,32 h 8 v 16 h -8 v 0 0 C 7.164,48 0,55.164 0,64 c 0,8.836 7.164,16 16,16 8.837,0 16,-7.164 16,-16 v 0 -8 h 16 v 7.98 c 0,0.008 -10e-4,0.014 -10e-4,0.02 0,8.836 7.164,16 16,16 8.836,0 16,-7.164 16,-16 C 79.999,55.164 72.836,48.002 64,48 Z M 64,8 c 4.418,0 8,3.582 8,8 0,4.418 -3.582,8 -8,8 h -8 v -8 c 0,-4.418 3.582,-8 8,-8 z M 8,16 c 0,-4.418 3.582,-8 8,-8 4.418,0 8,3.582 8,8 v 8 H 16 C 11.582,24 8,20.417 8,16 Z m 8,56 c -4.418,0 -8,-3.582 -8,-8 0,-4.418 3.582,-8 8,-8 v 0 h 8 v 8 c 0,4.418 -3.582,8 -8,8 z M 32,48 V 32 h 16 v 16 z m 32,24 c -4.418,0 -8,-3.582 -8,-8 v 0 -8 h 7.999 c 4.418,0 8,3.582 8,8 0,4.418 -3.581,8 -7.999,8 z"
   fill="#e8e8e8"
   data-original="#000000"
   class=""
   id="path4958" />

</g>

<g
   id="g4962">
</g>

<g
   id="g4964">
</g>

<g
   id="g4966">
</g>

<g
   id="g4968">
</g>

<g
   id="g4970">
</g>

<g
   id="g4972">
</g>

<g
   id="g4974">
</g>

<g
   id="g4976">
</g>

<g
   id="g4978">
</g>

<g
   id="g4980">
</g>

<g
   id="g4982">
</g>

<g
   id="g4984">
</g>

<g
   id="g4986">
</g>

<g
   id="g4988">
</g>

<g
   id="g4990">
</g>

</g>
    <g
       id="g5232"
       transform="matrix(0.10125151,0,0,0.10125151,76.711391,10.006867)">
<g
   id="g5176">
	<g
   id="g5174">
		<path
   d="M 407,0 H 105 C 47.103,0 0,47.103 0,105 v 302 c 0,57.897 47.103,105 105,105 h 302 c 57.897,0 105,-47.103 105,-105 V 105 C 512,47.103 464.897,0 407,0 Z m 75,407 c 0,41.355 -33.645,75 -75,75 H 105 C 63.645,482 30,448.355 30,407 V 105 C 30,63.645 63.645,30 105,30 h 302 c 41.355,0 75,33.645 75,75 z"
   fill="#e8e8e8"
   data-original="#000000"
   id="path5172" />

	</g>

</g>

<g
   id="g5182">
	<g
   id="g5180">
		<path
   d="m 186.923,180.173 c 0,0 -13.686,0.063 -23.53,13.038 -8.754,11.538 -6.525,21.406 -6.525,21.406 0,0 11.869,2.054 22.311,-10.494 9.779,-11.751 7.744,-23.95 7.744,-23.95 z"
   fill="#e8e8e8"
   data-original="#000000"
   id="path5178" />

	</g>

</g>

<g
   id="g5188">
	<g
   id="g5186">
		<path
   d="m 197.958,259.573 c 0,-20.102 16.204,-28.386 16.204,-28.386 0,0 -8.285,-14.985 -29.344,-14.985 -12.234,0 -21.633,6.961 -26.698,6.961 -5.899,0 -14.706,-6.544 -26.053,-6.544 -17.456,0 -36.066,15.63 -36.066,45.425 C 96,292.326 117.987,330 135.391,330 c 6.075,0 15.402,-6.119 24.801,-6.119 9.223,0 16.029,5.899 24.783,5.899 19.059,0 33.169,-39.715 33.169,-39.715 0,0 -20.186,-7.815 -20.186,-30.492 z"
   fill="#e8e8e8"
   data-original="#000000"
   id="path5184" />

	</g>

</g>

<g
   id="g5194">
	<g
   id="g5192">
		<path
   d="m 304,301.4 c -1.6,0.669 -9,3.8 -14.6,3.8 -5.9,0 -10,-2.95 -10,-10.2 v -51.2 h 22 v -20.6 h -22 v -34 h -26.8 v 34 h -13.8 v 20.6 h 13.8 V 304 c 0,16 9.399,25.8 27.2,25.8 5.731,0 11.2,-0.8 16.4,-2.4 5.2,-1.6 9.6,-3.2 13.2,-4.8 z"
   fill="#e8e8e8"
   data-original="#000000"
   id="path5190" />

	</g>

</g>

<g
   id="g5200">
	<g
   id="g5198">
		<polygon
   points="367.198,306.2 340.598,223.2 312.998,223.2 351.598,328 380.598,328 419.198,223.2 393.998,223.2 "
   fill="#e8e8e8"
   data-original="#000000"
   id="polygon5196" />

	</g>

</g>

<g
   id="g5202">
</g>

<g
   id="g5204">
</g>

<g
   id="g5206">
</g>

<g
   id="g5208">
</g>

<g
   id="g5210">
</g>

<g
   id="g5212">
</g>

<g
   id="g5214">
</g>

<g
   id="g5216">
</g>

<g
   id="g5218">
</g>

<g
   id="g5220">
</g>

<g
   id="g5222">
</g>

<g
   id="g5224">
</g>

<g
   id="g5226">
</g>

<g
   id="g5228">
</g>

<g
   id="g5230">
</g>

</g>
    <g
       id="g5607"
       transform="matrix(0.35131474,0,0,0.42919346,124.0512,10.006867)">
<g
   id="g5575">
	<path
   d="m 211.867,33.572 h -7.975 V 7.5 c 0,-4.142 -3.358,-7.5 -7.5,-7.5 H 66.297 c -4.142,0 -7.5,3.358 -7.5,7.5 v 26.072 h -7.975 c -4.142,0 -7.5,3.358 -7.5,7.5 v 58.753 c 0,4.142 3.358,7.5 7.5,7.5 h 56.52 v 20.289 c 0,4.142 3.358,7.5 7.5,7.5 h 9.003 v 127.575 h 15 V 135.114 h 9.002 c 4.142,0 7.5,-3.358 7.5,-7.5 v -20.289 h 56.521 c 4.142,0 7.5,-3.358 7.5,-7.5 V 41.072 c -0.001,-4.142 -3.359,-7.5 -7.501,-7.5 z M 73.797,15 H 188.893 V 33.572 H 73.797 Z m 66.55,105.114 h -18.005 v -12.789 h 18.005 z m 64.02,-27.789 H 147.846 114.841 58.321 V 48.572 h 7.975 130.096 7.975 z"
   fill="#e8e8e8"
   data-original="#000000"
   class=""
   id="path5571" />

	<path
   d="m 144.547,62.949 h -26.404 c -4.142,0 -7.5,3.358 -7.5,7.5 0,4.142 3.358,7.5 7.5,7.5 h 26.404 c 4.142,0 7.5,-3.358 7.5,-7.5 0,-4.142 -3.358,-7.5 -7.5,-7.5 z"
   fill="#e8e8e8"
   data-original="#000000"
   class=""
   id="path5573" />

</g>

<g
   id="g5577">
</g>

<g
   id="g5579">
</g>

<g
   id="g5581">
</g>

<g
   id="g5583">
</g>

<g
   id="g5585">
</g>

<g
   id="g5587">
</g>

<g
   id="g5589">
</g>

<g
   id="g5591">
</g>

<g
   id="g5593">
</g>

<g
   id="g5595">
</g>

<g
   id="g5597">
</g>

<g
   id="g5599">
</g>

<g
   id="g5601">
</g>

<g
   id="g5603">
</g>

<g
   id="g5605">
</g>

</g>
    <g
       id="g5967"
       transform="matrix(0.67576656,0,0,0.67576656,11.968763,58.127954)">
<g
   id="g5935">
	<path
   d="m 11.025,87.78 h 93.333 c 1.931,0 3.5,-1.57 3.5,-3.5 v -60 c 0,-1.93 -1.569,-3.5 -3.5,-3.5 H 11.025 c -1.93,0 -3.5,1.57 -3.5,3.5 v 60 c 0,1.93 1.571,3.5 3.5,3.5 z m -0.5,-63.5 c 0,-0.276 0.224,-0.5 0.5,-0.5 h 93.333 c 0.276,0 0.5,0.224 0.5,0.5 v 60 c 0,0.276 -0.224,0.5 -0.5,0.5 H 11.025 c -0.276,0 -0.5,-0.224 -0.5,-0.5 z m 104.858,66.178 v 2.801 c 0,0.742 -0.602,1.344 -1.344,1.344 H 1.344 C 0.602,94.603 0,94.001 0,93.259 v -2.801 h 47.387 c 0.234,0.781 0.95,1.354 1.807,1.354 H 66.19 c 0.856,0 1.572,-0.572 1.807,-1.354 z"
   fill="#e8e8e8"
   data-original="#000000"
   id="path5933" />

</g>

<g
   id="g5937">
</g>

<g
   id="g5939">
</g>

<g
   id="g5941">
</g>

<g
   id="g5943">
</g>

<g
   id="g5945">
</g>

<g
   id="g5947">
</g>

<g
   id="g5949">
</g>

<g
   id="g5951">
</g>

<g
   id="g5953">
</g>

<g
   id="g5955">
</g>

<g
   id="g5957">
</g>

<g
   id="g5959">
</g>

<g
   id="g5961">
</g>

<g
   id="g5963">
</g>

<g
   id="g5965">
</g>

</g>
    <g
       id="g6447"
       transform="matrix(0.18648242,0,0,0.18648242,100.88306,71.561162)">
<g
   id="g6415">
	<path
   d="M 153.986,0 H 121.085 C 88.153,0 61.362,26.792 61.362,59.724 V 215.35 c 0,32.932 26.791,59.723 59.723,59.723 h 32.901 c 32.932,0 59.724,-26.791 59.724,-59.723 V 59.724 C 213.71,26.792 186.918,0 153.986,0 Z m 44.724,215.35 c 0,24.66 -20.063,44.723 -44.724,44.723 h -32.901 c -24.66,0 -44.723,-20.063 -44.723,-44.723 V 59.724 C 76.362,35.063 96.425,15 121.085,15 h 32.901 c 24.661,0 44.724,20.063 44.724,44.724 z"
   fill="#e8e8e8"
   data-original="#000000"
   class=""
   id="path6409" />

	<path
   d="m 143.51,182.258 c 1.402,-1.799 2.467,-4.342 2.08,-6.951 -2.289,0.161 -4.971,1.621 -6.533,3.525 -1.418,1.727 -2.592,4.288 -2.139,6.777 2.503,0.079 5.088,-1.42 6.592,-3.351 z"
   fill="#e8e8e8"
   data-original="#000000"
   class=""
   id="path6411" />

	<path
   d="m 150.355,197.133 c 0.709,-1.978 2.112,-3.758 4.293,-4.957 -2.203,-2.748 -5.293,-4.342 -8.211,-4.342 -3.857,0 -5.49,1.838 -8.172,1.838 -2.758,0 -4.854,-1.838 -8.195,-1.838 -3.279,0 -6.768,1.997 -8.979,5.409 -0.815,1.261 -1.367,2.828 -1.667,4.573 -0.833,4.895 0.412,11.271 4.128,16.934 1.807,2.748 4.216,5.842 7.363,5.869 2.803,0.027 3.597,-1.792 7.393,-1.811 3.799,-0.021 4.518,1.83 7.319,1.804 3.146,-0.027 5.688,-3.451 7.495,-6.198 1.286,-1.972 1.773,-2.968 2.773,-5.196 -5.087,-1.919 -7.18,-7.525 -5.54,-12.085 z"
   fill="#e8e8e8"
   data-original="#000000"
   class=""
   id="path6413" />

</g>

<g
   id="g6417">
</g>

<g
   id="g6419">
</g>

<g
   id="g6421">
</g>

<g
   id="g6423">
</g>

<g
   id="g6425">
</g>

<g
   id="g6427">
</g>

<g
   id="g6429">
</g>

<g
   id="g6431">
</g>

<g
   id="g6433">
</g>

<g
   id="g6435">
</g>

<g
   id="g6437">
</g>

<g
   id="g6439">
</g>

<g
   id="g6441">
</g>

<g
   id="g6443">
</g>

<g
   id="g6445">
</g>

</g>
  </g>
</svg>
