<svg
   xmlns:dc="http://purl.org/dc/elements/1.1/"
   xmlns:cc="http://creativecommons.org/ns#"
   xmlns:rdf="http://www.w3.org/1999/02/22-rdf-syntax-ns#"
   xmlns:svg="http://www.w3.org/2000/svg"
   xmlns="http://www.w3.org/2000/svg"
   xmlns:sodipodi="http://sodipodi.sourceforge.net/DTD/sodipodi-0.dtd"
   xmlns:inkscape="http://www.inkscape.org/namespaces/inkscape"
   height="512pt"
   viewBox="-88 0 512 512"
   width="512pt"
   version="1.1"
   id="svg30"
   sodipodi:docname="bgsvg.svg"
   inkscape:version="1.0.2-2 (e86c870879, 2021-01-15)">
  <metadata
     id="metadata36">
    <rdf:RDF>
      <cc:Work
         rdf:about="">
        <dc:format>image/svg+xml</dc:format>
        <dc:type
           rdf:resource="http://purl.org/dc/dcmitype/StillImage" />
        <dc:title></dc:title>
      </cc:Work>
    </rdf:RDF>
  </metadata>
  <defs
     id="defs34" />
  <sodipodi:namedview
     pagecolor="#E8E8E8"
     bordercolor="#E8E8E8"
     borderopacity="1"
     objecttolerance="10"
     gridtolerance="10"
     guidetolerance="10"
     inkscape:pageopacity="0"
     inkscape:pageshadow="2"
     inkscape:window-width="1710"
     inkscape:window-height="1030"
     id="namedview32"
     showgrid="false"
     inkscape:zoom="0.82967656"
     inkscape:cx="243.19077"
     inkscape:cy="299.61544"
     inkscape:window-x="32"
     inkscape:window-y="0"
     inkscape:window-maximized="0"
     inkscape:current-layer="svg30" />
  <g
     id="g103"
     transform="matrix(0.38011167,0,0,0.3639229,110.36367,145.7863)" />
  <g
     id="CPU"
     transform="matrix(3.4689077,0,0,3.2619711,144.5017,0.33396367)">
    <path
       d="m 41,29 h -1.756 l 1.243,-1.243 a 1,1 0 0 0 0,-1.414 l -2.83,-2.83 a 1,1 0 0 0 -1.414,0 L 35,24.756 V 23 a 1,1 0 0 0 -1,-1 h -4 a 1,1 0 0 0 -1,1 v 1.756 l -1.243,-1.243 a 1,1 0 0 0 -1.414,0 l -2.83,2.83 a 1,1 0 0 0 0,1.414 L 24.756,29 H 23 a 1,1 0 0 0 -1,1 v 4 a 1,1 0 0 0 1,1 h 1.756 l -1.243,1.243 a 1,1 0 0 0 0,1.414 l 2.83,2.83 a 1,1 0 0 0 1.414,0 L 29,39.244 V 41 a 1,1 0 0 0 1,1 h 4 a 1,1 0 0 0 1,-1 v -1.756 l 1.243,1.243 a 1,1 0 0 0 1.414,0 l 2.83,-2.83 a 1,1 0 0 0 0,-1.414 L 39.244,35 H 41 a 1,1 0 0 0 1,-1 v -4 a 1,1 0 0 0 -1,-1 z m -1,4 h -2.35 a 1,1 0 0 0 -0.957,0.71 2.234,2.234 0 0 1 -0.169,0.406 1,1 0 0 0 0.179,1.171 L 38.366,36.95 36.95,38.366 35.287,36.7 a 1,1 0 0 0 -1.171,-0.179 2.306,2.306 0 0 1 -0.4,0.168 A 1,1 0 0 0 33,37.65 V 40 h -2 v -2.35 a 1,1 0 0 0 -0.713,-0.958 2.306,2.306 0 0 1 -0.4,-0.168 1,1 0 0 0 -1.171,0.179 L 27.05,38.366 25.634,36.95 27.3,35.287 A 1,1 0 0 0 27.479,34.116 2.234,2.234 0 0 1 27.31,33.71 1,1 0 0 0 26.35,33 H 24 v -2 h 2.35 a 1,1 0 0 0 0.957,-0.71 2.234,2.234 0 0 1 0.169,-0.406 1,1 0 0 0 -0.179,-1.171 L 25.634,27.05 27.05,25.634 28.713,27.3 a 1,1 0 0 0 1.171,0.179 2.306,2.306 0 0 1 0.4,-0.168 A 1,1 0 0 0 31,26.35 V 24 h 2 v 2.35 a 1,1 0 0 0 0.713,0.958 2.306,2.306 0 0 1 0.4,0.168 1,1 0 0 0 1.171,-0.179 l 1.663,-1.663 1.416,1.416 -1.663,1.663 A 1,1 0 0 0 36.521,29.884 2.234,2.234 0 0 1 36.69,30.29 1,1 0 0 0 37.647,31 H 40 Z"
       id="path142" />
    <path
       d="m 32,28 a 4,4 0 1 0 4,4 4,4 0 0 0 -4,-4 z m 0,6 a 2,2 0 1 1 2,-2 2,2 0 0 1 -2,2 z"
       id="path144" />
    <path
       d="m 59,37 a 3,3 0 0 0 -2.816,2 H 46 v -2 h 5 a 1,1 0 0 0 0,-2 h -5 v -2 h 5 a 1,1 0 0 0 0.447,-0.1 l 5.476,-2.739 A 2.994,2.994 0 1 0 56,28 2.9,2.9 0 0 0 56.037,28.363 L 50.764,31 H 46 v -2 h 3 a 1,1 0 0 0 0,-2 h -3 v -2 h 4 a 1,1 0 0 0 0.707,-0.293 l 3,-3 0.006,-0.009 A 2.957,2.957 0 0 0 55,22 3,3 0 1 0 52,19 2.957,2.957 0 0 0 52.3,20.287 L 52.291,20.293 49.586,23 H 46 A 5.006,5.006 0 0 0 41,18 V 15.414 L 46.707,9.707 46.713,9.698 A 2.957,2.957 0 0 0 48,10 3,3 0 1 0 45,7 2.957,2.957 0 0 0 45.3,8.287 l -0.009,0.006 -6,6 A 1,1 0 0 0 39,15 v 3 h -2 v -3 a 1,1 0 0 0 -2,0 v 3 h -2 v -6.184 a 3,3 0 1 0 -2,0 V 18 h -2 v -3 a 1,1 0 0 0 -2,0 v 3 h -2 v -7 a 1,1 0 0 0 -0.293,-0.707 l -4,-4 L 20.7,6.287 A 2.957,2.957 0 0 0 21,5 3,3 0 1 0 18,8 2.96,2.96 0 0 0 19.287,7.7 L 19.293,7.709 23,11.414 V 18 a 5.006,5.006 0 0 0 -5,5 H 14.414 L 11.707,20.293 11.698,20.287 A 2.957,2.957 0 0 0 12,19 3,3 0 1 0 9,22 2.96,2.96 0 0 0 10.287,21.7 l 0.006,0.009 3,3 A 1,1 0 0 0 14,25 h 4 v 2 h -6 a 1,1 0 0 0 -0.625,0.219 l -4.413,3.53 A 2.974,2.974 0 0 0 5,30 3,3 0 1 0 8,33 2.925,2.925 0 0 0 7.951,32.52 L 12.351,29 H 18 v 2 h -3 a 1,1 0 0 0 0,2 h 3 v 2 h -7 a 1,1 0 0 0 0,2 h 7 v 2 h -5 a 1,1 0 0 0 -0.832,0.445 l -3.9,5.847 A 2.971,2.971 0 0 0 7,45 3,3 0 1 0 10,48 2.963,2.963 0 0 0 9.7,46.71 0.957,0.957 0 0 0 9.835,46.555 L 13.535,41 H 18 a 5.006,5.006 0 0 0 5,5 v 6.586 l -3.707,3.707 -0.006,0.009 A 2.957,2.957 0 0 0 18,56 a 3,3 0 1 0 3,3 2.957,2.957 0 0 0 -0.3,-1.287 l 0.009,-0.006 4,-4 A 1,1 0 0 0 25,53 v -7 h 2 v 6 a 1,1 0 0 0 2,0 v -6 h 2 v 8 a 1,1 0 0 0 0.47,0.848 l 5.6,3.505 a 3.044,3.044 0 1 0 1.069,-1.691 L 33,53.446 V 46 h 2 v 3 a 1,1 0 0 0 2,0 v -3 h 2 v 7 a 1,1 0 0 0 1,1 h 6 a 0.9,0.9 0 0 0 0.173,-0.035 3,3 0 1 0 0,-1.93 A 0.9,0.9 0 0 0 46,52 h -5 v -6 a 5.006,5.006 0 0 0 5,-5 H 56.184 A 2.995,2.995 0 1 0 59,37 Z m 0,-10 a 1,1 0 1 1 -1,1 1,1 0 0 1 1,-1 z m -4,-9 a 1,1 0 1 1 -1,1 1,1 0 0 1 1,-1 z M 48,6 A 1,1 0 1 1 47,7 1,1 0 0 1 48,6 Z M 32,8 A 1,1 0 1 1 31,9 1,1 0 0 1 32,8 Z M 18,6 A 1,1 0 1 1 19,5 1,1 0 0 1 18,6 Z M 9,20 a 1,1 0 1 1 1,-1 1,1 0 0 1 -1,1 z M 5,34 a 1,1 0 1 1 1,-1 1,1 0 0 1 -1,1 z m 2,15 a 1,1 0 1 1 1,-1 1,1 0 0 1 -1,1 z m 11,11 a 1,1 0 1 1 1,-1 1,1 0 0 1 -1,1 z m 22,-2 a 1,1 0 1 1 -1,1 1,1 0 0 1 1,-1 z m 9,-6 a 1,1 0 1 1 -1,1 1,1 0 0 1 1,-1 z M 44,41 a 3,3 0 0 1 -3,3 H 23 A 3,3 0 0 1 20,41 V 23 a 3,3 0 0 1 3,-3 h 18 a 3,3 0 0 1 3,3 z m 15,0 a 1,1 0 1 1 1,-1 1,1 0 0 1 -1,1 z"
       id="path146" />
  </g>
  <g
     id="g385"
     transform="matrix(4.9773736,0,0,5.1406954,-103.97501,60.357006)">
    <g
       id="g317">
	<g
   id="g315">
		<path
   d="m 19,16 c 0.256,0 0.512,-0.098 0.707,-0.293 l 4,-4 c 0.391,-0.391 0.391,-1.023 0,-1.414 -0.391,-0.391 -1.023,-0.391 -1.414,0 l -4,4 c -0.391,0.391 -0.391,1.023 0,1.414 C 18.488,15.902 18.744,16 19,16 Z"
   id="path291" />

		<path
   d="m 19,21 c 0.256,0 0.512,-0.098 0.707,-0.293 l 2,-2 c 0.391,-0.391 0.391,-1.023 0,-1.414 -0.391,-0.391 -1.023,-0.391 -1.414,0 l -2,2 c -0.391,0.391 -0.391,1.023 0,1.414 C 18.488,20.902 18.744,21 19,21 Z"
   id="path293" />

		<path
   d="M 22.29,15.29 C 22.11,15.479 22,15.74 22,16 c 0,0.26 0.11,0.52 0.29,0.71 0.19,0.18 0.45,0.29 0.71,0.29 0.26,0 0.52,-0.11 0.71,-0.29 C 23.89,16.52 24,16.26 24,16 c 0,-0.26 -0.11,-0.521 -0.29,-0.71 -0.38,-0.37 -1.05,-0.37 -1.42,0 z"
   id="path295" />

		<path
   d="M 24.293,14.707 C 24.488,14.902 24.744,15 25,15 c 0.256,0 0.512,-0.098 0.707,-0.293 l 3,-3 c 0.391,-0.391 0.391,-1.023 0,-1.414 -0.391,-0.391 -1.023,-0.391 -1.414,0 l -3,3 c -0.391,0.391 -0.391,1.023 0,1.414 z"
   id="path297" />

		<path
   d="m 27.293,15.293 -9,9 c -0.391,0.391 -0.391,1.023 0,1.414 C 18.488,25.902 18.744,26 19,26 c 0.256,0 0.512,-0.098 0.707,-0.293 l 9,-9 c 0.391,-0.391 0.391,-1.023 0,-1.414 -0.391,-0.391 -1.023,-0.391 -1.414,0 z"
   id="path299" />

		<path
   d="M 29.29,13.29 C 29.11,13.479 29,13.729 29,14 c 0,0.27 0.11,0.52 0.29,0.71 0.19,0.18 0.45,0.29 0.71,0.29 0.26,0 0.52,-0.11 0.71,-0.29 C 30.89,14.52 31,14.26 31,14 c 0,-0.26 -0.11,-0.521 -0.29,-0.71 -0.37,-0.37 -1.05,-0.37 -1.42,0 z"
   id="path301" />

		<path
   d="m 32.293,10.293 -1,1 c -0.391,0.391 -0.391,1.023 0,1.414 C 31.488,12.902 31.744,13 32,13 c 0.256,0 0.512,-0.098 0.707,-0.293 l 1,-1 c 0.391,-0.391 0.391,-1.023 0,-1.414 -0.391,-0.391 -1.023,-0.391 -1.414,0 z"
   id="path303" />

		<path
   d="M 39.632,0 H 17.368 C 14.408,0 12,2.408 12,5.368 V 7 c -0.552,0 -1,0.447 -1,1 v 1 c 0,0.553 0.448,1 1,1 v 1 c -0.552,0 -1,0.447 -1,1 v 1 c 0,0.553 0.448,1 1,1 v 1 c -0.552,0 -1,0.447 -1,1 v 1 c 0,0.553 0.448,1 1,1 V 50.632 C 12,53.592 14.408,56 17.368,56 H 39.632 C 42.592,56 45,53.592 45,50.632 V 5.368 C 45,2.408 42.592,0 39.632,0 Z M 43,50.632 C 43,52.489 41.489,54 39.632,54 H 17.368 C 15.511,54 14,52.489 14,50.632 V 5.368 C 14,3.511 15.511,2 17.368,2 H 39.632 C 41.489,2 43,3.511 43,5.368 Z"
   id="path305" />

		<path
   d="M 15,47 H 42 V 7 H 15 Z M 17,9 H 40 V 45 H 17 Z"
   id="path307" />

		<path
   d="m 26.788804,5.0416702 h 4.100523 c 0.754497,0 1.366842,-0.3408921 1.366842,-0.7626222 0,-0.4217302 -0.612345,-0.7626223 -1.366842,-0.7626223 h -4.100523 c -0.754497,0 -1.366842,0.3408921 -1.366842,0.7626223 0,0.4217301 0.612345,0.7626222 1.366842,0.7626222 z"
   id="path309"
   style="stroke-width:1.02098" />

		<path
   d="m 24.1592,4.8001688 c 0.153755,0 0.30751,-0.056472 0.41987,-0.1488814 0.106445,-0.097543 0.171496,-0.231023 0.171496,-0.3645029 0,-0.1334799 -0.06505,-0.2674732 -0.171496,-0.3645029 -0.224719,-0.1899521 -0.615021,-0.1899521 -0.83974,0 -0.106446,0.09703 -0.171496,0.2253758 -0.171496,0.3645029 0,0.1334799 0.06505,0.2669598 0.171496,0.3645029 0.11236,0.092409 0.266115,0.1488814 0.41987,0.1488814 z"
   id="path311"
   style="stroke-width:0.550997" />

		<circle
   cx="28.5"
   cy="50.5"
   r="2.5"
   id="circle313" />

	<path
   d="m 28.81727,3.232425 c 0.16556,0 0.33112,-0.061338 0.452106,-0.1617104 0.114619,-0.1059482 0.184663,-0.2509299 0.184663,-0.3959117 0,-0.1449817 -0.07004,-0.2905211 -0.184663,-0.3959117 -0.241972,-0.2063201 -0.66224,-0.2063201 -0.904213,0 -0.114618,0.1053906 -0.184663,0.2447961 -0.184663,0.3959117 0,0.1449818 0.07005,0.2899635 0.184663,0.3959117 0.120986,0.100372 0.286547,0.1617104 0.452107,0.1617104 z"
   id="path311-3"
   style="stroke-width:0.595883" />
</g>

</g>
    <g
       id="g319">
</g>
    <g
       id="g321">
</g>
    <g
       id="g323">
</g>
    <g
       id="g325">
</g>
    <g
       id="g327">
</g>
    <g
       id="g329">
</g>
    <g
       id="g331">
</g>
    <g
       id="g333">
</g>
    <g
       id="g335">
</g>
    <g
       id="g337">
</g>
    <g
       id="g339">
</g>
    <g
       id="g341">
</g>
    <g
       id="g343">
</g>
    <g
       id="g345">
</g>
    <g
       id="g347">
</g>
  </g>
  <g
     id="g563"
     transform="matrix(0,0.40142802,-0.47209758,0,378.17225,211.58122)">
    <path
       d="M 280.10156,0 H 55.164062 C 24.746094,0 0,24.746094 0,55.167969 V 456.83594 C 0,487.25391 24.746094,512 55.164062,512 H 280.10156 c 30.41797,0 55.16406,-24.74609 55.16406,-55.16406 V 55.167969 C 335.26562,24.746094 310.51953,0 280.10156,0 Z m 25.16406,456.83594 c 0,13.875 -11.28906,25.16406 -25.16406,25.16406 H 55.164062 C 41.289062,482 30,470.71094 30,456.83594 V 55.167969 C 30,41.289062 41.289062,30 55.164062,30 h 65.390628 c -0.0234,0.355469 -0.0547,0.707031 -0.0547,1.066406 0,8.285156 6.71484,15 15,15 h 64.26562 c 8.28516,0 15,-6.714844 15,-15 0,-0.359375 -0.0273,-0.710937 -0.0547,-1.066406 h 65.39062 c 13.875,0 25.16406,11.289062 25.16406,25.167969 z m 0,0"
       id="path546" />
    <path
       d="M 229.32812,229.32812 84.726562,373.92578 c -5.859374,5.85938 -5.859374,15.35547 0,21.21484 2.929688,2.92579 6.765626,4.39063 10.605469,4.39063 3.839844,0 7.679689,-1.46484 10.605469,-4.39063 L 250.53906,250.53906 c 5.85938,-5.85547 5.85938,-15.35547 0,-21.21094 -5.85547,-5.85937 -15.35156,-5.85937 -21.21094,0 z m 0,0"
       id="path548" />
    <path
       d="M 229.32812,116.85938 84.726562,261.46094 c -5.859374,5.85937 -5.859374,15.35547 0,21.21484 2.925782,2.92578 6.765626,4.39063 10.605469,4.39063 3.835938,0 7.675779,-1.46485 10.605469,-4.39063 L 250.53906,138.07422 c 5.85938,-5.85547 5.85938,-15.35547 0,-21.21094 -5.85547,-5.85937 -15.35156,-5.85937 -21.21094,-0.004 z m 0,0"
       id="path550" />
  </g>
</svg>
