<?xml version="1.0"?>
<svg xmlns="http://www.w3.org/2000/svg" xmlns:xlink="http://www.w3.org/1999/xlink" xmlns:svgjs="http://svgjs.com/svgjs" version="1.1" width="512" height="512" x="0" y="0" viewBox="0 0 64 64" style="enable-background:new 0 0 512 512" xml:space="preserve" class=""><g><g xmlns="http://www.w3.org/2000/svg" id="cpu_chip" data-name="cpu chip"><path d="M46,35a3.009,3.009,0,0,0,3-3V30a1,1,0,0,1,1-1h9a3.009,3.009,0,0,0,3-3V13a3.009,3.009,0,0,0-3-3,1,1,0,0,1-1-1V7.82a3,3,0,1,0-2,0V9a3.009,3.009,0,0,0,3,3,1,1,0,0,1,1,1V26a1,1,0,0,1-1,1H50a3.009,3.009,0,0,0-3,3v2a1,1,0,0,1-1,1H41V26.5l3.6-2.7A1.014,1.014,0,0,0,45,23V15.5a.5.5,0,0,1,.5-.5h1A2.5,2.5,0,0,0,49,12.5V9.82a3,3,0,1,0-2,0V12.5a.5.5,0,0,1-.5.5h-1A2.5,2.5,0,0,0,43,15.5v7l-3.6,2.7a1.014,1.014,0,0,0-.4.8V40H37V19.5a.5.5,0,0,1,.5-.5A2.5,2.5,0,0,0,40,16.5V7.82a3,3,0,1,0-2,0V16.5a.5.5,0,0,1-.5.5A2.5,2.5,0,0,0,35,19.5V40H33V13.82a3,3,0,1,0-2,0V40H29V19.5A2.5,2.5,0,0,0,26.5,17a.5.5,0,0,1-.5-.5V7.82a3,3,0,1,0-2,0V16.5A2.5,2.5,0,0,0,26.5,19a.5.5,0,0,1,.5.5V40H25V26a1.014,1.014,0,0,0-.4-.8L21,22.5v-7A2.5,2.5,0,0,0,18.5,13h-1a.5.5,0,0,1-.5-.5V9.82a3,3,0,1,0-2,0V12.5A2.5,2.5,0,0,0,17.5,15h1a.5.5,0,0,1,.5.5V23a1.014,1.014,0,0,0,.4.8L23,26.5V33H18a1,1,0,0,1-1-1V30a3.009,3.009,0,0,0-3-3H5a1,1,0,0,1-1-1V13a1,1,0,0,1,1-1A3.009,3.009,0,0,0,8,9V7.82a3,3,0,1,0-2,0V9a1,1,0,0,1-1,1,3.009,3.009,0,0,0-3,3V26a3.009,3.009,0,0,0,3,3h9a1,1,0,0,1,1,1v2a3.009,3.009,0,0,0,3,3h5v5H22a1,1,0,0,0-1,1v1H16v2h5v2H2v2H21v2H16v2h5v2H19v2h2v2H19v2h2v1a1,1,0,0,0,1,1H42a1,1,0,0,0,1-1V60h2V58H43V56h2V54H43V52h5V50H43V48H62V46H43V44h5V42H43V41a1,1,0,0,0-1-1H41V35ZM57,6a1,1,0,1,1,1-1A1,1,0,0,1,57,6ZM48,6a1,1,0,1,1-1,1A1,1,0,0,1,48,6ZM39,4a1,1,0,1,1-1,1A1,1,0,0,1,39,4ZM25,6a1,1,0,1,1,1-1A1,1,0,0,1,25,6ZM16,8a1,1,0,1,1,1-1A1,1,0,0,1,16,8ZM7,4A1,1,0,1,1,6,5,1,1,0,0,1,7,4Zm25,6a1,1,0,1,1-1,1A1,1,0,0,1,32,10Zm9,50H23V42H41Z" fill="#091941" data-original="#000000" style="" class=""/><path d="M55,38v3a1,1,0,0,1-1,1H50v2h4a3,3,0,0,0,3-3V38a1,1,0,0,1,1-1h4V35H58A3,3,0,0,0,55,38Z" fill="#091941" data-original="#000000" style="" class=""/><path d="M57,56V53a3,3,0,0,0-3-3H50v2h4a1,1,0,0,1,1,1v3a3,3,0,0,0,3,3h4V57H58A1,1,0,0,1,57,56Z" fill="#091941" data-original="#000000" style="" class=""/><path d="M7,38v3a3,3,0,0,0,3,3h4V42H10a1,1,0,0,1-1-1V38a3,3,0,0,0-3-3H2v2H6A1,1,0,0,1,7,38Z" fill="#091941" data-original="#000000" style="" class=""/><path d="M7,53v3a1,1,0,0,1-1,1H2v2H6a3,3,0,0,0,3-3V53a1,1,0,0,1,1-1h4V50H10A3,3,0,0,0,7,53Z" fill="#091941" data-original="#000000" style="" class=""/><path d="M35,49.816V58h2V49.816A2.993,2.993,0,1,0,33.184,46H29v2h4.184A3,3,0,0,0,35,49.816ZM36,46a1,1,0,1,1-1,1A1,1,0,0,1,36,46Z" fill="#091941" data-original="#000000" style="" class=""/><rect x="25" y="46" width="2" height="2" fill="#091941" data-original="#000000" style="" class=""/></g></g></svg>
