<?xml version="1.0"?>
<svg xmlns="http://www.w3.org/2000/svg" xmlns:xlink="http://www.w3.org/1999/xlink" xmlns:svgjs="http://svgjs.com/svgjs" version="1.1" width="512" height="512" x="0" y="0" viewBox="0 0 64 64" style="enable-background:new 0 0 512 512" xml:space="preserve" class=""><g><g xmlns="http://www.w3.org/2000/svg" id="cpu_chip" data-name="cpu chip"><path d="M62,18V16H43V14h5V12H43V10h5V8H43V3a1,1,0,0,0-1-1H22a1,1,0,0,0-1,1V4H16V6h5V8H16v2h5v2H16v2h5v2H2v2H21v2H16v2h5v1a1,1,0,0,0,1,1h1v5H16a1,1,0,0,0-1,1v5H3a1,1,0,0,0-1,1V53a1,1,0,0,0,1,1H6v2.18a3,3,0,1,0,2,0V53a1,1,0,0,0-1-1H4V37H16a1,1,0,0,0,1-1V31h6v6.5l-3.6,2.7a1.014,1.014,0,0,0-.4.8v8H16a1,1,0,0,0-1,1v4.18a3,3,0,1,0,2,0V51h3a1,1,0,0,0,1-1V41.5l3.6-2.7A1.014,1.014,0,0,0,25,38V24h2V45H25a1,1,0,0,0-1,1V56.18a3,3,0,1,0,2,0V47h2a1,1,0,0,0,1-1V24h2V50.18a3,3,0,1,0,2,0V24h2V46a1,1,0,0,0,1,1h2v9.18a3,3,0,1,0,2,0V46a1,1,0,0,0-1-1H37V24h2V38a1.014,1.014,0,0,0,.4.8L43,41.5V50a1,1,0,0,0,1,1h3v3.18a3,3,0,1,0,2,0V50a1,1,0,0,0-1-1H45V41a1.014,1.014,0,0,0-.4-.8L41,37.5V31h6v5a1,1,0,0,0,1,1H60V52H57a1,1,0,0,0-1,1v3.18a3,3,0,1,0,2,0V54h3a1,1,0,0,0,1-1V36a1,1,0,0,0-1-1H49V30a1,1,0,0,0-1-1H41V24h1a1,1,0,0,0,1-1V22h5V20H43V18ZM7,58a1,1,0,1,1-1,1A1,1,0,0,1,7,58Zm9,0a1,1,0,1,1,1-1A1,1,0,0,1,16,58Zm9,2a1,1,0,1,1,1-1A1,1,0,0,1,25,60Zm14-2a1,1,0,1,1-1,1A1,1,0,0,1,39,58Zm9-2a1,1,0,1,1-1,1A1,1,0,0,1,48,56Zm9,4a1,1,0,1,1,1-1A1,1,0,0,1,57,60ZM32,54a1,1,0,1,1,1-1A1,1,0,0,1,32,54Zm9-32H23V4H35.59L41,9.41ZM41,6.59,38.41,4H41Z" fill="#091941" data-original="#000000" style="" class=""/><path d="M33,8.1V6H31V8.1A5.016,5.016,0,0,0,27.1,12H25v2h2.1A5.016,5.016,0,0,0,31,17.9V20h2V17.9A5.016,5.016,0,0,0,36.9,14H39V12H36.9A5.016,5.016,0,0,0,33,8.1ZM32,16a3,3,0,1,1,3-3A3,3,0,0,1,32,16Z" fill="#091941" data-original="#000000" style="" class=""/><path d="M57,21a1,1,0,0,0-1-1H50v2h5v6a1,1,0,0,0,1,1h6V27H57Z" fill="#091941" data-original="#000000" style="" class=""/><path d="M56,5a1,1,0,0,0-1,1v6H50v2h6a1,1,0,0,0,1-1V7h5V5Z" fill="#091941" data-original="#000000" style="" class=""/><path d="M9,28V22h5V20H8a1,1,0,0,0-1,1v6H2v2H8A1,1,0,0,0,9,28Z" fill="#091941" data-original="#000000" style="" class=""/><path d="M7,13a1,1,0,0,0,1,1h6V12H9V6A1,1,0,0,0,8,5H2V7H7Z" fill="#091941" data-original="#000000" style="" class=""/></g></g></svg>
